SplineFontDB: 3.0
FontName: hh_proksima
FullName: heksadesiml_hinwi_proksima
FamilyName: hh
Weight: Regular
Copyright: Copyright (c) Mark Simonson, 2005. All rights reserved.
UComments: "hh_proksima phont hinwi qur heksadesiml ke liye h."
Version: 2.001
ItalicAngle: 0
UnderlinePosition: -271
UnderlineWidth: 40
Ascent: 1618
Descent: 430
InvalidEm: 0
sfntRevision: 0x00020042
LayerCount: 2
Layer: 0 1 "Back" 1
Layer: 1 1 "Fore" 0
NeedsXUIDChange: 1
XUID: [1021 467 -1121320856 4098252]
UniqueID: 8281311
UseXUID: 1
UseUniqueID: 1
StyleMap: 0x0040
FSType: 4
OS2Version: 2
OS2_WeightWidthSlopeOnly: 0
OS2_UseTypoMetrics: 0
CreationTime: 1286382563
ModificationTime: 1579099494
PfmFamily: 17
TTFWeight: 400
TTFWidth: 5
LineGap: 0
VLineGap: 0
Panose: 2 0 5 6 3 0 0 2 0 4
OS2TypoAscent: 1618
OS2TypoAOffset: 0
OS2TypoDescent: -430
OS2TypoDOffset: 0
OS2TypoLinegap: 0
OS2WinAscent: 1823
OS2WinAOffset: 0
OS2WinDescent: 448
OS2WinDOffset: 0
HheadAscent: 1823
HheadAOffset: 0
HheadDescent: -448
HheadDOffset: 0
OS2SubXSize: 1434
OS2SubYSize: 1331
OS2SubXOff: 0
OS2SubYOff: 287
OS2SupXSize: 1434
OS2SupYSize: 1331
OS2SupXOff: 0
OS2SupYOff: 977
OS2StrikeYSize: 102
OS2StrikeYPos: 682
OS2CapHeight: 1366
OS2XHeight: 989
OS2Vendor: 'mlss'
OS2CodePages: 20000001.00000000
OS2UnicodeRanges: 800000af.5000e0fb.00000000.00000000
Lookup: 4 0 1 "'liga' Standard Ligatures in Latin lookup 0" { "'liga' Standard Ligatures in Latin lookup 0 subtable"  } ['liga' ('latn' <'dflt' > ) ]
Lookup: 258 0 0 "'kern' Horizontal Kerning in Latin lookup 0" { "'kern' Horizontal Kerning in Latin lookup 0 per glyph data 0"  "'kern' Horizontal Kerning in Latin lookup 0 per glyph data 1"  "'kern' Horizontal Kerning in Latin lookup 0 kerning class 2"  } ['kern' ('latn' <'dflt' > ) ]
MarkAttachClasses: 1
DEI: 91125
KernClass2: 42+ 39 "'kern' Horizontal Kerning in Latin lookup 0 kerning class 2"
 50 A Agrave Aacute Acircumflex Atilde Adieresis Aring
 1 B
 10 C Ccedilla

StartChar: .notdef
Encoding: 65536 -1 0
Width: 748
Flags: W
LayerCount: 2
Fore
SplineSet
68 0 m 1,0,-1
 68 1365 l 1,1,-1
 612 1365 l 1,2,-1
 612 0 l 1,3,-1
 68 0 l 1,0,-1
136 68 m 1,4,-1
 544 68 l 1,5,-1
 544 1297 l 1,6,-1
 136 1297 l 1,7,-1
 136 68 l 1,4,-1
EndSplineSet
EndChar

StartChar: exclam
Encoding: 33 33 6
Width: 471
GlyphClass: 2
Flags: W
LayerCount: 2
Fore
SplineSet
123 92 m 0,0,1
 123 138 123 138 156.5 171.5 c 128,-1,2
 190 205 190 205 236 205 c 128,-1,3
 282 205 282 205 315 171.5 c 128,-1,4
 348 138 348 138 348 92 c 0,5,6
 348 47 348 47 314.5 13.5 c 128,-1,7
 281 -20 281 -20 236 -20 c 0,8,9
 190 -20 190 -20 156.5 14 c 128,-1,10
 123 48 123 48 123 92 c 0,0,1
139 1366 m 1,11,-1
 332 1366 l 1,12,-1
 299 383 l 1,13,-1
 172 383 l 1,14,-1
 139 1366 l 1,11,-1
EndSplineSet
EndChar

StartChar: quotedbl
Encoding: 34 34 7
Width: 704
GlyphClass: 2
Flags: W
LayerCount: 2
Fore
SplineSet
111 1292 m 0,0,1
 111 1330 111 1330 138 1358 c 128,-1,2
 165 1386 165 1386 203 1386 c 0,3,4
 242 1386 242 1386 269.5 1358.5 c 128,-1,5
 297 1331 297 1331 297 1292 c 0,6,7
 297 1279 297 1279 283.5 1167 c 128,-1,8
 270 1055 270 1055 256 950 c 2,9,-1
 242 844 l 1,10,-1
 166 844 l 1,11,12
 111 1263 111 1263 111 1292 c 0,0,1
408 1292 m 0,13,14
 408 1331 408 1331 435.5 1358.5 c 128,-1,15
 463 1386 463 1386 502 1386 c 0,16,17
 540 1386 540 1386 567 1358 c 128,-1,18
 594 1330 594 1330 594 1292 c 0,19,20
 594 1279 594 1279 580 1167 c 128,-1,21
 566 1055 566 1055 552 950 c 2,22,-1
 539 844 l 1,23,-1
 463 844 l 1,24,25
 408 1263 408 1263 408 1292 c 0,13,14
EndSplineSet
EndChar

StartChar: numbersign
Encoding: 35 35 8
Width: 1210
GlyphClass: 2
Flags: W
LayerCount: 2
Fore
SplineSet
45 371 m 1,0,-1
 80 479 l 1,1,-1
 299 479 l 1,2,-1
 434 887 l 1,3,-1
 213 887 l 1,4,-1
 246 993 l 1,5,-1
 471 993 l 1,6,-1
 594 1366 l 1,7,-1
 721 1366 l 1,8,-1
 598 993 l 1,9,-1
 823 993 l 1,10,-1
 946 1366 l 1,11,-1
 1071 1366 l 1,12,-1
 946 993 l 1,13,-1
 1165 993 l 1,14,-1
 1135 887 l 1,15,-1
 911 887 l 1,16,-1
 774 479 l 1,17,-1
 1001 479 l 1,18,-1
 969 371 l 1,19,-1
 737 371 l 1,20,-1
 614 0 l 1,21,-1
 489 0 l 1,22,-1
 614 371 l 1,23,-1
 387 371 l 1,24,-1
 264 0 l 1,25,-1
 137 0 l 1,26,-1
 262 371 l 1,27,-1
 45 371 l 1,0,-1
424 479 m 1,28,-1
 649 479 l 1,29,-1
 786 887 l 1,30,-1
 561 887 l 1,31,-1
 424 479 l 1,28,-1
EndSplineSet
EndChar

StartChar: dollar
Encoding: 36 36 9
Width: 1214
GlyphClass: 2
Flags: W
LayerCount: 2
Fore
SplineSet
88 193 m 1,0,-1
 190 324 l 1,1,2
 254 249 254 249 347 196.5 c 128,-1,3
 440 144 440 144 555 131 c 1,4,-1
 555 629 l 1,5,6
 501 644 501 644 465 655 c 128,-1,7
 429 666 429 666 380.5 685 c 128,-1,8
 332 704 332 704 300 723 c 128,-1,9
 268 742 268 742 233 771 c 128,-1,10
 198 800 198 800 177.5 833 c 128,-1,11
 157 866 157 866 144 910.5 c 128,-1,12
 131 955 131 955 131 1008 c 0,13,14
 131 1165 131 1165 249.5 1268.5 c 128,-1,15
 368 1372 368 1372 555 1386 c 1,16,-1
 555 1573 l 1,17,-1
 680 1573 l 1,18,-1
 680 1384 l 1,19,20
 924 1364 924 1364 1085 1196 c 1,21,-1
 983 1071 l 1,22,23
 862 1204 862 1204 680 1229 c 1,24,-1
 680 782 l 1,25,26
 734 767 734 767 771.5 755 c 128,-1,27
 809 743 809 743 858 723 c 128,-1,28
 907 703 907 703 941 682 c 128,-1,29
 975 661 975 661 1010.5 630 c 128,-1,30
 1046 599 1046 599 1067.5 564 c 128,-1,31
 1089 529 1089 529 1102.5 481 c 128,-1,32
 1116 433 1116 433 1116 377 c 0,33,34
 1116 305 1116 305 1091.5 239.5 c 128,-1,35
 1067 174 1067 174 1017.5 117 c 128,-1,36
 968 60 968 60 881 22.5 c 128,-1,37
 794 -15 794 -15 680 -23 c 1,38,-1
 680 -205 l 1,39,-1
 555 -205 l 1,40,-1
 555 -23 l 1,41,42
 406 -14 406 -14 287 43.5 c 128,-1,43
 168 101 168 101 88 193 c 1,0,-1
307 1018 m 0,44,45
 307 977 307 977 325 945 c 128,-1,46
 343 913 343 913 379.5 889 c 128,-1,47
 416 865 416 865 456.5 848.5 c 128,-1,48
 497 832 497 832 555 815 c 1,49,-1
 555 1233 l 1,50,51
 446 1225 446 1225 376.5 1166 c 128,-1,52
 307 1107 307 1107 307 1018 c 0,44,45
680 129 m 1,53,54
 814 143 814 143 877 211.5 c 128,-1,55
 940 280 940 280 940 365 c 0,56,57
 940 413 940 413 920.5 450.5 c 128,-1,58
 901 488 901 488 862.5 515 c 128,-1,59
 824 542 824 542 782 560 c 128,-1,60
 740 578 740 578 680 596 c 1,61,-1
 680 129 l 1,53,54
EndSplineSet
EndChar

StartChar: percent
Encoding: 37 37 10
Width: 1499
GlyphClass: 2
Flags: W
LayerCount: 2
Fore
SplineSet
63 1047 m 0,0,1
 63 1194 63 1194 155.5 1290 c 128,-1,2
 248 1386 248 1386 393 1386 c 0,3,4
 539 1386 539 1386 631 1290.5 c 128,-1,5
 723 1195 723 1195 723 1047 c 0,6,7
 723 904 723 904 631 808.5 c 128,-1,8
 539 713 539 713 393 713 c 0,9,10
 248 713 248 713 155.5 808.5 c 128,-1,11
 63 904 63 904 63 1047 c 0,0,1
186 1047 m 0,12,13
 186 949 186 949 244.5 883 c 128,-1,14
 303 817 303 817 393 817 c 0,15,16
 484 817 484 817 542 883 c 128,-1,17
 600 949 600 949 600 1047 c 0,18,19
 600 1149 600 1149 542.5 1215.5 c 128,-1,20
 485 1282 485 1282 393 1282 c 0,21,22
 303 1282 303 1282 244.5 1215.5 c 128,-1,23
 186 1149 186 1149 186 1047 c 0,12,13
262 0 m 1,24,-1
 1135 1366 l 1,25,-1
 1249 1366 l 1,26,-1
 375 0 l 1,27,-1
 262 0 l 1,24,-1
776 311 m 128,-1,29
 776 455 776 455 868.5 552 c 128,-1,30
 961 649 961 649 1106 649 c 0,31,32
 1250 649 1250 649 1342 552 c 128,-1,33
 1434 455 1434 455 1434 311 c 128,-1,34
 1434 167 1434 167 1342.5 71 c 128,-1,35
 1251 -25 1251 -25 1106 -25 c 128,-1,36
 961 -25 961 -25 868.5 71 c 128,-1,28
 776 167 776 167 776 311 c 128,-1,29
897 311 m 0,37,38
 897 211 897 211 955 145.5 c 128,-1,39
 1013 80 1013 80 1106 80 c 0,40,41
 1197 80 1197 80 1255 146 c 128,-1,42
 1313 212 1313 212 1313 311 c 0,43,44
 1313 412 1313 412 1255 478.5 c 128,-1,45
 1197 545 1197 545 1106 545 c 0,46,47
 1013 545 1013 545 955 478.5 c 128,-1,48
 897 412 897 412 897 311 c 0,37,38
EndSplineSet
EndChar

StartChar: ampersand
Encoding: 38 38 11
Width: 1314
GlyphClass: 2
Flags: W
LayerCount: 2
Fore
SplineSet
76 356 m 0,0,1
 76 433 76 433 99.5 496.5 c 128,-1,2
 123 560 123 560 168.5 609 c 128,-1,3
 214 658 214 658 262 693 c 128,-1,4
 310 728 310 728 377 764 c 1,5,6
 272 943 272 943 272 1071 c 0,7,8
 272 1206 272 1206 370.5 1296 c 128,-1,9
 469 1386 469 1386 616 1386 c 0,10,11
 752 1386 752 1386 838 1315 c 128,-1,12
 924 1244 924 1244 924 1118 c 0,13,14
 924 1075 924 1075 912.5 1036.5 c 128,-1,15
 901 998 901 998 886 968.5 c 128,-1,16
 871 939 871 939 840.5 908.5 c 128,-1,17
 810 878 810 878 786.5 858.5 c 128,-1,18
 763 839 763 839 719 812.5 c 128,-1,19
 675 786 675 786 650 772.5 c 128,-1,20
 625 759 625 759 575 733 c 1,21,22
 635 653 635 653 735 539 c 0,23,24
 805 454 805 454 897 356 c 1,25,26
 985 490 985 490 1044 670 c 1,27,-1
 1176 610 l 1,28,29
 1088 397 1088 397 989 258 c 1,30,31
 1116 128 1116 128 1255 0 c 1,32,-1
 1042 0 l 1,33,34
 1001 35 1001 35 893 143 c 1,35,36
 725 -25 725 -25 500 -25 c 0,37,38
 412 -25 412 -25 335.5 -0.5 c 128,-1,39
 259 24 259 24 201 70.5 c 128,-1,40
 143 117 143 117 109.5 190.5 c 128,-1,41
 76 264 76 264 76 356 c 0,0,1
240 367 m 0,42,43
 240 245 240 245 320.5 173.5 c 128,-1,44
 401 102 401 102 516 102 c 0,45,46
 668 102 668 102 801 238 c 1,47,48
 660 387 660 387 612 444 c 0,49,50
 509 563 509 563 442 662 c 1,51,52
 345 603 345 603 292.5 534 c 128,-1,53
 240 465 240 465 240 367 c 0,42,43
430 1067 m 0,54,55
 430 971 430 971 512 831 c 1,56,57
 577 863 577 863 617 887 c 128,-1,58
 657 911 657 911 699.5 946 c 128,-1,59
 742 981 742 981 762 1022 c 128,-1,60
 782 1063 782 1063 782 1112 c 0,61,62
 782 1185 782 1185 737 1226.5 c 128,-1,63
 692 1268 692 1268 621 1268 c 0,64,65
 541 1268 541 1268 485.5 1211.5 c 128,-1,66
 430 1155 430 1155 430 1067 c 0,54,55
EndSplineSet
EndChar

StartChar: quotesingle
Encoding: 39 39 12
Width: 407
GlyphClass: 2
Flags: W
LayerCount: 2
Fore
SplineSet
111 1292 m 0,0,1
 111 1330 111 1330 138 1358 c 128,-1,2
 165 1386 165 1386 203 1386 c 0,3,4
 242 1386 242 1386 269.5 1358.5 c 128,-1,5
 297 1331 297 1331 297 1292 c 0,6,7
 297 1279 297 1279 283.5 1167 c 128,-1,8
 270 1055 270 1055 256 950 c 2,9,-1
 242 844 l 1,10,-1
 166 844 l 1,11,12
 111 1263 111 1263 111 1292 c 0,0,1
EndSplineSet
EndChar

StartChar: parenleft
Encoding: 40 40 13
Width: 507
GlyphClass: 2
Flags: W
LayerCount: 2
Fore
SplineSet
90 498 m 128,-1,1
 90 744 90 744 165 977.5 c 128,-1,2
 240 1211 240 1211 379 1403 c 1,3,-1
 473 1333 l 1,4,5
 364 1120 364 1120 311 929.5 c 128,-1,6
 258 739 258 739 258 498 c 0,7,8
 258 258 258 258 311 66.5 c 128,-1,9
 364 -125 364 -125 473 -336 c 1,10,-1
 379 -408 l 1,11,12
 240 -216 240 -216 165 18 c 128,-1,0
 90 252 90 252 90 498 c 128,-1,1
EndSplineSet
EndChar

StartChar: parenright
Encoding: 41 41 14
Width: 507
GlyphClass: 2
Flags: W
LayerCount: 2
Fore
SplineSet
35 -336 m 1,0,1
 144 -125 144 -125 197 66.5 c 128,-1,2
 250 258 250 258 250 498 c 0,3,4
 250 739 250 739 197 929.5 c 128,-1,5
 144 1120 144 1120 35 1333 c 1,6,-1
 129 1403 l 1,7,8
 268 1211 268 1211 343 977.5 c 128,-1,9
 418 744 418 744 418 498 c 128,-1,10
 418 252 418 252 343 18 c 128,-1,11
 268 -216 268 -216 129 -408 c 1,12,-1
 35 -336 l 1,0,1
EndSplineSet
EndChar

StartChar: asterisk
Encoding: 42 42 15
Width: 696
GlyphClass: 2
Flags: W
LayerCount: 2
Fore
SplineSet
70 985 m 1,0,-1
 279 1092 l 1,1,-1
 70 1198 l 1,2,-1
 115 1280 l 1,3,-1
 313 1151 l 1,4,-1
 301 1386 l 1,5,-1
 395 1386 l 1,6,-1
 383 1151 l 1,7,-1
 580 1280 l 1,8,-1
 627 1198 l 1,9,-1
 418 1092 l 1,10,-1
 627 985 l 1,11,-1
 580 905 l 1,12,-1
 383 1032 l 1,13,-1
 395 797 l 1,14,-1
 301 797 l 1,15,-1
 313 1032 l 1,16,-1
 115 905 l 1,17,-1
 70 985 l 1,0,-1
EndSplineSet
EndChar

StartChar: plus
Encoding: 43 43 16
Width: 1021
GlyphClass: 2
Flags: W
LayerCount: 2
Fore
SplineSet
59 637 m 1,0,-1
 59 743 l 1,1,-1
 453 743 l 1,2,-1
 453 1167 l 1,3,-1
 569 1167 l 1,4,-1
 569 743 l 1,5,-1
 963 743 l 1,6,-1
 963 637 l 1,7,-1
 569 637 l 1,8,-1
 569 201 l 1,9,-1
 453 201 l 1,10,-1
 453 637 l 1,11,-1
 59 637 l 1,0,-1
EndSplineSet
EndChar

StartChar: comma
Encoding: 44 44 17
Width: 471
GlyphClass: 2
Flags: W
LayerCount: 2
Fore
SplineSet
117 -197 m 1,0,1
 168 -164 168 -164 206 -110 c 128,-1,2
 244 -56 244 -56 250 -6 c 1,3,4
 242 -10 242 -10 221 -10 c 0,5,6
 180 -10 180 -10 151.5 20 c 128,-1,7
 123 50 123 50 123 94 c 0,8,9
 123 139 123 139 154.5 172 c 128,-1,10
 186 205 186 205 231 205 c 0,11,12
 286 205 286 205 323 162.5 c 128,-1,13
 360 120 360 120 360 49 c 0,14,15
 360 -42 360 -42 314 -124.5 c 128,-1,16
 268 -207 268 -207 195 -260 c 1,17,-1
 117 -197 l 1,0,1
EndSplineSet
EndChar

StartChar: hyphen
Encoding: 45 45 18
Width: 614
GlyphClass: 2
Flags: W
LayerCount: 2
Fore
SplineSet
61 428 m 1,0,-1
 61 563 l 1,1,-1
 553 563 l 1,2,-1
 553 428 l 1,3,-1
 61 428 l 1,0,-1
EndSplineSet
EndChar

StartChar: period
Encoding: 46 46 19
Width: 473
GlyphClass: 2
Flags: W
LayerCount: 2
Fore
SplineSet
123 92 m 128,-1,1
 123 138 123 138 156.5 171.5 c 128,-1,2
 190 205 190 205 236 205 c 128,-1,3
 282 205 282 205 315 171.5 c 128,-1,4
 348 138 348 138 348 92 c 128,-1,5
 348 46 348 46 315 13 c 128,-1,6
 282 -20 282 -20 236 -20 c 128,-1,7
 190 -20 190 -20 156.5 13 c 128,-1,0
 123 46 123 46 123 92 c 128,-1,1
EndSplineSet
EndChar

StartChar: slash
Encoding: 47 47 20
Width: 606
GlyphClass: 2
Flags: W
LayerCount: 2
Fore
SplineSet
0 -41 m 1,0,-1
 485 1407 l 1,1,-1
 606 1407 l 1,2,-1
 121 -41 l 1,3,-1
 0 -41 l 1,0,-1
EndSplineSet
EndChar

StartChar: zero
Encoding: 48 48 21
Width: 1253
GlyphClass: 2
Flags: W
LayerCount: 2
Fore
SplineSet
104 682 m 0,0,1
 104 786 104 786 122 884 c 128,-1,2
 140 982 140 982 180.5 1074 c 128,-1,3
 221 1166 221 1166 280.5 1234.5 c 128,-1,4
 340 1303 340 1303 429 1344.5 c 128,-1,5
 518 1386 518 1386 627 1386 c 0,6,7
 735 1386 735 1386 824 1344.5 c 128,-1,8
 913 1303 913 1303 972.5 1234.5 c 128,-1,9
 1032 1166 1032 1166 1072.5 1074 c 128,-1,10
 1113 982 1113 982 1131 883.5 c 128,-1,11
 1149 785 1149 785 1149 682 c 128,-1,12
 1149 579 1149 579 1131 480.5 c 128,-1,13
 1113 382 1113 382 1072.5 289.5 c 128,-1,14
 1032 197 1032 197 972.5 128 c 128,-1,15
 913 59 913 59 824 17 c 128,-1,16
 735 -25 735 -25 627 -25 c 0,17,18
 518 -25 518 -25 429 17 c 128,-1,19
 340 59 340 59 280.5 128 c 128,-1,20
 221 197 221 197 180.5 290 c 128,-1,21
 140 383 140 383 122 481 c 128,-1,22
 104 579 104 579 104 682 c 0,0,1
279 682 m 0,23,24
 279 574 279 574 297.5 479.5 c 128,-1,25
 316 385 316 385 355 303.5 c 128,-1,26
 394 222 394 222 464 174.5 c 128,-1,27
 534 127 534 127 627 127 c 128,-1,28
 720 127 720 127 790 174.5 c 128,-1,29
 860 222 860 222 899 303.5 c 128,-1,30
 938 385 938 385 956.5 479.5 c 128,-1,31
 975 574 975 574 975 682 c 0,32,33
 975 767 975 767 964 844 c 128,-1,34
 953 921 953 921 927 993.5 c 128,-1,35
 901 1066 901 1066 862 1119 c 128,-1,36
 823 1172 823 1172 762.5 1203.5 c 128,-1,37
 702 1235 702 1235 627 1235 c 128,-1,38
 552 1235 552 1235 491.5 1203.5 c 128,-1,39
 431 1172 431 1172 392 1119 c 128,-1,40
 353 1066 353 1066 327 993.5 c 128,-1,41
 301 921 301 921 290 844 c 128,-1,42
 279 767 279 767 279 682 c 0,23,24
EndSplineSet
EndChar

StartChar: one
Encoding: 49 49 22
Width: 694
GlyphClass: 2
Flags: W
LayerCount: 2
Fore
SplineSet
43 1014 m 1,0,-1
 385 1366 l 1,1,-1
 535 1366 l 1,2,-1
 535 0 l 1,3,-1
 365 0 l 1,4,-1
 365 1143 l 1,5,-1
 145 909 l 1,6,-1
 43 1014 l 1,0,-1
EndSplineSet
EndChar

StartChar: two
Encoding: 50 50 23
Width: 1204
GlyphClass: 2
Flags: W
LayerCount: 2
Fore
SplineSet
109 1171 m 1,0,1
 186 1274 186 1274 311.5 1330 c 128,-1,2
 437 1386 437 1386 584 1386 c 0,3,4
 671 1386 671 1386 751.5 1361 c 128,-1,5
 832 1336 832 1336 897.5 1288 c 128,-1,6
 963 1240 963 1240 1002.5 1161.5 c 128,-1,7
 1042 1083 1042 1083 1042 985 c 0,8,9
 1042 903 1042 903 1008 818.5 c 128,-1,10
 974 734 974 734 920 659 c 128,-1,11
 866 584 866 584 775 493.5 c 128,-1,12
 684 403 684 403 596 328.5 c 128,-1,13
 508 254 508 254 379 152 c 1,14,-1
 1049 152 l 1,15,-1
 1049 0 l 1,16,-1
 111 0 l 1,17,-1
 111 137 l 1,18,19
 251 246 251 246 340 318.5 c 128,-1,20
 429 391 429 391 525 474.5 c 128,-1,21
 621 558 621 558 677 618.5 c 128,-1,22
 733 679 733 679 781 744.5 c 128,-1,23
 829 810 829 810 849.5 868.5 c 128,-1,24
 870 927 870 927 870 985 c 0,25,26
 870 1108 870 1108 785.5 1171.5 c 128,-1,27
 701 1235 701 1235 584 1235 c 0,28,29
 465 1235 465 1235 370.5 1189 c 128,-1,30
 276 1143 276 1143 213 1063 c 1,31,-1
 109 1171 l 1,0,1
EndSplineSet
EndChar

StartChar: three
Encoding: 51 51 24
Width: 1140
GlyphClass: 2
Flags: W
LayerCount: 2
Fore
SplineSet
59 201 m 1,0,-1
 160 307 l 1,1,2
 222 225 222 225 322.5 176 c 128,-1,3
 423 127 423 127 541 127 c 0,4,5
 689 127 689 127 774.5 196 c 128,-1,6
 860 265 860 265 860 383 c 0,7,8
 860 506 860 506 769 565.5 c 128,-1,9
 678 625 678 625 520 625 c 0,10,11
 399 625 399 625 379 623 c 1,12,-1
 379 778 l 1,13,14
 402 776 402 776 520 776 c 0,15,16
 659 776 659 776 748.5 832.5 c 128,-1,17
 838 889 838 889 838 1001 c 0,18,19
 838 1111 838 1111 750.5 1173 c 128,-1,20
 663 1235 663 1235 532 1235 c 0,21,22
 422 1235 422 1235 335.5 1194 c 128,-1,23
 249 1153 249 1153 172 1069 c 1,24,-1
 78 1176 l 1,25,26
 156 1272 156 1272 275 1329 c 128,-1,27
 394 1386 394 1386 547 1386 c 0,28,29
 749 1386 749 1386 878.5 1289 c 128,-1,30
 1008 1192 1008 1192 1008 1024 c 0,31,32
 1008 953 1008 953 980.5 894 c 128,-1,33
 953 835 953 835 908.5 797.5 c 128,-1,34
 864 760 864 760 815 737.5 c 128,-1,35
 766 715 766 715 715 707 c 1,36,37
 764 702 764 702 816.5 679.5 c 128,-1,38
 869 657 869 657 918 617.5 c 128,-1,39
 967 578 967 578 998.5 512.5 c 128,-1,40
 1030 447 1030 447 1030 369 c 0,41,42
 1030 196 1030 196 898.5 85.5 c 128,-1,43
 767 -25 767 -25 545 -25 c 0,44,45
 380 -25 380 -25 253.5 38.5 c 128,-1,46
 127 102 127 102 59 201 c 1,0,-1
EndSplineSet
EndChar

StartChar: four
Encoding: 52 52 25
Width: 1142
GlyphClass: 2
Flags: W
LayerCount: 2
Fore
SplineSet
66 346 m 1,0,-1
 66 487 l 1,1,-1
 651 1366 l 1,2,-1
 885 1366 l 1,3,-1
 885 496 l 1,4,-1
 1077 496 l 1,5,-1
 1077 346 l 1,6,-1
 885 346 l 1,7,-1
 885 0 l 1,8,-1
 715 0 l 1,9,-1
 715 346 l 1,10,-1
 66 346 l 1,0,-1
236 496 m 1,11,-1
 715 496 l 1,12,-1
 715 1208 l 1,13,-1
 236 496 l 1,11,-1
EndSplineSet
EndChar

StartChar: five
Encoding: 53 53 26
Width: 1208
GlyphClass: 2
Flags: W
LayerCount: 2
Fore
SplineSet
135 195 m 1,0,-1
 240 309 l 1,1,2
 380 127 380 127 616 127 c 0,3,4
 754 127 754 127 843 210.5 c 128,-1,5
 932 294 932 294 932 420 c 0,6,7
 932 554 932 554 844.5 634.5 c 128,-1,8
 757 715 757 715 618 715 c 0,9,10
 436 715 436 715 303 588 c 1,11,-1
 178 631 l 1,12,-1
 178 1366 l 1,13,-1
 1014 1366 l 1,14,-1
 1014 1214 l 1,15,-1
 348 1214 l 1,16,-1
 348 739 l 1,17,18
 403 793 403 793 487 827.5 c 128,-1,19
 571 862 571 862 668 862 c 0,20,21
 755 862 755 862 833 833 c 128,-1,22
 911 804 911 804 971.5 750.5 c 128,-1,23
 1032 697 1032 697 1068 613 c 128,-1,24
 1104 529 1104 529 1104 426 c 0,25,26
 1104 223 1104 223 965 99 c 128,-1,27
 826 -25 826 -25 616 -25 c 0,28,29
 301 -25 301 -25 135 195 c 1,0,-1
EndSplineSet
EndChar

StartChar: six
Encoding: 54 54 27
Width: 1210
GlyphClass: 2
Flags: W
LayerCount: 2
Fore
SplineSet
104 682 m 0,0,1
 104 795 104 795 124.5 897 c 128,-1,2
 145 999 145 999 189.5 1089 c 128,-1,3
 234 1179 234 1179 298.5 1244.5 c 128,-1,4
 363 1310 363 1310 456.5 1348 c 128,-1,5
 550 1386 550 1386 662 1386 c 0,6,7
 898 1386 898 1386 1038 1223 c 1,8,-1
 952 1096 l 1,9,10
 894 1164 894 1164 827.5 1199.5 c 128,-1,11
 761 1235 761 1235 662 1235 c 0,12,13
 585 1235 585 1235 520 1205 c 128,-1,14
 455 1175 455 1175 410.5 1123.5 c 128,-1,15
 366 1072 366 1072 335.5 1003 c 128,-1,16
 305 934 305 934 290.5 857 c 128,-1,17
 276 780 276 780 276 698 c 2,18,-1
 276 645 l 1,19,20
 327 726 327 726 434.5 792 c 128,-1,21
 542 858 542 858 664 858 c 0,22,23
 757 858 757 858 837.5 830.5 c 128,-1,24
 918 803 918 803 979 750 c 128,-1,25
 1040 697 1040 697 1075 612.5 c 128,-1,26
 1110 528 1110 528 1110 422 c 0,27,28
 1110 333 1110 333 1076.5 252.5 c 128,-1,29
 1043 172 1043 172 983 110 c 128,-1,30
 923 48 923 48 832 11.5 c 128,-1,31
 741 -25 741 -25 633 -25 c 0,32,33
 521 -25 521 -25 431 13 c 128,-1,34
 341 51 341 51 281 116 c 128,-1,35
 221 181 221 181 180.5 272 c 128,-1,36
 140 363 140 363 122 465 c 128,-1,37
 104 567 104 567 104 682 c 0,0,1
283 508 m 1,38,39
 287 454 287 454 300.5 403 c 128,-1,40
 314 352 314 352 341 301 c 128,-1,41
 368 250 368 250 405.5 212 c 128,-1,42
 443 174 443 174 499.5 150.5 c 128,-1,43
 556 127 556 127 625 127 c 0,44,45
 701 127 701 127 762.5 153.5 c 128,-1,46
 824 180 824 180 861 223 c 128,-1,47
 898 266 898 266 918 316 c 128,-1,48
 938 366 938 366 938 416 c 0,49,50
 938 560 938 560 850.5 635.5 c 128,-1,51
 763 711 763 711 625 711 c 0,52,53
 524 711 524 711 432 655 c 128,-1,54
 340 599 340 599 283 508 c 1,38,39
EndSplineSet
EndChar

StartChar: seven
Encoding: 55 55 28
Width: 1054
GlyphClass: 2
Flags: W
LayerCount: 2
Fore
SplineSet
63 1214 m 1,0,-1
 63 1366 l 1,1,-1
 995 1366 l 1,2,-1
 995 1249 l 1,3,-1
 436 0 l 1,4,-1
 248 0 l 1,5,-1
 799 1214 l 1,6,-1
 63 1214 l 1,0,-1
EndSplineSet
EndChar

StartChar: eight
Encoding: 56 56 29
Width: 1191
GlyphClass: 2
Flags: W
LayerCount: 2
Fore
SplineSet
106 346 m 0,0,1
 106 475 106 475 200 569 c 128,-1,2
 294 663 294 663 432 705 c 1,3,4
 348 729 348 729 282.5 769.5 c 128,-1,5
 217 810 217 810 173 878.5 c 128,-1,6
 129 947 129 947 129 1032 c 0,7,8
 129 1121 129 1121 169.5 1190.5 c 128,-1,9
 210 1260 210 1260 278 1301.5 c 128,-1,10
 346 1343 346 1343 427 1364.5 c 128,-1,11
 508 1386 508 1386 596 1386 c 0,12,13
 683 1386 683 1386 764.5 1364.5 c 128,-1,14
 846 1343 846 1343 914.5 1301.5 c 128,-1,15
 983 1260 983 1260 1024 1190.5 c 128,-1,16
 1065 1121 1065 1121 1065 1032 c 0,17,18
 1065 908 1065 908 978.5 825.5 c 128,-1,19
 892 743 892 743 760 705 c 1,20,21
 898 664 898 664 991.5 569.5 c 128,-1,22
 1085 475 1085 475 1085 346 c 0,23,24
 1085 178 1085 178 944.5 76.5 c 128,-1,25
 804 -25 804 -25 596 -25 c 0,26,27
 460 -25 460 -25 349.5 18.5 c 128,-1,28
 239 62 239 62 172.5 147.5 c 128,-1,29
 106 233 106 233 106 346 c 0,0,1
279 365 m 0,30,31
 279 258 279 258 371.5 192.5 c 128,-1,32
 464 127 464 127 596 127 c 0,33,34
 727 127 727 127 820 192.5 c 128,-1,35
 913 258 913 258 913 365 c 0,36,37
 913 416 913 416 888 460 c 128,-1,38
 863 504 863 504 826 532.5 c 128,-1,39
 789 561 789 561 743.5 583 c 128,-1,40
 698 605 698 605 661.5 615.5 c 128,-1,41
 625 626 625 626 596 629 c 1,42,43
 567 626 567 626 530.5 615.5 c 128,-1,44
 494 605 494 605 448.5 583 c 128,-1,45
 403 561 403 561 366 532.5 c 128,-1,46
 329 504 329 504 304 460 c 128,-1,47
 279 416 279 416 279 365 c 0,30,31
301 1010 m 0,48,49
 301 963 301 963 324.5 923.5 c 128,-1,50
 348 884 348 884 380.5 859.5 c 128,-1,51
 413 835 413 835 457 815.5 c 128,-1,52
 501 796 501 796 533 787.5 c 128,-1,53
 565 779 565 779 596 774 c 1,54,55
 627 779 627 779 659.5 787.5 c 128,-1,56
 692 796 692 796 736 815.5 c 128,-1,57
 780 835 780 835 813 859.5 c 128,-1,58
 846 884 846 884 869.5 923.5 c 128,-1,59
 893 963 893 963 893 1010 c 0,60,61
 893 1113 893 1113 808 1174 c 128,-1,62
 723 1235 723 1235 596 1235 c 0,63,64
 468 1235 468 1235 384.5 1174 c 128,-1,65
 301 1113 301 1113 301 1010 c 0,48,49
EndSplineSet
EndChar

StartChar: nine
Encoding: 57 57 30
Width: 1210
GlyphClass: 2
Flags: W
LayerCount: 2
Fore
SplineSet
100 942 m 0,0,1
 100 1031 100 1031 133.5 1111.5 c 128,-1,2
 167 1192 167 1192 227.5 1254 c 128,-1,3
 288 1316 288 1316 379.5 1352.5 c 128,-1,4
 471 1389 471 1389 580 1389 c 0,5,6
 691 1389 691 1389 781 1351 c 128,-1,7
 871 1313 871 1313 931 1248 c 128,-1,8
 991 1183 991 1183 1031.5 1092 c 128,-1,9
 1072 1001 1072 1001 1090 899 c 128,-1,10
 1108 797 1108 797 1108 682 c 0,11,12
 1108 569 1108 569 1087 466.5 c 128,-1,13
 1066 364 1066 364 1021.5 274.5 c 128,-1,14
 977 185 977 185 912.5 119 c 128,-1,15
 848 53 848 53 755.5 15 c 128,-1,16
 663 -23 663 -23 551 -23 c 0,17,18
 319 -23 319 -23 172 141 c 1,19,-1
 258 268 l 1,20,21
 316 200 316 200 384 164.5 c 128,-1,22
 452 129 452 129 551 129 c 128,-1,23
 650 129 650 129 726.5 175.5 c 128,-1,24
 803 222 803 222 847.5 300.5 c 128,-1,25
 892 379 892 379 914 471.5 c 128,-1,26
 936 564 936 564 936 666 c 0,27,28
 936 701 936 701 934 719 c 1,29,30
 883 638 883 638 776 572 c 128,-1,31
 669 506 669 506 549 506 c 0,32,33
 423 506 423 506 323.5 553 c 128,-1,34
 224 600 224 600 162 700.5 c 128,-1,35
 100 801 100 801 100 942 c 0,0,1
272 948 m 0,36,37
 272 804 272 804 360.5 728.5 c 128,-1,38
 449 653 449 653 588 653 c 0,39,40
 688 653 688 653 781 709.5 c 128,-1,41
 874 766 874 766 930 858 c 1,42,43
 925 912 925 912 911.5 962.5 c 128,-1,44
 898 1013 898 1013 870.5 1064 c 128,-1,45
 843 1115 843 1115 805.5 1152.5 c 128,-1,46
 768 1190 768 1190 711.5 1213.5 c 128,-1,47
 655 1237 655 1237 586 1237 c 0,48,49
 511 1237 511 1237 449.5 1210.5 c 128,-1,50
 388 1184 388 1184 350 1141.5 c 128,-1,51
 312 1099 312 1099 292 1049 c 128,-1,52
 272 999 272 999 272 948 c 0,36,37
EndSplineSet
EndChar

StartChar: colon
Encoding: 58 58 31
Width: 460
GlyphClass: 2
Flags: W
LayerCount: 2
Fore
SplineSet
123 92 m 128,-1,1
 123 138 123 138 156.5 171.5 c 128,-1,2
 190 205 190 205 236 205 c 128,-1,3
 282 205 282 205 315 171.5 c 128,-1,4
 348 138 348 138 348 92 c 128,-1,5
 348 46 348 46 315 13 c 128,-1,6
 282 -20 282 -20 236 -20 c 128,-1,7
 190 -20 190 -20 156.5 13 c 128,-1,0
 123 46 123 46 123 92 c 128,-1,1
123 891 m 0,8,9
 123 937 123 937 156.5 970.5 c 128,-1,10
 190 1004 190 1004 236 1004 c 128,-1,11
 282 1004 282 1004 315 970.5 c 128,-1,12
 348 937 348 937 348 891 c 0,13,14
 348 846 348 846 314.5 812 c 128,-1,15
 281 778 281 778 236 778 c 128,-1,16
 191 778 191 778 157 812 c 128,-1,17
 123 846 123 846 123 891 c 0,8,9
EndSplineSet
EndChar

StartChar: semicolon
Encoding: 59 59 32
Width: 471
GlyphClass: 2
Flags: W
LayerCount: 2
Fore
SplineSet
117 -195 m 1,0,1
 167 -162 167 -162 205.5 -107 c 128,-1,2
 244 -52 244 -52 250 -2 c 1,3,4
 242 -6 242 -6 221 -6 c 0,5,6
 179 -6 179 -6 151 23.5 c 128,-1,7
 123 53 123 53 123 98 c 128,-1,8
 123 143 123 143 154.5 176 c 128,-1,9
 186 209 186 209 231 209 c 0,10,11
 286 209 286 209 323 166.5 c 128,-1,12
 360 124 360 124 360 53 c 0,13,14
 360 -39 360 -39 314.5 -121 c 128,-1,15
 269 -203 269 -203 195 -256 c 1,16,-1
 117 -195 l 1,0,1
123 891 m 0,17,18
 123 937 123 937 156.5 970.5 c 128,-1,19
 190 1004 190 1004 236 1004 c 128,-1,20
 282 1004 282 1004 315 970.5 c 128,-1,21
 348 937 348 937 348 891 c 0,22,23
 348 846 348 846 314.5 812 c 128,-1,24
 281 778 281 778 236 778 c 128,-1,25
 191 778 191 778 157 812 c 128,-1,26
 123 846 123 846 123 891 c 0,17,18
EndSplineSet
EndChar

StartChar: less
Encoding: 60 60 33
Width: 1021
GlyphClass: 2
Flags: W
LayerCount: 2
Fore
SplineSet
59 631 m 1,0,-1
 59 739 l 1,1,-1
 963 1188 l 1,2,-1
 963 1059 l 1,3,-1
 190 684 l 1,4,-1
 963 313 l 1,5,-1
 963 184 l 1,6,-1
 59 631 l 1,0,-1
EndSplineSet
EndChar

StartChar: equal
Encoding: 61 61 34
Width: 1021
GlyphClass: 2
Flags: W
LayerCount: 2
Fore
SplineSet
59 432 m 1,0,-1
 59 541 l 1,1,-1
 963 541 l 1,2,-1
 963 432 l 1,3,-1
 59 432 l 1,0,-1
59 827 m 1,4,-1
 59 936 l 1,5,-1
 963 936 l 1,6,-1
 963 827 l 1,7,-1
 59 827 l 1,4,-1
EndSplineSet
EndChar

StartChar: greater
Encoding: 62 62 35
Width: 1021
GlyphClass: 2
Flags: W
LayerCount: 2
Fore
SplineSet
59 184 m 1,0,-1
 59 313 l 1,1,-1
 831 684 l 1,2,-1
 59 1059 l 1,3,-1
 59 1188 l 1,4,-1
 963 739 l 1,5,-1
 963 631 l 1,6,-1
 59 184 l 1,0,-1
EndSplineSet
EndChar

StartChar: question
Encoding: 63 63 36
Width: 946
GlyphClass: 2
Flags: W
LayerCount: 2
Fore
SplineSet
37 1178 m 1,0,1
 112 1277 112 1277 225 1331.5 c 128,-1,2
 338 1386 338 1386 481 1386 c 0,3,4
 664 1386 664 1386 773.5 1295.5 c 128,-1,5
 883 1205 883 1205 883 1069 c 0,6,7
 883 1006 883 1006 861 953 c 128,-1,8
 839 900 839 900 804 862.5 c 128,-1,9
 769 825 769 825 727 792 c 128,-1,10
 685 759 685 759 643 730 c 128,-1,11
 601 701 601 701 566 672.5 c 128,-1,12
 531 644 531 644 509 608 c 128,-1,13
 487 572 487 572 487 532 c 0,14,15
 487 473 487 473 541 434 c 1,16,-1
 416 379 l 1,17,18
 338 446 338 446 338 547 c 0,19,20
 338 600 338 600 358.5 644.5 c 128,-1,21
 379 689 379 689 411.5 721.5 c 128,-1,22
 444 754 444 754 483 783 c 128,-1,23
 522 812 522 812 561.5 839.5 c 128,-1,24
 601 867 601 867 633.5 895.5 c 128,-1,25
 666 924 666 924 686.5 962 c 128,-1,26
 707 1000 707 1000 707 1044 c 0,27,28
 707 1125 707 1125 644.5 1180 c 128,-1,29
 582 1235 582 1235 467 1235 c 0,30,31
 356 1235 356 1235 278 1192 c 128,-1,32
 200 1149 200 1149 139 1067 c 1,33,-1
 37 1178 l 1,0,1
346 92 m 128,-1,35
 346 138 346 138 379.5 171.5 c 128,-1,36
 413 205 413 205 459 205 c 128,-1,37
 505 205 505 205 538 171.5 c 128,-1,38
 571 138 571 138 571 92 c 128,-1,39
 571 46 571 46 538 13 c 128,-1,40
 505 -20 505 -20 459 -20 c 128,-1,41
 413 -20 413 -20 379.5 13 c 128,-1,34
 346 46 346 46 346 92 c 128,-1,35
EndSplineSet
EndChar

StartChar: at
Encoding: 64 64 37
Width: 1603
GlyphClass: 2
Flags: W
LayerCount: 2
Fore
SplineSet
72 500 m 0,0,1
 72 662 72 662 139.5 812 c 128,-1,2
 207 962 207 962 318.5 1070 c 128,-1,3
 430 1178 430 1178 579 1242.5 c 128,-1,4
 728 1307 728 1307 885 1307 c 0,5,6
 1074 1307 1074 1307 1222.5 1219 c 128,-1,7
 1371 1131 1371 1131 1450.5 983.5 c 128,-1,8
 1530 836 1530 836 1530 657 c 0,9,10
 1530 542 1530 542 1499 448 c 128,-1,11
 1468 354 1468 354 1417 295.5 c 128,-1,12
 1366 237 1366 237 1304 205.5 c 128,-1,13
 1242 174 1242 174 1176 174 c 0,14,15
 1094 174 1094 174 1044 222.5 c 128,-1,16
 994 271 994 271 989 340 c 1,17,-1
 989 354 l 1,18,19
 933 274 933 274 846 224 c 128,-1,20
 759 174 759 174 664 174 c 0,21,22
 522 174 522 174 436 266 c 128,-1,23
 350 358 350 358 350 508 c 0,24,25
 350 612 350 612 391.5 708 c 128,-1,26
 433 804 433 804 500 872.5 c 128,-1,27
 567 941 567 941 654 981.5 c 128,-1,28
 741 1022 741 1022 831 1022 c 0,29,30
 926 1022 926 1022 994.5 977 c 128,-1,31
 1063 932 1063 932 1094 862 c 1,32,-1
 1120 989 l 1,33,-1
 1260 989 l 1,34,-1
 1143 434 l 2,35,36
 1139 410 1139 410 1139 391 c 0,37,38
 1139 342 1139 342 1166.5 313.5 c 128,-1,39
 1194 285 1194 285 1235 285 c 0,40,41
 1261 285 1261 285 1289 296 c 128,-1,42
 1317 307 1317 307 1348 335 c 128,-1,43
 1379 363 1379 363 1403 403.5 c 128,-1,44
 1427 444 1427 444 1442.5 510 c 128,-1,45
 1458 576 1458 576 1458 657 c 0,46,47
 1458 911 1458 911 1298 1074 c 128,-1,48
 1138 1237 1138 1237 879 1237 c 0,49,50
 734 1237 734 1237 597.5 1176 c 128,-1,51
 461 1115 461 1115 361.5 1014.5 c 128,-1,52
 262 914 262 914 202.5 779.5 c 128,-1,53
 143 645 143 645 143 504 c 0,54,55
 143 342 143 342 218 209 c 128,-1,56
 293 76 293 76 427.5 0 c 128,-1,57
 562 -76 562 -76 729 -76 c 0,58,59
 928 -76 928 -76 1110 39 c 1,60,-1
 1147 -14 l 1,61,62
 947 -143 947 -143 721 -143 c 0,63,64
 538 -143 538 -143 389 -58 c 128,-1,65
 240 27 240 27 156 174 c 128,-1,66
 72 321 72 321 72 500 c 0,0,1
498 516 m 0,67,68
 498 415 498 415 553.5 352 c 128,-1,69
 609 289 609 289 707 289 c 0,70,71
 802 289 802 289 879.5 342.5 c 128,-1,72
 957 396 957 396 1010 473 c 1,73,-1
 1069 758 l 1,74,75
 1048 816 1048 816 994 861.5 c 128,-1,76
 940 907 940 907 858 907 c 0,77,78
 708 907 708 907 603 788 c 128,-1,79
 498 669 498 669 498 516 c 0,67,68
EndSplineSet
EndChar

StartChar: A
Encoding: 65 65 38
Width: 1177
GlyphClass: 2
Flags: W
LayerCount: 2
Fore
SplineSet
96 494 m 0,0,1
 96 729 96 729 219 871.5 c 128,-1,2
 342 1014 342 1014 537 1014 c 0,3,4
 636 1014 636 1014 722.5 968 c 128,-1,5
 809 922 809 922 870 840 c 1,6,-1
 870 989 l 1,7,-1
 1024 989 l 1,8,-1
 1024 0 l 1,9,-1
 870 0 l 1,10,-1
 870 147 l 1,11,12
 812 69 812 69 725 22 c 128,-1,13
 638 -25 638 -25 537 -25 c 0,14,15
 341 -25 341 -25 218.5 115.5 c 128,-1,16
 96 256 96 256 96 494 c 0,0,1
256 494 m 128,-1,18
 256 326 256 326 341.5 219.5 c 128,-1,19
 427 113 427 113 575 113 c 0,20,21
 664 113 664 113 746.5 158.5 c 128,-1,22
 829 204 829 204 870 270 c 1,23,-1
 870 717 l 1,24,25
 829 784 829 784 746 830.5 c 128,-1,26
 663 877 663 877 575 877 c 0,27,28
 428 877 428 877 342 769.5 c 128,-1,17
 256 662 256 662 256 494 c 128,-1,18
EndSplineSet
EndChar

StartChar: B
Encoding: 66 66 39
Width: 1288
GlyphClass: 2
Flags: W
LayerCount: 2
Fore
SplineSet
160 0 m 1,0,-1
 160 1366 l 1,1,-1
 768 1366 l 2,2,3
 944 1366 944 1366 1047.5 1270 c 128,-1,4
 1151 1174 1151 1174 1151 1018 c 0,5,6
 1151 895 1151 895 1081 811 c 128,-1,7
 1011 727 1011 727 911 705 c 1,8,9
 1020 688 1020 688 1099 589.5 c 128,-1,10
 1178 491 1178 491 1178 369 c 0,11,12
 1178 202 1178 202 1072.5 101 c 128,-1,13
 967 0 967 0 782 0 c 2,14,-1
 160 0 l 1,0,-1
330 152 m 1,15,-1
 750 152 l 2,16,17
 868 152 868 152 934.5 215 c 128,-1,18
 1001 278 1001 278 1001 387 c 0,19,20
 1001 487 1001 487 935 555 c 128,-1,21
 869 623 869 623 750 623 c 2,22,-1
 330 623 l 1,23,-1
 330 152 l 1,15,-1
330 774 m 1,24,-1
 739 774 l 2,25,26
 851 774 851 774 913 835 c 128,-1,27
 975 896 975 896 975 993 c 0,28,29
 975 1089 975 1089 913 1151.5 c 128,-1,30
 851 1214 851 1214 739 1214 c 2,31,-1
 330 1214 l 1,32,-1
 330 774 l 1,24,-1
EndSplineSet
EndChar

StartChar: C
Encoding: 67 67 40
Width: 1384
GlyphClass: 2
Flags: W
LayerCount: 2
Fore
SplineSet
104 682 m 128,-1,1
 104 836 104 836 159 969 c 128,-1,2
 214 1102 214 1102 308 1193.5 c 128,-1,3
 402 1285 402 1285 531.5 1337 c 128,-1,4
 661 1389 661 1389 807 1389 c 0,5,6
 1136 1389 1136 1389 1325 1118 c 1,7,-1
 1184 1038 l 1,8,9
 1124 1128 1124 1128 1023 1182.5 c 128,-1,10
 922 1237 922 1237 807 1237 c 0,11,12
 581 1237 581 1237 431 1081.5 c 128,-1,13
 281 926 281 926 281 682 c 0,14,15
 281 523 281 523 350 395.5 c 128,-1,16
 419 268 419 268 539 197.5 c 128,-1,17
 659 127 659 127 807 127 c 0,18,19
 921 127 921 127 1022.5 182 c 128,-1,20
 1124 237 1124 237 1184 326 c 1,21,-1
 1327 248 l 1,22,23
 1128 -25 1128 -25 807 -25 c 0,24,25
 661 -25 661 -25 531.5 27 c 128,-1,26
 402 79 402 79 308 170.5 c 128,-1,27
 214 262 214 262 159 395 c 128,-1,0
 104 528 104 528 104 682 c 128,-1,1
EndSplineSet
EndChar

StartChar: D
Encoding: 68 68 41
Width: 1433
GlyphClass: 2
Flags: W
LayerCount: 2
Fore
SplineSet
160 0 m 1,0,-1
 160 1366 l 1,1,-1
 627 1366 l 2,2,3
 835 1366 835 1366 996 1275.5 c 128,-1,4
 1157 1185 1157 1185 1242 1030 c 128,-1,5
 1327 875 1327 875 1327 682 c 0,6,7
 1327 537 1327 537 1277 411.5 c 128,-1,8
 1227 286 1227 286 1137 195 c 128,-1,9
 1047 104 1047 104 915.5 52 c 128,-1,10
 784 0 784 0 627 0 c 2,11,-1
 160 0 l 1,0,-1
330 152 m 1,12,-1
 627 152 l 2,13,14
 788 152 788 152 909 224 c 128,-1,15
 1030 296 1030 296 1090.5 415 c 128,-1,16
 1151 534 1151 534 1151 682 c 0,17,18
 1151 832 1151 832 1091.5 951 c 128,-1,19
 1032 1070 1032 1070 911.5 1142 c 128,-1,20
 791 1214 791 1214 627 1214 c 2,21,-1
 330 1214 l 1,22,-1
 330 152 l 1,12,-1
EndSplineSet
EndChar

StartChar: E
Encoding: 69 69 42
Width: 1165
GlyphClass: 2
Flags: W
LayerCount: 2
Fore
SplineSet
160 0 m 1,0,-1
 160 1366 l 1,1,-1
 1055 1366 l 1,2,-1
 1055 1214 l 1,3,-1
 330 1214 l 1,4,-1
 330 774 l 1,5,-1
 1040 774 l 1,6,-1
 1040 623 l 1,7,-1
 330 623 l 1,8,-1
 330 152 l 1,9,-1
 1055 152 l 1,10,-1
 1055 0 l 1,11,-1
 160 0 l 1,0,-1
EndSplineSet
EndChar

StartChar: F
Encoding: 70 70 43
Width: 1128
GlyphClass: 2
Flags: W
LayerCount: 2
Fore
SplineSet
160 0 m 1,0,-1
 160 1366 l 1,1,-1
 1055 1366 l 1,2,-1
 1055 1214 l 1,3,-1
 330 1214 l 1,4,-1
 330 774 l 1,5,-1
 1040 774 l 1,6,-1
 1040 623 l 1,7,-1
 330 623 l 1,8,-1
 330 0 l 1,9,-1
 160 0 l 1,0,-1
EndSplineSet
EndChar

StartChar: G
Encoding: 71 71 44
Width: 1460
GlyphClass: 2
Flags: W
LayerCount: 2
Fore
SplineSet
104 682 m 0,0,1
 104 838 104 838 159.5 971.5 c 128,-1,2
 215 1105 215 1105 309.5 1196 c 128,-1,3
 404 1287 404 1287 533 1338 c 128,-1,4
 662 1389 662 1389 807 1389 c 0,5,6
 1131 1389 1131 1389 1337 1135 c 1,7,-1
 1202 1049 l 1,8,9
 1136 1135 1136 1135 1031.5 1186 c 128,-1,10
 927 1237 927 1237 807 1237 c 0,11,12
 581 1237 581 1237 431 1081.5 c 128,-1,13
 281 926 281 926 281 682 c 0,14,15
 281 523 281 523 350 395.5 c 128,-1,16
 419 268 419 268 539 197.5 c 128,-1,17
 659 127 659 127 807 127 c 0,18,19
 909 127 909 127 992 161 c 128,-1,20
 1075 195 1075 195 1130 255 c 128,-1,21
 1185 315 1185 315 1219 389.5 c 128,-1,22
 1253 464 1253 464 1266 551 c 1,23,-1
 705 551 l 1,24,-1
 705 702 l 1,25,-1
 1450 702 l 1,26,27
 1450 487 1450 487 1375.5 323.5 c 128,-1,28
 1301 160 1301 160 1151.5 66.5 c 128,-1,29
 1002 -27 1002 -27 795 -27 c 0,30,31
 654 -27 654 -27 528 25 c 128,-1,32
 402 77 402 77 308 168 c 128,-1,33
 214 259 214 259 159 393 c 128,-1,34
 104 527 104 527 104 682 c 0,0,1
EndSplineSet
EndChar

StartChar: H
Encoding: 72 72 45
Width: 1458
GlyphClass: 2
Flags: W
LayerCount: 2
Fore
SplineSet
160 0 m 1,0,-1
 160 1366 l 1,1,-1
 330 1366 l 1,2,-1
 330 778 l 1,3,-1
 1128 778 l 1,4,-1
 1128 1366 l 1,5,-1
 1298 1366 l 1,6,-1
 1298 0 l 1,7,-1
 1128 0 l 1,8,-1
 1128 627 l 1,9,-1
 330 627 l 1,10,-1
 330 0 l 1,11,-1
 160 0 l 1,0,-1
EndSplineSet
EndChar

StartChar: I
Encoding: 73 73 46
Width: 489
GlyphClass: 2
Flags: W
LayerCount: 2
Fore
SplineSet
160 0 m 1,0,-1
 160 1366 l 1,1,-1
 330 1366 l 1,2,-1
 330 0 l 1,3,-1
 160 0 l 1,0,-1
EndSplineSet
EndChar

StartChar: J
Encoding: 74 74 47
Width: 972
GlyphClass: 2
Flags: W
LayerCount: 2
Fore
SplineSet
23 133 m 1,0,-1
 113 262 l 1,1,2
 220 127 220 127 369 127 c 0,3,4
 494 127 494 127 568.5 206 c 128,-1,5
 643 285 643 285 643 414 c 2,6,-1
 643 1366 l 1,7,-1
 813 1366 l 1,8,-1
 813 412 l 2,9,10
 813 269 813 269 754.5 168.5 c 128,-1,11
 696 68 696 68 600 21.5 c 128,-1,12
 504 -25 504 -25 379 -25 c 0,13,14
 157 -25 157 -25 23 133 c 1,0,-1
EndSplineSet
EndChar

StartChar: K
Encoding: 75 75 48
Width: 1230
GlyphClass: 2
Flags: W
LayerCount: 2
Fore
SplineSet
160 0 m 1,0,-1
 160 1366 l 1,1,-1
 330 1366 l 1,2,-1
 330 662 l 1,3,-1
 934 1366 l 1,4,-1
 1147 1366 l 1,5,-1
 578 719 l 1,6,-1
 1198 0 l 1,7,-1
 985 0 l 1,8,-1
 467 614 l 1,9,-1
 330 459 l 1,10,-1
 330 0 l 1,11,-1
 160 0 l 1,0,-1
EndSplineSet
EndChar

StartChar: L
Encoding: 76 76 49
Width: 1009
GlyphClass: 2
Flags: W
LayerCount: 2
Fore
SplineSet
137 0 m 1,0,-1
 137 1366 l 1,1,-1
 307 1366 l 1,2,-1
 307 152 l 1,3,-1
 942 152 l 1,4,-1
 942 0 l 1,5,-1
 137 0 l 1,0,-1
EndSplineSet
EndChar

StartChar: M
Encoding: 77 77 50
Width: 1656
GlyphClass: 2
Flags: W
LayerCount: 2
Fore
SplineSet
160 0 m 1,0,-1
 160 1366 l 1,1,-1
 403 1366 l 1,2,-1
 829 313 l 1,3,-1
 1253 1366 l 1,4,-1
 1497 1366 l 1,5,-1
 1497 0 l 1,6,-1
 1327 0 l 1,7,-1
 1327 1149 l 1,8,-1
 864 0 l 1,9,-1
 795 0 l 1,10,-1
 330 1149 l 1,11,-1
 330 0 l 1,12,-1
 160 0 l 1,0,-1
EndSplineSet
EndChar

StartChar: N
Encoding: 78 78 51
Width: 1449
GlyphClass: 2
Flags: W
LayerCount: 2
Fore
SplineSet
160 0 m 1,0,-1
 160 1366 l 1,1,-1
 334 1366 l 1,2,-1
 1120 299 l 1,3,-1
 1120 1366 l 1,4,-1
 1290 1366 l 1,5,-1
 1290 0 l 1,6,-1
 1126 0 l 1,7,-1
 330 1090 l 1,8,-1
 330 0 l 1,9,-1
 160 0 l 1,0,-1
EndSplineSet
EndChar

StartChar: O
Encoding: 79 79 52
Width: 1566
GlyphClass: 2
Flags: W
LayerCount: 2
Fore
SplineSet
104 682 m 128,-1,1
 104 882 104 882 188.5 1043 c 128,-1,2
 273 1204 273 1204 428.5 1296.5 c 128,-1,3
 584 1389 584 1389 782 1389 c 128,-1,4
 980 1389 980 1389 1136 1296.5 c 128,-1,5
 1292 1204 1292 1204 1377 1043 c 128,-1,6
 1462 882 1462 882 1462 682 c 128,-1,7
 1462 482 1462 482 1377 321 c 128,-1,8
 1292 160 1292 160 1136 67.5 c 128,-1,9
 980 -25 980 -25 782 -25 c 128,-1,10
 584 -25 584 -25 428.5 67.5 c 128,-1,11
 273 160 273 160 188.5 321 c 128,-1,0
 104 482 104 482 104 682 c 128,-1,1
281 682 m 0,12,13
 281 524 281 524 341.5 398 c 128,-1,14
 402 272 402 272 517 199.5 c 128,-1,15
 632 127 632 127 782 127 c 128,-1,16
 932 127 932 127 1047.5 199.5 c 128,-1,17
 1163 272 1163 272 1224.5 398 c 128,-1,18
 1286 524 1286 524 1286 682 c 0,19,20
 1286 924 1286 924 1147 1080.5 c 128,-1,21
 1008 1237 1008 1237 782 1237 c 0,22,23
 555 1237 555 1237 418 1081 c 128,-1,24
 281 925 281 925 281 682 c 0,12,13
EndSplineSet
EndChar

StartChar: P
Encoding: 80 80 53
Width: 1202
GlyphClass: 2
Flags: W
LayerCount: 2
Fore
SplineSet
160 0 m 1,0,-1
 160 1366 l 1,1,-1
 709 1366 l 2,2,3
 907 1366 907 1366 1022 1247.5 c 128,-1,4
 1137 1129 1137 1129 1137 954 c 0,5,6
 1137 780 1137 780 1021.5 661.5 c 128,-1,7
 906 543 906 543 709 543 c 2,8,-1
 330 543 l 1,9,-1
 330 0 l 1,10,-1
 160 0 l 1,0,-1
330 694 m 1,11,-1
 688 694 l 2,12,13
 809 694 809 694 885 766 c 128,-1,14
 961 838 961 838 961 954 c 128,-1,15
 961 1070 961 1070 885 1142 c 128,-1,16
 809 1214 809 1214 688 1214 c 2,17,-1
 330 1214 l 1,18,-1
 330 694 l 1,11,-1
EndSplineSet
EndChar

StartChar: Q
Encoding: 81 81 54
Width: 1566
GlyphClass: 2
Flags: W
LayerCount: 2
Fore
SplineSet
104 682 m 128,-1,1
 104 882 104 882 188.5 1043 c 128,-1,2
 273 1204 273 1204 428.5 1296.5 c 128,-1,3
 584 1389 584 1389 782 1389 c 128,-1,4
 980 1389 980 1389 1136 1296.5 c 128,-1,5
 1292 1204 1292 1204 1377 1043 c 128,-1,6
 1462 882 1462 882 1462 682 c 0,7,8
 1462 377 1462 377 1274 176 c 1,9,-1
 1403 39 l 1,10,-1
 1286 -63 l 1,11,-1
 1153 78 l 1,12,13
 994 -25 994 -25 782 -25 c 0,14,15
 584 -25 584 -25 428.5 67.5 c 128,-1,16
 273 160 273 160 188.5 321 c 128,-1,0
 104 482 104 482 104 682 c 128,-1,1
281 682 m 0,17,18
 281 524 281 524 341.5 398 c 128,-1,19
 402 272 402 272 517 199.5 c 128,-1,20
 632 127 632 127 782 127 c 0,21,22
 927 127 927 127 1042 197 c 1,23,-1
 848 408 l 1,24,-1
 967 508 l 1,25,-1
 1159 299 l 1,26,27
 1286 455 1286 455 1286 682 c 0,28,29
 1286 924 1286 924 1147 1080.5 c 128,-1,30
 1008 1237 1008 1237 782 1237 c 0,31,32
 555 1237 555 1237 418 1081 c 128,-1,33
 281 925 281 925 281 682 c 0,17,18
EndSplineSet
EndChar

StartChar: R
Encoding: 82 82 55
Width: 1247
GlyphClass: 2
Flags: W
LayerCount: 2
Fore
SplineSet
160 0 m 1,0,-1
 160 1366 l 1,1,-1
 709 1366 l 2,2,3
 899 1366 899 1366 1019 1253.5 c 128,-1,4
 1139 1141 1139 1141 1139 954 c 0,5,6
 1139 865 1139 865 1109.5 791 c 128,-1,7
 1080 717 1080 717 1030 668.5 c 128,-1,8
 980 620 980 620 916.5 591.5 c 128,-1,9
 853 563 853 563 782 557 c 1,10,-1
 1151 0 l 1,11,-1
 950 0 l 1,12,-1
 604 543 l 1,13,-1
 330 543 l 1,14,-1
 330 0 l 1,15,-1
 160 0 l 1,0,-1
330 692 m 1,16,-1
 688 692 l 2,17,18
 809 692 809 692 886 765 c 128,-1,19
 963 838 963 838 963 954 c 128,-1,20
 963 1070 963 1070 886.5 1142 c 128,-1,21
 810 1214 810 1214 688 1214 c 2,22,-1
 330 1214 l 1,23,-1
 330 692 l 1,16,-1
EndSplineSet
EndChar

StartChar: S
Encoding: 83 83 56
Width: 1200
GlyphClass: 2
Flags: W
LayerCount: 2
Fore
SplineSet
78 193 m 1,0,-1
 180 324 l 1,1,2
 254 238 254 238 363.5 182.5 c 128,-1,3
 473 127 473 127 608 127 c 0,4,5
 695 127 695 127 760.5 149 c 128,-1,6
 826 171 826 171 861.5 207 c 128,-1,7
 897 243 897 243 913.5 282.5 c 128,-1,8
 930 322 930 322 930 365 c 0,9,10
 930 421 930 421 902.5 463.5 c 128,-1,11
 875 506 875 506 828 532.5 c 128,-1,12
 781 559 781 559 720.5 579.5 c 128,-1,13
 660 600 660 600 593 618 c 128,-1,14
 526 636 526 636 458.5 655 c 128,-1,15
 391 674 391 674 330.5 703 c 128,-1,16
 270 732 270 732 223 770.5 c 128,-1,17
 176 809 176 809 148.5 869.5 c 128,-1,18
 121 930 121 930 121 1008 c 0,19,20
 121 1176 121 1176 254.5 1282.5 c 128,-1,21
 388 1389 388 1389 592 1389 c 0,22,23
 892 1389 892 1389 1075 1196 c 1,24,-1
 973 1071 l 1,25,26
 828 1235 828 1235 578 1235 c 0,27,28
 456 1235 456 1235 376.5 1174.5 c 128,-1,29
 297 1114 297 1114 297 1018 c 0,30,31
 297 969 297 969 324.5 932 c 128,-1,32
 352 895 352 895 399 871.5 c 128,-1,33
 446 848 446 848 506.5 829 c 128,-1,34
 567 810 567 810 634.5 792 c 128,-1,35
 702 774 702 774 769 753.5 c 128,-1,36
 836 733 836 733 896.5 701.5 c 128,-1,37
 957 670 957 670 1004 628.5 c 128,-1,38
 1051 587 1051 587 1078.5 523 c 128,-1,39
 1106 459 1106 459 1106 377 c 0,40,41
 1106 299 1106 299 1078 230 c 128,-1,42
 1050 161 1050 161 993 102.5 c 128,-1,43
 936 44 936 44 835.5 9.5 c 128,-1,44
 735 -25 735 -25 602 -25 c 0,45,46
 433 -25 433 -25 300.5 33.5 c 128,-1,47
 168 92 168 92 78 193 c 1,0,-1
EndSplineSet
EndChar

StartChar: T
Encoding: 84 84 57
Width: 1167
GlyphClass: 2
Flags: W
LayerCount: 2
Fore
SplineSet
66 1214 m 1,0,-1
 66 1366 l 1,1,-1
 1102 1366 l 1,2,-1
 1102 1214 l 1,3,-1
 668 1214 l 1,4,-1
 668 0 l 1,5,-1
 498 0 l 1,6,-1
 498 1214 l 1,7,-1
 66 1214 l 1,0,-1
EndSplineSet
EndChar

StartChar: U
Encoding: 85 85 58
Width: 1435
GlyphClass: 2
Flags: W
LayerCount: 2
Fore
SplineSet
160 530 m 2,0,-1
 160 1366 l 1,1,-1
 332 1366 l 1,2,-1
 332 535 l 2,3,4
 332 344 332 344 431.5 235.5 c 128,-1,5
 531 127 531 127 717 127 c 128,-1,6
 903 127 903 127 1003.5 236 c 128,-1,7
 1104 345 1104 345 1104 535 c 2,8,-1
 1104 1366 l 1,9,-1
 1276 1366 l 1,10,-1
 1276 532 l 2,11,12
 1276 271 1276 271 1133 123 c 128,-1,13
 990 -25 990 -25 717 -25 c 0,14,15
 446 -25 446 -25 303 123.5 c 128,-1,16
 160 272 160 272 160 530 c 2,0,-1
EndSplineSet
EndChar

StartChar: V
Encoding: 86 86 59
Width: 1347
GlyphClass: 2
Flags: W
LayerCount: 2
Fore
SplineSet
18 1366 m 1,0,-1
 213 1366 l 1,1,-1
 674 186 l 1,2,-1
 1135 1366 l 1,3,-1
 1329 1366 l 1,4,-1
 780 0 l 1,5,-1
 569 0 l 1,6,-1
 18 1366 l 1,0,-1
EndSplineSet
EndChar

StartChar: W
Encoding: 87 87 60
Width: 1808
GlyphClass: 2
Flags: W
LayerCount: 2
Fore
SplineSet
29 1366 m 1,0,-1
 217 1366 l 1,1,-1
 520 227 l 1,2,-1
 834 1366 l 1,3,-1
 975 1366 l 1,4,-1
 1288 227 l 1,5,-1
 1589 1366 l 1,6,-1
 1780 1366 l 1,7,-1
 1389 0 l 1,8,-1
 1204 0 l 1,9,-1
 903 1102 l 1,10,-1
 602 0 l 1,11,-1
 418 0 l 1,12,-1
 29 1366 l 1,0,-1
EndSplineSet
EndChar

StartChar: X
Encoding: 88 88 61
Width: 1021
GlyphClass: 2
Flags: W
LayerCount: 2
Fore
SplineSet
131 379 m 1,0,-1
 436 684 l 1,1,-1
 131 989 l 1,2,-1
 207 1065 l 1,3,-1
 510 760 l 1,4,-1
 815 1065 l 1,5,-1
 891 989 l 1,6,-1
 588 684 l 1,7,-1
 891 379 l 1,8,-1
 815 303 l 1,9,-1
 510 608 l 1,10,-1
 207 303 l 1,11,-1
 131 379 l 1,0,-1
EndSplineSet
EndChar

StartChar: Y
Encoding: 89 89 62
Width: 1282
GlyphClass: 2
Flags: W
LayerCount: 2
Fore
SplineSet
18 1366 m 1,0,-1
 217 1366 l 1,1,-1
 641 731 l 1,2,-1
 1065 1366 l 1,3,-1
 1264 1366 l 1,4,-1
 727 578 l 1,5,-1
 727 0 l 1,6,-1
 557 0 l 1,7,-1
 557 578 l 1,8,-1
 18 1366 l 1,0,-1
EndSplineSet
EndChar

StartChar: Z
Encoding: 90 90 63
Width: 1198
GlyphClass: 2
Flags: W
LayerCount: 2
Fore
SplineSet
98 0 m 1,0,-1
 98 141 l 1,1,-1
 866 1214 l 1,2,-1
 98 1214 l 1,3,-1
 98 1366 l 1,4,-1
 1085 1366 l 1,5,-1
 1085 1225 l 1,6,-1
 315 152 l 1,7,-1
 1100 152 l 1,8,-1
 1100 0 l 1,9,-1
 98 0 l 1,0,-1
EndSplineSet
EndChar

StartChar: bracketleft
Encoding: 91 91 64
Width: 497
GlyphClass: 2
Flags: W
LayerCount: 2
Fore
SplineSet
82 -389 m 1,0,-1
 82 1389 l 1,1,-1
 463 1389 l 1,2,-1
 463 1276 l 1,3,-1
 203 1276 l 1,4,-1
 203 -276 l 1,5,-1
 463 -276 l 1,6,-1
 463 -389 l 1,7,-1
 82 -389 l 1,0,-1
EndSplineSet
EndChar

StartChar: backslash
Encoding: 92 92 65
Width: 606
GlyphClass: 2
Flags: W
LayerCount: 2
Fore
SplineSet
0 1407 m 1,0,-1
 121 1407 l 1,1,-1
 606 -41 l 1,2,-1
 485 -41 l 1,3,-1
 0 1407 l 1,0,-1
EndSplineSet
EndChar

StartChar: bracketright
Encoding: 93 93 66
Width: 497
GlyphClass: 2
Flags: W
LayerCount: 2
Fore
SplineSet
35 -276 m 1,0,-1
 297 -276 l 1,1,-1
 297 1276 l 1,2,-1
 35 1276 l 1,3,-1
 35 1389 l 1,4,-1
 418 1389 l 1,5,-1
 418 -389 l 1,6,-1
 35 -389 l 1,7,-1
 35 -276 l 1,0,-1
EndSplineSet
EndChar

StartChar: asciicircum
Encoding: 94 94 67
Width: 884
GlyphClass: 2
Flags: W
LayerCount: 2
Fore
SplineSet
39 682 m 1,0,-1
 385 1366 l 1,1,-1
 502 1366 l 1,2,-1
 846 682 l 1,3,-1
 719 682 l 1,4,-1
 442 1253 l 1,5,-1
 166 682 l 1,6,-1
 39 682 l 1,0,-1
EndSplineSet
EndChar

StartChar: underscore
Encoding: 95 95 68
Width: 1155
GlyphClass: 2
Flags: W
LayerCount: 2
Fore
SplineSet
-6 -82 m 1,0,-1
 1161 -82 l 1,1,-1
 1161 -195 l 1,2,-1
 -6 -195 l 1,3,-1
 -6 -82 l 1,0,-1
EndSplineSet
EndChar

StartChar: grave
Encoding: 96 96 69
Width: 462
GlyphClass: 2
Flags: W
LayerCount: 2
Fore
SplineSet
0 1434 m 1,0,-1
 160 1434 l 1,1,-1
 463 1139 l 1,2,-1
 346 1139 l 1,3,-1
 0 1434 l 1,0,-1
EndSplineSet
EndChar

StartChar: a
Encoding: 97 97 70
Width: 1177
GlyphClass: 2
Flags: W
LayerCount: 2
Fore
SplineSet
96 494 m 0,0,1
 96 729 96 729 219 871.5 c 128,-1,2
 342 1014 342 1014 537 1014 c 0,3,4
 636 1014 636 1014 722.5 968 c 128,-1,5
 809 922 809 922 870 840 c 1,6,-1
 870 989 l 1,7,-1
 1024 989 l 1,8,-1
 1024 0 l 1,9,-1
 870 0 l 1,10,-1
 870 147 l 1,11,12
 812 69 812 69 725 22 c 128,-1,13
 638 -25 638 -25 537 -25 c 0,14,15
 341 -25 341 -25 218.5 115.5 c 128,-1,16
 96 256 96 256 96 494 c 0,0,1
256 494 m 128,-1,18
 256 326 256 326 341.5 219.5 c 128,-1,19
 427 113 427 113 575 113 c 0,20,21
 664 113 664 113 746.5 158.5 c 128,-1,22
 829 204 829 204 870 270 c 1,23,-1
 870 717 l 1,24,25
 829 784 829 784 746 830.5 c 128,-1,26
 663 877 663 877 575 877 c 0,27,28
 428 877 428 877 342 769.5 c 128,-1,17
 256 662 256 662 256 494 c 128,-1,18
393 1337 m 128,-1,30
 393 1420 393 1420 453 1480 c 128,-1,31
 513 1540 513 1540 596 1540 c 128,-1,32
 679 1540 679 1540 737 1480.5 c 128,-1,33
 795 1421 795 1421 795 1337 c 128,-1,34
 795 1253 795 1253 737 1194 c 128,-1,35
 679 1135 679 1135 596 1135 c 128,-1,36
 513 1135 513 1135 453 1194.5 c 128,-1,29
 393 1254 393 1254 393 1337 c 128,-1,30
475 1337 m 128,-1,38
 475 1287 475 1287 510 1252 c 128,-1,39
 545 1217 545 1217 596 1217 c 0,40,41
 645 1217 645 1217 680 1252 c 128,-1,42
 715 1287 715 1287 715 1337 c 128,-1,43
 715 1387 715 1387 680 1422.5 c 128,-1,44
 645 1458 645 1458 596 1458 c 0,45,46
 545 1458 545 1458 510 1422.5 c 128,-1,37
 475 1387 475 1387 475 1337 c 128,-1,38
EndSplineSet
EndChar

StartChar: b
Encoding: 98 98 71
Width: 1177
GlyphClass: 2
Flags: W
LayerCount: 2
Fore
SplineSet
154 0 m 1,0,-1
 154 1366 l 1,1,-1
 307 1366 l 1,2,-1
 307 840 l 1,3,4
 367 922 367 922 454.5 968 c 128,-1,5
 542 1014 542 1014 641 1014 c 0,6,7
 837 1014 837 1014 959 872 c 128,-1,8
 1081 730 1081 730 1081 494 c 0,9,10
 1081 256 1081 256 959 115.5 c 128,-1,11
 837 -25 837 -25 641 -25 c 0,12,13
 540 -25 540 -25 452.5 22 c 128,-1,14
 365 69 365 69 307 147 c 1,15,-1
 307 0 l 1,16,-1
 154 0 l 1,0,-1
307 268 m 1,17,18
 348 202 348 202 431 157.5 c 128,-1,19
 514 113 514 113 604 113 c 0,20,21
 750 113 750 113 836 219.5 c 128,-1,22
 922 326 922 326 922 494 c 128,-1,23
 922 662 922 662 836 769.5 c 128,-1,24
 750 877 750 877 604 877 c 0,25,26
 515 877 515 877 431.5 830.5 c 128,-1,27
 348 784 348 784 307 717 c 1,28,-1
 307 268 l 1,17,18
EndSplineSet
EndChar

StartChar: c
Encoding: 99 99 72
Width: 1015
GlyphClass: 2
Flags: W
LayerCount: 2
Fore
SplineSet
96 496 m 0,0,1
 96 642 96 642 157.5 759.5 c 128,-1,2
 219 877 219 877 332 945.5 c 128,-1,3
 445 1014 445 1014 590 1014 c 0,4,5
 819 1014 819 1014 952 842 c 1,6,-1
 850 750 l 1,7,8
 757 877 757 877 598 877 c 0,9,10
 443 877 443 877 349.5 770 c 128,-1,11
 256 663 256 663 256 496 c 128,-1,12
 256 329 256 329 350 221 c 128,-1,13
 444 113 444 113 598 113 c 0,14,15
 753 113 753 113 850 242 c 1,16,-1
 952 147 l 1,17,18
 819 -25 819 -25 590 -25 c 0,19,20
 372 -25 372 -25 234 124 c 128,-1,21
 96 273 96 273 96 496 c 0,0,1
EndSplineSet
EndChar

StartChar: d
Encoding: 100 100 73
Width: 1177
GlyphClass: 2
Flags: W
LayerCount: 2
Fore
SplineSet
96 494 m 0,0,1
 96 729 96 729 219 871.5 c 128,-1,2
 342 1014 342 1014 537 1014 c 0,3,4
 636 1014 636 1014 722.5 968 c 128,-1,5
 809 922 809 922 870 840 c 1,6,-1
 870 1366 l 1,7,-1
 1024 1366 l 1,8,-1
 1024 0 l 1,9,-1
 870 0 l 1,10,-1
 870 147 l 1,11,12
 812 69 812 69 725 22 c 128,-1,13
 638 -25 638 -25 537 -25 c 0,14,15
 341 -25 341 -25 218.5 115.5 c 128,-1,16
 96 256 96 256 96 494 c 0,0,1
256 494 m 128,-1,18
 256 326 256 326 341.5 219.5 c 128,-1,19
 427 113 427 113 575 113 c 0,20,21
 664 113 664 113 746.5 158.5 c 128,-1,22
 829 204 829 204 870 270 c 1,23,-1
 870 717 l 1,24,25
 829 784 829 784 746 830.5 c 128,-1,26
 663 877 663 877 575 877 c 0,27,28
 428 877 428 877 342 769.5 c 128,-1,17
 256 662 256 662 256 494 c 128,-1,18
EndSplineSet
EndChar

StartChar: e
Encoding: 101 101 74
Width: 1153
GlyphClass: 2
Flags: W
LayerCount: 2
Fore
SplineSet
96 496 m 0,0,1
 96 638 96 638 158.5 756.5 c 128,-1,2
 221 875 221 875 333 944.5 c 128,-1,3
 445 1014 445 1014 584 1014 c 0,4,5
 730 1014 730 1014 839 943 c 128,-1,6
 948 872 948 872 1003.5 752.5 c 128,-1,7
 1059 633 1059 633 1059 483 c 2,8,-1
 1059 444 l 1,9,-1
 260 444 l 1,10,11
 269 298 269 298 364.5 200 c 128,-1,12
 460 102 460 102 614 102 c 0,13,14
 701 102 701 102 781.5 135 c 128,-1,15
 862 168 862 168 922 229 c 1,16,-1
 995 129 l 1,17,18
 838 -25 838 -25 602 -25 c 0,19,20
 380 -25 380 -25 238 120 c 128,-1,21
 96 265 96 265 96 496 c 0,0,1
258 559 m 1,22,-1
 907 559 l 1,23,24
 906 616 906 616 886.5 672 c 128,-1,25
 867 728 867 728 829 777 c 128,-1,26
 791 826 791 826 727 856.5 c 128,-1,27
 663 887 663 887 582 887 c 0,28,29
 506 887 506 887 444 857 c 128,-1,30
 382 827 382 827 343.5 778.5 c 128,-1,31
 305 730 305 730 283 673.5 c 128,-1,32
 261 617 261 617 258 559 c 1,22,-1
EndSplineSet
EndChar

StartChar: f
Encoding: 102 102 75
Width: 581
GlyphClass: 2
Flags: W
LayerCount: 2
Fore
SplineSet
33 854 m 1,0,-1
 33 989 l 1,1,-1
 197 989 l 1,2,-1
 197 1065 l 2,3,4
 197 1216 197 1216 275 1301 c 128,-1,5
 353 1386 353 1386 483 1386 c 0,6,7
 578 1386 578 1386 635 1354 c 1,8,-1
 596 1237 l 1,9,10
 555 1260 555 1260 508 1260 c 0,11,12
 431 1260 431 1260 390.5 1210 c 128,-1,13
 350 1160 350 1160 350 1065 c 2,14,-1
 350 989 l 1,15,-1
 551 989 l 1,16,-1
 551 854 l 1,17,-1
 350 854 l 1,18,-1
 350 0 l 1,19,-1
 197 0 l 1,20,-1
 197 854 l 1,21,-1
 33 854 l 1,0,-1
EndSplineSet
EndChar

StartChar: g
Encoding: 103 103 76
Width: 1177
GlyphClass: 2
Flags: W
LayerCount: 2
Fore
SplineSet
96 500 m 0,0,1
 96 735 96 735 218 874.5 c 128,-1,2
 340 1014 340 1014 537 1014 c 0,3,4
 636 1014 636 1014 722.5 968 c 128,-1,5
 809 922 809 922 870 840 c 1,6,-1
 870 989 l 1,7,-1
 1024 989 l 1,8,-1
 1024 14 l 2,9,10
 1024 -99 1024 -99 985 -182 c 128,-1,11
 946 -265 946 -265 877.5 -311.5 c 128,-1,12
 809 -358 809 -358 728 -379.5 c 128,-1,13
 647 -401 647 -401 551 -401 c 0,14,15
 421 -401 421 -401 329.5 -369 c 128,-1,16
 238 -337 238 -337 152 -252 c 1,17,-1
 229 -141 l 1,18,19
 290 -212 290 -212 366.5 -243 c 128,-1,20
 443 -274 443 -274 551 -274 c 0,21,22
 687 -274 687 -274 778.5 -203 c 128,-1,23
 870 -132 870 -132 870 14 c 2,24,-1
 870 164 l 1,25,26
 812 85 812 85 724.5 36.5 c 128,-1,27
 637 -12 637 -12 537 -12 c 0,28,29
 340 -12 340 -12 218 126 c 128,-1,30
 96 264 96 264 96 500 c 0,0,1
256 500 m 0,31,32
 256 334 256 334 341.5 229.5 c 128,-1,33
 427 125 427 125 575 125 c 0,34,35
 663 125 663 125 745 171.5 c 128,-1,36
 827 218 827 218 870 285 c 1,37,-1
 870 719 l 1,38,39
 827 785 827 785 744.5 831 c 128,-1,40
 662 877 662 877 575 877 c 0,41,42
 427 877 427 877 341.5 772.5 c 128,-1,43
 256 668 256 668 256 500 c 0,31,32
EndSplineSet
EndChar

StartChar: h
Encoding: 104 104 77
Width: 1130
GlyphClass: 2
Flags: W
LayerCount: 2
Fore
SplineSet
156 0 m 1,0,-1
 156 1366 l 1,1,-1
 309 1366 l 1,2,-1
 309 846 l 1,3,4
 365 915 365 915 460.5 964.5 c 128,-1,5
 556 1014 556 1014 662 1014 c 0,6,7
 977 1014 977 1014 977 698 c 2,8,-1
 977 0 l 1,9,-1
 823 0 l 1,10,-1
 823 651 l 2,11,12
 823 776 823 776 766 826.5 c 128,-1,13
 709 877 709 877 600 877 c 0,14,15
 515 877 515 877 435 832 c 128,-1,16
 355 787 355 787 309 723 c 1,17,-1
 309 0 l 1,18,-1
 156 0 l 1,0,-1
EndSplineSet
EndChar

StartChar: i
Encoding: 105 105 78
Width: 460
GlyphClass: 2
Flags: W
LayerCount: 2
Fore
SplineSet
127 1233 m 128,-1,1
 127 1276 127 1276 157.5 1306.5 c 128,-1,2
 188 1337 188 1337 231 1337 c 128,-1,3
 274 1337 274 1337 304 1306.5 c 128,-1,4
 334 1276 334 1276 334 1233 c 128,-1,5
 334 1190 334 1190 304 1160 c 128,-1,6
 274 1130 274 1130 231 1130 c 128,-1,7
 188 1130 188 1130 157.5 1160 c 128,-1,0
 127 1190 127 1190 127 1233 c 128,-1,1
154 0 m 1,8,-1
 154 989 l 1,9,-1
 307 989 l 1,10,-1
 307 0 l 1,11,-1
 154 0 l 1,8,-1
EndSplineSet
EndChar

StartChar: j
Encoding: 106 106 79
Width: 460
GlyphClass: 2
Flags: W
LayerCount: 2
Fore
SplineSet
-201 -328 m 1,0,-1
 -147 -213 l 1,1,2
 -86 -274 -86 -274 -6 -274 c 0,3,4
 67 -274 67 -274 110.5 -230 c 128,-1,5
 154 -186 154 -186 154 -96 c 2,6,-1
 154 989 l 1,7,-1
 307 989 l 1,8,-1
 307 -96 l 2,9,10
 307 -243 307 -243 231.5 -322 c 128,-1,11
 156 -401 156 -401 14 -401 c 0,12,13
 -58 -401 -58 -401 -105.5 -384 c 128,-1,14
 -153 -367 -153 -367 -201 -328 c 1,0,-1
127 1233 m 128,-1,16
 127 1276 127 1276 157.5 1306.5 c 128,-1,17
 188 1337 188 1337 231 1337 c 128,-1,18
 274 1337 274 1337 304 1306.5 c 128,-1,19
 334 1276 334 1276 334 1233 c 128,-1,20
 334 1190 334 1190 304 1160 c 128,-1,21
 274 1130 274 1130 231 1130 c 128,-1,22
 188 1130 188 1130 157.5 1160 c 128,-1,15
 127 1190 127 1190 127 1233 c 128,-1,16
EndSplineSet
EndChar

StartChar: k
Encoding: 107 107 80
Width: 1052
GlyphClass: 2
Flags: W
LayerCount: 2
Fore
SplineSet
154 0 m 1,0,-1
 154 1366 l 1,1,-1
 307 1366 l 1,2,-1
 307 463 l 1,3,-1
 827 989 l 1,4,-1
 1022 989 l 1,5,-1
 584 541 l 1,6,-1
 1024 0 l 1,7,-1
 827 0 l 1,8,-1
 473 444 l 1,9,-1
 307 283 l 1,10,-1
 307 0 l 1,11,-1
 154 0 l 1,0,-1
EndSplineSet
EndChar

StartChar: l
Encoding: 108 108 81
Width: 550
GlyphClass: 2
Flags: W
LayerCount: 2
Fore
SplineSet
154 207 m 2,0,-1
 154 1366 l 1,1,-1
 307 1366 l 1,2,-1
 307 240 l 2,3,4
 307 182 307 182 333 147.5 c 128,-1,5
 359 113 359 113 408 113 c 0,6,7
 439 113 439 113 467.5 125.5 c 128,-1,8
 496 138 496 138 510 156 c 1,9,-1
 557 39 l 1,10,11
 486 -25 486 -25 373 -25 c 0,12,13
 265 -25 265 -25 209.5 35.5 c 128,-1,14
 154 96 154 96 154 207 c 2,0,-1
EndSplineSet
EndChar

StartChar: m
Encoding: 109 109 82
Width: 1654
GlyphClass: 2
Flags: W
LayerCount: 2
Fore
SplineSet
154 0 m 1,0,-1
 154 989 l 1,1,-1
 307 989 l 1,2,-1
 307 846 l 1,3,4
 347 904 347 904 438 959 c 128,-1,5
 529 1014 529 1014 629 1014 c 0,6,7
 736 1014 736 1014 803 962.5 c 128,-1,8
 870 911 870 911 893 829 c 1,9,10
 938 902 938 902 1031 958 c 128,-1,11
 1124 1014 1124 1014 1225 1014 c 0,12,13
 1361 1014 1361 1014 1431 939 c 128,-1,14
 1501 864 1501 864 1501 715 c 2,15,-1
 1501 0 l 1,16,-1
 1348 0 l 1,17,-1
 1348 672 l 2,18,19
 1348 877 1348 877 1165 877 c 0,20,21
 1091 877 1091 877 1017 832.5 c 128,-1,22
 943 788 943 788 903 725 c 1,23,-1
 903 0 l 1,24,-1
 750 0 l 1,25,-1
 750 672 l 2,26,27
 750 877 750 877 567 877 c 0,28,29
 495 877 495 877 422 831.5 c 128,-1,30
 349 786 349 786 307 723 c 1,31,-1
 307 0 l 1,32,-1
 154 0 l 1,0,-1
EndSplineSet
EndChar

StartChar: n
Encoding: 110 110 83
Width: 1130
GlyphClass: 2
Flags: W
LayerCount: 2
Fore
SplineSet
154 0 m 1,0,-1
 154 989 l 1,1,-1
 307 989 l 1,2,-1
 307 846 l 1,3,4
 365 915 365 915 461 964.5 c 128,-1,5
 557 1014 557 1014 662 1014 c 0,6,7
 975 1014 975 1014 975 694 c 2,8,-1
 975 0 l 1,9,-1
 823 0 l 1,10,-1
 823 647 l 2,11,12
 823 772 823 772 765 824.5 c 128,-1,13
 707 877 707 877 600 877 c 0,14,15
 514 877 514 877 434.5 832 c 128,-1,16
 355 787 355 787 307 723 c 1,17,-1
 307 0 l 1,18,-1
 154 0 l 1,0,-1
EndSplineSet
EndChar

StartChar: o
Encoding: 111 111 84
Width: 1171
GlyphClass: 2
Flags: W
LayerCount: 2
Fore
SplineSet
96 496 m 128,-1,1
 96 640 96 640 155 757 c 128,-1,2
 214 874 214 874 326.5 944 c 128,-1,3
 439 1014 439 1014 586 1014 c 128,-1,4
 733 1014 733 1014 845.5 944 c 128,-1,5
 958 874 958 874 1016.5 757 c 128,-1,6
 1075 640 1075 640 1075 496 c 128,-1,7
 1075 352 1075 352 1016.5 234 c 128,-1,8
 958 116 958 116 845.5 45.5 c 128,-1,9
 733 -25 733 -25 586 -25 c 128,-1,10
 439 -25 439 -25 326.5 45.5 c 128,-1,11
 214 116 214 116 155 234 c 128,-1,0
 96 352 96 352 96 496 c 128,-1,1
258 496 m 0,12,13
 258 336 258 336 346 224.5 c 128,-1,14
 434 113 434 113 586 113 c 0,15,16
 688 113 688 113 763.5 167 c 128,-1,17
 839 221 839 221 876 306.5 c 128,-1,18
 913 392 913 392 913 496 c 0,19,20
 913 599 913 599 876 684 c 128,-1,21
 839 769 839 769 763.5 823 c 128,-1,22
 688 877 688 877 586 877 c 128,-1,23
 484 877 484 877 408 823 c 128,-1,24
 332 769 332 769 295 683.5 c 128,-1,25
 258 598 258 598 258 496 c 0,12,13
EndSplineSet
EndChar

StartChar: p
Encoding: 112 112 85
Width: 1171
GlyphClass: 2
Flags: W
LayerCount: 2
Fore
SplineSet
154 -377 m 1,0,-1
 154 989 l 1,1,-1
 307 989 l 1,2,-1
 307 842 l 1,3,4
 363 920 363 920 451.5 967 c 128,-1,5
 540 1014 540 1014 641 1014 c 0,6,7
 838 1014 838 1014 959.5 874.5 c 128,-1,8
 1081 735 1081 735 1081 496 c 0,9,10
 1081 259 1081 259 959.5 117 c 128,-1,11
 838 -25 838 -25 641 -25 c 0,12,13
 541 -25 541 -25 455.5 21 c 128,-1,14
 370 67 370 67 307 150 c 1,15,-1
 307 -377 l 1,16,-1
 154 -377 l 1,0,-1
307 272 m 1,17,18
 348 205 348 205 431 159 c 128,-1,19
 514 113 514 113 602 113 c 0,20,21
 748 113 748 113 834 220.5 c 128,-1,22
 920 328 920 328 920 496 c 128,-1,23
 920 664 920 664 834 770.5 c 128,-1,24
 748 877 748 877 602 877 c 0,25,26
 514 877 514 877 431 831 c 128,-1,27
 348 785 348 785 307 719 c 1,28,-1
 307 272 l 1,17,18
EndSplineSet
EndChar

StartChar: q
Encoding: 113 113 86
Width: 1347
GlyphClass: 2
Flags: W
LayerCount: 2
Fore
SplineSet
18 0 m 1,0,-1
 569 1366 l 1,1,-1
 780 1366 l 1,2,-1
 1329 0 l 1,3,-1
 1135 0 l 1,4,-1
 1014 305 l 1,5,-1
 334 305 l 1,6,-1
 213 0 l 1,7,-1
 18 0 l 1,0,-1
385 455 m 1,8,-1
 965 455 l 1,9,-1
 674 1192 l 1,10,-1
 385 455 l 1,8,-1
EndSplineSet
EndChar

StartChar: r
Encoding: 114 114 87
Width: 675
GlyphClass: 2
Flags: W
LayerCount: 2
Fore
SplineSet
154 0 m 1,0,-1
 154 989 l 1,1,-1
 307 989 l 1,2,-1
 307 831 l 1,3,4
 371 913 371 913 456 962.5 c 128,-1,5
 541 1012 541 1012 637 1012 c 1,6,-1
 637 854 l 1,7,8
 601 858 601 858 578 858 c 0,9,10
 507 858 507 858 424 809.5 c 128,-1,11
 341 761 341 761 307 700 c 1,12,-1
 307 0 l 1,13,-1
 154 0 l 1,0,-1
EndSplineSet
EndChar

StartChar: s
Encoding: 115 115 88
Width: 952
GlyphClass: 2
Flags: W
LayerCount: 2
Fore
SplineSet
70 131 m 1,0,-1
 147 242 l 1,1,2
 200 182 200 182 288 141 c 128,-1,3
 376 100 376 100 473 100 c 0,4,5
 584 100 584 100 646.5 147 c 128,-1,6
 709 194 709 194 709 270 c 0,7,8
 709 318 709 318 675 351 c 128,-1,9
 641 384 641 384 587 402 c 128,-1,10
 533 420 533 420 468 435 c 128,-1,11
 403 450 403 450 337.5 470 c 128,-1,12
 272 490 272 490 218 519 c 128,-1,13
 164 548 164 548 130 601.5 c 128,-1,14
 96 655 96 655 96 729 c 0,15,16
 96 851 96 851 194 932.5 c 128,-1,17
 292 1014 292 1014 463 1014 c 0,18,19
 689 1014 689 1014 829 870 c 1,20,-1
 758 764 l 1,21,22
 712 820 712 820 634.5 854.5 c 128,-1,23
 557 889 557 889 463 889 c 0,24,25
 364 889 364 889 304 844.5 c 128,-1,26
 244 800 244 800 244 733 c 0,27,28
 244 690 244 690 278 660.5 c 128,-1,29
 312 631 312 631 365.5 614.5 c 128,-1,30
 419 598 419 598 484.5 583.5 c 128,-1,31
 550 569 550 569 615.5 548 c 128,-1,32
 681 527 681 527 734.5 496.5 c 128,-1,33
 788 466 788 466 822 409 c 128,-1,34
 856 352 856 352 856 274 c 0,35,36
 856 144 856 144 754.5 59.5 c 128,-1,37
 653 -25 653 -25 469 -25 c 0,38,39
 220 -25 220 -25 70 131 c 1,0,-1
EndSplineSet
EndChar

StartChar: t
Encoding: 116 116 89
Width: 602
GlyphClass: 2
Flags: W
LayerCount: 2
Fore
SplineSet
20 854 m 1,0,-1
 20 989 l 1,1,-1
 184 989 l 1,2,-1
 184 1260 l 1,3,-1
 340 1260 l 1,4,-1
 340 989 l 1,5,-1
 541 989 l 1,6,-1
 541 854 l 1,7,-1
 340 854 l 1,8,-1
 340 240 l 2,9,10
 340 182 340 182 365 147.5 c 128,-1,11
 390 113 390 113 438 113 c 0,12,13
 506 113 506 113 543 156 c 1,14,-1
 588 39 l 1,15,16
 521 -25 521 -25 406 -25 c 0,17,18
 297 -25 297 -25 240.5 35.5 c 128,-1,19
 184 96 184 96 184 207 c 2,20,-1
 184 854 l 1,21,-1
 20 854 l 1,0,-1
EndSplineSet
EndChar

StartChar: u
Encoding: 117 117 90
Width: 1128
GlyphClass: 2
Flags: W
LayerCount: 2
Fore
SplineSet
154 291 m 2,0,-1
 154 989 l 1,1,-1
 307 989 l 1,2,-1
 307 338 l 2,3,4
 307 214 307 214 364 163.5 c 128,-1,5
 421 113 421 113 530 113 c 0,6,7
 616 113 616 113 696 156 c 128,-1,8
 776 199 776 199 821 262 c 1,9,-1
 821 989 l 1,10,-1
 975 989 l 1,11,-1
 975 0 l 1,12,-1
 821 0 l 1,13,-1
 821 139 l 1,14,15
 759 69 759 69 666 22 c 128,-1,16
 573 -25 573 -25 469 -25 c 0,17,18
 154 -25 154 -25 154 291 c 2,0,-1
EndSplineSet
EndChar

StartChar: v
Encoding: 118 118 91
Width: 1003
GlyphClass: 2
Flags: W
LayerCount: 2
Fore
SplineSet
6 989 m 1,0,-1
 174 989 l 1,1,-1
 502 178 l 1,2,-1
 831 989 l 1,3,-1
 997 989 l 1,4,-1
 586 0 l 1,5,-1
 418 0 l 1,6,-1
 6 989 l 1,0,-1
EndSplineSet
EndChar

StartChar: w
Encoding: 119 119 92
Width: 1503
GlyphClass: 2
Flags: W
LayerCount: 2
Fore
SplineSet
25 989 m 1,0,-1
 184 989 l 1,1,-1
 426 201 l 1,2,-1
 686 989 l 1,3,-1
 819 989 l 1,4,-1
 1077 201 l 1,5,-1
 1319 989 l 1,6,-1
 1481 989 l 1,7,-1
 1165 0 l 1,8,-1
 1010 0 l 1,9,-1
 752 795 l 1,10,-1
 494 0 l 1,11,-1
 340 0 l 1,12,-1
 25 989 l 1,0,-1
EndSplineSet
EndChar

StartChar: x
Encoding: 120 120 93
Width: 997
GlyphClass: 2
Flags: W
LayerCount: 2
Fore
SplineSet
25 0 m 1,0,-1
 403 508 l 1,1,-1
 45 989 l 1,2,-1
 223 989 l 1,3,-1
 498 612 l 1,4,-1
 774 989 l 1,5,-1
 950 989 l 1,6,-1
 592 508 l 1,7,-1
 973 0 l 1,8,-1
 797 0 l 1,9,-1
 498 406 l 1,10,-1
 201 0 l 1,11,-1
 25 0 l 1,0,-1
EndSplineSet
EndChar

StartChar: y
Encoding: 121 121 94
Width: 1128
GlyphClass: 2
Flags: W
LayerCount: 2
Fore
SplineSet
143 -252 m 1,0,-1
 221 -141 l 1,1,2
 328 -274 328 -274 522 -274 c 0,3,4
 662 -274 662 -274 741.5 -198.5 c 128,-1,5
 821 -123 821 -123 821 12 c 2,6,-1
 821 160 l 1,7,8
 759 90 759 90 666 43 c 128,-1,9
 573 -4 573 -4 469 -4 c 0,10,11
 154 -4 154 -4 154 311 c 2,12,-1
 154 989 l 1,13,-1
 307 989 l 1,14,-1
 307 358 l 2,15,16
 307 234 307 234 364 182.5 c 128,-1,17
 421 131 421 131 530 131 c 0,18,19
 615 131 615 131 695 175 c 128,-1,20
 775 219 775 219 821 281 c 1,21,-1
 821 989 l 1,22,-1
 975 989 l 1,23,-1
 975 12 l 2,24,25
 975 -90 975 -90 939 -170.5 c 128,-1,26
 903 -251 903 -251 840 -300.5 c 128,-1,27
 777 -350 777 -350 696 -375.5 c 128,-1,28
 615 -401 615 -401 522 -401 c 0,29,30
 401 -401 401 -401 310 -364.5 c 128,-1,31
 219 -328 219 -328 143 -252 c 1,0,-1
EndSplineSet
EndChar

StartChar: z
Encoding: 122 122 95
Width: 966
GlyphClass: 2
Flags: W
LayerCount: 2
Fore
SplineSet
106 0 m 1,0,-1
 106 121 l 1,1,-1
 651 854 l 1,2,-1
 106 854 l 1,3,-1
 106 989 l 1,4,-1
 852 989 l 1,5,-1
 852 872 l 1,6,-1
 303 135 l 1,7,-1
 860 135 l 1,8,-1
 860 0 l 1,9,-1
 106 0 l 1,0,-1
EndSplineSet
EndChar

StartChar: braceleft
Encoding: 123 123 96
Width: 534
GlyphClass: 2
Flags: W
LayerCount: 2
Fore
SplineSet
10 449 m 1,0,-1
 10 551 l 1,1,2
 63 551 63 551 91 591 c 128,-1,3
 119 631 119 631 119 692 c 2,4,-1
 119 1112 l 2,5,6
 119 1235 119 1235 195 1312 c 128,-1,7
 271 1389 271 1389 373 1389 c 2,8,-1
 500 1389 l 1,9,-1
 500 1276 l 1,10,-1
 373 1276 l 2,11,12
 318 1276 318 1276 278 1230 c 128,-1,13
 238 1184 238 1184 238 1114 c 2,14,-1
 238 680 l 2,15,16
 238 540 238 540 145 500 c 1,17,18
 238 460 238 460 238 319 c 2,19,-1
 238 -113 l 2,20,21
 238 -182 238 -182 278 -229 c 128,-1,22
 318 -276 318 -276 373 -276 c 2,23,-1
 500 -276 l 1,24,-1
 500 -389 l 1,25,-1
 373 -389 l 2,26,27
 271 -389 271 -389 195 -312.5 c 128,-1,28
 119 -236 119 -236 119 -115 c 2,29,-1
 119 307 l 2,30,31
 119 368 119 368 91 408.5 c 128,-1,32
 63 449 63 449 10 449 c 1,0,-1
EndSplineSet
EndChar

StartChar: bar
Encoding: 124 124 97
Width: 432
GlyphClass: 2
Flags: W
LayerCount: 2
Fore
SplineSet
160 -41 m 1,0,-1
 160 1407 l 1,1,-1
 272 1407 l 1,2,-1
 272 -41 l 1,3,-1
 160 -41 l 1,0,-1
EndSplineSet
EndChar

StartChar: braceright
Encoding: 125 125 98
Width: 534
GlyphClass: 2
Flags: W
LayerCount: 2
Fore
SplineSet
35 -276 m 1,0,-1
 160 -276 l 2,1,2
 216 -276 216 -276 256.5 -229 c 128,-1,3
 297 -182 297 -182 297 -113 c 2,4,-1
 297 319 l 2,5,6
 297 461 297 461 389 500 c 1,7,8
 297 539 297 539 297 680 c 2,9,-1
 297 1114 l 2,10,11
 297 1185 297 1185 257 1230.5 c 128,-1,12
 217 1276 217 1276 160 1276 c 2,13,-1
 35 1276 l 1,14,-1
 35 1389 l 1,15,-1
 160 1389 l 2,16,17
 263 1389 263 1389 339.5 1312 c 128,-1,18
 416 1235 416 1235 416 1112 c 2,19,-1
 416 692 l 2,20,21
 416 631 416 631 443.5 591 c 128,-1,22
 471 551 471 551 522 551 c 1,23,-1
 522 449 l 1,24,25
 471 449 471 449 443.5 408.5 c 128,-1,26
 416 368 416 368 416 307 c 2,27,-1
 416 -115 l 2,28,29
 416 -236 416 -236 339.5 -312.5 c 128,-1,30
 263 -389 263 -389 160 -389 c 2,31,-1
 35 -389 l 1,32,-1
 35 -276 l 1,0,-1
EndSplineSet
EndChar

StartChar: asciitilde
Encoding: 126 126 99
Width: 1030
GlyphClass: 2
Flags: W
LayerCount: 2
Fore
SplineSet
55 879 m 1,0,1
 63 960 63 960 74 1025.5 c 128,-1,2
 85 1091 85 1091 106.5 1156.5 c 128,-1,3
 128 1222 128 1222 158 1265.5 c 128,-1,4
 188 1309 188 1309 234 1336.5 c 128,-1,5
 280 1364 280 1364 338 1364 c 0,6,7
 390 1364 390 1364 430 1342.5 c 128,-1,8
 470 1321 470 1321 493.5 1286.5 c 128,-1,9
 517 1252 517 1252 535 1210 c 128,-1,10
 553 1168 553 1168 567 1126.5 c 128,-1,11
 581 1085 581 1085 596.5 1050.5 c 128,-1,12
 612 1016 612 1016 636 994.5 c 128,-1,13
 660 973 660 973 692 973 c 0,14,15
 763 973 763 973 802 1075 c 128,-1,16
 841 1177 841 1177 860 1366 c 1,17,-1
 973 1354 l 1,18,19
 965 1272 965 1272 954.5 1207.5 c 128,-1,20
 944 1143 944 1143 922.5 1076 c 128,-1,21
 901 1009 901 1009 872 965.5 c 128,-1,22
 843 922 843 922 797 894 c 128,-1,23
 751 866 751 866 692 866 c 0,24,25
 632 866 632 866 587.5 895 c 128,-1,26
 543 924 543 924 521 967 c 128,-1,27
 499 1010 499 1010 478.5 1060.5 c 128,-1,28
 458 1111 458 1111 443.5 1154 c 128,-1,29
 429 1197 429 1197 402 1226 c 128,-1,30
 375 1255 375 1255 338 1255 c 128,-1,31
 301 1255 301 1255 273 1227 c 128,-1,32
 245 1199 245 1199 225 1145 c 128,-1,33
 205 1091 205 1091 192 1022.5 c 128,-1,34
 179 954 179 954 170 864 c 1,35,-1
 55 879 l 1,0,1
EndSplineSet
EndChar

StartChar: exclamdown
Encoding: 161 161 101
Width: 471
GlyphClass: 2
Flags: W
LayerCount: 2
Fore
SplineSet
123 897 m 0,0,1
 123 943 123 943 156.5 976.5 c 128,-1,2
 190 1010 190 1010 236 1010 c 0,3,4
 281 1010 281 1010 313.5 976.5 c 128,-1,5
 346 943 346 943 346 897 c 0,6,7
 346 852 346 852 313.5 819 c 128,-1,8
 281 786 281 786 236 786 c 0,9,10
 190 786 190 786 156.5 819.5 c 128,-1,11
 123 853 123 853 123 897 c 0,0,1
139 -377 m 1,12,-1
 170 606 l 1,13,-1
 299 606 l 1,14,-1
 332 -377 l 1,15,-1
 139 -377 l 1,12,-1
EndSplineSet
EndChar

StartChar: cent
Encoding: 162 162 102
Width: 1015
GlyphClass: 2
Flags: W
LayerCount: 2
Fore
SplineSet
96 496 m 0,0,1
 96 697 96 697 211.5 839.5 c 128,-1,2
 327 982 327 982 516 1008 c 1,3,-1
 516 1157 l 1,4,-1
 637 1157 l 1,5,-1
 637 1012 l 1,6,7
 829 997 829 997 952 842 c 1,8,-1
 850 750 l 1,9,10
 769 861 769 861 637 874 c 1,11,-1
 637 115 l 1,12,13
 766 127 766 127 850 242 c 1,14,-1
 952 147 l 1,15,16
 832 -8 832 -8 637 -23 c 1,17,-1
 637 -205 l 1,18,-1
 516 -205 l 1,19,-1
 516 -18 l 1,20,21
 327 7 327 7 211.5 150 c 128,-1,22
 96 293 96 293 96 496 c 0,0,1
256 496 m 0,23,24
 256 352 256 352 325.5 250.5 c 128,-1,25
 395 149 395 149 516 121 c 1,26,-1
 516 868 l 1,27,28
 396 840 396 840 326 739 c 128,-1,29
 256 638 256 638 256 496 c 0,23,24
EndSplineSet
EndChar

StartChar: sterling
Encoding: 163 163 103
Width: 1060
GlyphClass: 2
Flags: W
LayerCount: 2
Fore
SplineSet
41 549 m 1,0,-1
 41 659 l 1,1,-1
 256 659 l 1,2,3
 179 748 179 748 154 788 c 0,4,5
 98 880 98 880 98 983 c 0,6,7
 98 1094 98 1094 160.5 1187 c 128,-1,8
 223 1280 223 1280 328.5 1333 c 128,-1,9
 434 1386 434 1386 557 1386 c 0,10,11
 697 1386 697 1386 805.5 1326 c 128,-1,12
 914 1266 914 1266 971 1157 c 1,13,-1
 834 1075 l 1,14,15
 806 1145 806 1145 734.5 1194 c 128,-1,16
 663 1243 663 1243 573 1243 c 0,17,18
 451 1243 451 1243 367 1171.5 c 128,-1,19
 283 1100 283 1100 283 981 c 0,20,21
 283 938 283 938 292 900.5 c 128,-1,22
 301 863 301 863 321 828.5 c 128,-1,23
 341 794 341 794 357.5 771 c 128,-1,24
 374 748 374 748 403.5 712.5 c 128,-1,25
 433 677 433 677 446 659 c 1,26,-1
 754 659 l 1,27,-1
 754 549 l 1,28,-1
 504 549 l 1,29,30
 518 502 518 502 518 461 c 0,31,32
 518 300 518 300 362 190 c 1,33,34
 421 209 421 209 469 209 c 0,35,36
 536 209 536 209 626 167 c 128,-1,37
 716 125 716 125 772 125 c 0,38,39
 835 125 835 125 889.5 150.5 c 128,-1,40
 944 176 944 176 967 207 c 1,41,-1
 1040 70 l 1,42,43
 939 -27 939 -27 764 -27 c 0,44,45
 702 -27 702 -27 650.5 -12 c 128,-1,46
 599 3 599 3 569 20.5 c 128,-1,47
 539 38 539 38 493.5 53 c 128,-1,48
 448 68 448 68 397 68 c 0,49,50
 313 68 313 68 156 -14 c 1,51,-1
 96 115 l 1,52,53
 226 172 226 172 296.5 253 c 128,-1,54
 367 334 367 334 367 426 c 0,55,56
 367 485 367 485 336 549 c 1,57,-1
 41 549 l 1,0,-1
EndSplineSet
EndChar

StartChar: yen
Encoding: 165 165 104
Width: 1282
GlyphClass: 2
Flags: W
LayerCount: 2
Fore
SplineSet
18 1366 m 1,0,-1
 217 1366 l 1,1,-1
 641 731 l 1,2,-1
 1065 1366 l 1,3,-1
 1264 1366 l 1,4,-1
 799 684 l 1,5,-1
 1239 684 l 1,6,-1
 1239 578 l 1,7,-1
 727 578 l 1,8,-1
 727 358 l 1,9,-1
 1239 358 l 1,10,-1
 1239 250 l 1,11,-1
 727 250 l 1,12,-1
 727 0 l 1,13,-1
 557 0 l 1,14,-1
 557 250 l 1,15,-1
 45 250 l 1,16,-1
 45 358 l 1,17,-1
 557 358 l 1,18,-1
 557 578 l 1,19,-1
 45 578 l 1,20,-1
 45 684 l 1,21,-1
 483 684 l 1,22,-1
 18 1366 l 1,0,-1
EndSplineSet
EndChar

StartChar: brokenbar
Encoding: 166 166 105
Width: 432
GlyphClass: 2
Flags: W
LayerCount: 2
Fore
SplineSet
160 -41 m 1,0,-1
 160 606 l 1,1,-1
 272 606 l 1,2,-1
 272 -41 l 1,3,-1
 160 -41 l 1,0,-1
160 760 m 1,4,-1
 160 1407 l 1,5,-1
 272 1407 l 1,6,-1
 272 760 l 1,7,-1
 160 760 l 1,4,-1
EndSplineSet
EndChar

StartChar: section
Encoding: 167 167 106
Width: 958
GlyphClass: 2
Flags: W
LayerCount: 2
Fore
SplineSet
70 -6 m 1,0,-1
 147 94 l 1,1,2
 198 32 198 32 282 -9.5 c 128,-1,3
 366 -51 366 -51 469 -51 c 0,4,5
 576 -51 576 -51 642.5 -4 c 128,-1,6
 709 43 709 43 709 125 c 0,7,8
 709 176 709 176 675 211 c 128,-1,9
 641 246 641 246 587 265.5 c 128,-1,10
 533 285 533 285 468 301 c 128,-1,11
 403 317 403 317 337.5 337.5 c 128,-1,12
 272 358 272 358 218 386.5 c 128,-1,13
 164 415 164 415 130 468.5 c 128,-1,14
 96 522 96 522 96 596 c 0,15,16
 96 697 96 697 162.5 763 c 128,-1,17
 229 829 229 829 330 856 c 1,18,19
 217 892 217 892 156.5 952 c 128,-1,20
 96 1012 96 1012 96 1110 c 0,21,22
 96 1227 96 1227 195.5 1306.5 c 128,-1,23
 295 1386 295 1386 463 1386 c 0,24,25
 699 1386 699 1386 829 1241 c 1,26,-1
 758 1149 l 1,27,28
 708 1210 708 1210 630.5 1241 c 128,-1,29
 553 1272 553 1272 469 1272 c 0,30,31
 368 1272 368 1272 306 1227 c 128,-1,32
 244 1182 244 1182 244 1108 c 0,33,34
 244 1072 244 1072 265 1045 c 128,-1,35
 286 1018 286 1018 321.5 1001.5 c 128,-1,36
 357 985 357 985 403 972 c 128,-1,37
 449 959 449 959 499.5 947 c 128,-1,38
 550 935 550 935 600.5 921 c 128,-1,39
 651 907 651 907 697 885 c 128,-1,40
 743 863 743 863 778.5 832.5 c 128,-1,41
 814 802 814 802 835 754.5 c 128,-1,42
 856 707 856 707 856 645 c 0,43,44
 856 559 856 559 808 491.5 c 128,-1,45
 760 424 760 424 668 385 c 1,46,47
 760 349 760 349 808 289.5 c 128,-1,48
 856 230 856 230 856 135 c 0,49,50
 856 -5 856 -5 749 -85.5 c 128,-1,51
 642 -166 642 -166 469 -166 c 0,52,53
 330 -166 330 -166 238.5 -123.5 c 128,-1,54
 147 -81 147 -81 70 -6 c 1,0,-1
244 610 m 0,55,56
 244 557 244 557 287.5 519.5 c 128,-1,57
 331 482 331 482 373.5 468 c 128,-1,58
 416 454 416 454 508 431 c 0,59,60
 526 426 526 426 535 424 c 1,61,62
 620 461 620 461 662.5 509 c 128,-1,63
 705 557 705 557 705 627 c 0,64,65
 705 669 705 669 686 700.5 c 128,-1,66
 667 732 667 732 630 753.5 c 128,-1,67
 593 775 593 775 558.5 787.5 c 128,-1,68
 524 800 524 800 473 813 c 1,69,70
 347 781 347 781 295.5 731 c 128,-1,71
 244 681 244 681 244 610 c 0,55,56
EndSplineSet
EndChar

StartChar: dieresis
Encoding: 168 168 107
Width: 557
GlyphClass: 2
Flags: W
LayerCount: 2
Fore
SplineSet
-29 1237 m 0,0,1
 -29 1276 -29 1276 -0.5 1303.5 c 128,-1,2
 28 1331 28 1331 68 1331 c 0,3,4
 107 1331 107 1331 134.5 1303.5 c 128,-1,5
 162 1276 162 1276 162 1237 c 0,6,7
 162 1199 162 1199 134 1171 c 128,-1,8
 106 1143 106 1143 68 1143 c 0,9,10
 28 1143 28 1143 -0.5 1171 c 128,-1,11
 -29 1199 -29 1199 -29 1237 c 0,0,1
395 1237 m 0,12,13
 395 1276 395 1276 422.5 1303.5 c 128,-1,14
 450 1331 450 1331 489 1331 c 0,15,16
 529 1331 529 1331 557.5 1303.5 c 128,-1,17
 586 1276 586 1276 586 1237 c 0,18,19
 586 1199 586 1199 557.5 1171 c 128,-1,20
 529 1143 529 1143 489 1143 c 0,21,22
 451 1143 451 1143 423 1171 c 128,-1,23
 395 1199 395 1199 395 1237 c 0,12,13
EndSplineSet
EndChar

StartChar: copyright
Encoding: 169 169 108
Width: 1593
GlyphClass: 2
Flags: W
LayerCount: 2
Fore
SplineSet
90 684 m 0,0,1
 90 876 90 876 185 1039 c 128,-1,2
 280 1202 280 1202 443 1296.5 c 128,-1,3
 606 1391 606 1391 797 1391 c 0,4,5
 941 1391 941 1391 1072 1335 c 128,-1,6
 1203 1279 1203 1279 1297 1184.5 c 128,-1,7
 1391 1090 1391 1090 1447 959 c 128,-1,8
 1503 828 1503 828 1503 684 c 0,9,10
 1503 541 1503 541 1447 410 c 128,-1,11
 1391 279 1391 279 1297 184 c 128,-1,12
 1203 89 1203 89 1072 33 c 128,-1,13
 941 -23 941 -23 797 -23 c 0,14,15
 606 -23 606 -23 443 72 c 128,-1,16
 280 167 280 167 185 330 c 128,-1,17
 90 493 90 493 90 684 c 0,0,1
154 684 m 128,-1,19
 154 554 154 554 205.5 435 c 128,-1,20
 257 316 257 316 343 230 c 128,-1,21
 429 144 429 144 548 92.5 c 128,-1,22
 667 41 667 41 797 41 c 128,-1,23
 927 41 927 41 1046.5 92.5 c 128,-1,24
 1166 144 1166 144 1252 230.5 c 128,-1,25
 1338 317 1338 317 1389 435.5 c 128,-1,26
 1440 554 1440 554 1440 684 c 0,27,28
 1440 858 1440 858 1353.5 1006 c 128,-1,29
 1267 1154 1267 1154 1119 1240.5 c 128,-1,30
 971 1327 971 1327 797 1327 c 0,31,32
 667 1327 667 1327 548.5 1276 c 128,-1,33
 430 1225 430 1225 343.5 1139 c 128,-1,34
 257 1053 257 1053 205.5 933.5 c 128,-1,18
 154 814 154 814 154 684 c 128,-1,19
375 688 m 128,-1,36
 375 874 375 874 498.5 998 c 128,-1,37
 622 1122 622 1122 801 1122 c 0,38,39
 986 1122 986 1122 1100 989 c 1,40,-1
 1049 938 l 1,41,42
 1010 992 1010 992 942 1023.5 c 128,-1,43
 874 1055 874 1055 801 1055 c 0,44,45
 658 1055 658 1055 554.5 951 c 128,-1,46
 451 847 451 847 451 686 c 0,47,48
 451 528 451 528 555.5 421.5 c 128,-1,49
 660 315 660 315 801 315 c 0,50,51
 874 315 874 315 941.5 347.5 c 128,-1,52
 1009 380 1009 380 1049 434 c 1,53,-1
 1102 383 l 1,54,55
 986 248 986 248 801 248 c 0,56,57
 623 248 623 248 499 375 c 128,-1,35
 375 502 375 502 375 688 c 128,-1,36
EndSplineSet
EndChar

StartChar: ordfeminine
Encoding: 170 170 109
Width: 774
GlyphClass: 2
Flags: W
LayerCount: 2
Fore
SplineSet
84 864 m 0,0,1
 84 964 84 964 152.5 1019.5 c 128,-1,2
 221 1075 221 1075 313 1075 c 0,3,4
 452 1075 452 1075 535 989 c 1,5,-1
 535 1102 l 2,6,7
 535 1163 535 1163 487.5 1199 c 128,-1,8
 440 1235 440 1235 371 1235 c 0,9,10
 248 1235 248 1235 170 1141 c 1,11,-1
 117 1219 l 1,12,13
 222 1327 222 1327 385 1327 c 0,14,15
 502 1327 502 1327 576.5 1272 c 128,-1,16
 651 1217 651 1217 651 1100 c 2,17,-1
 651 668 l 1,18,-1
 535 668 l 1,19,-1
 535 739 l 1,20,21
 450 651 450 651 313 651 c 0,22,23
 222 651 222 651 153 709 c 128,-1,24
 84 767 84 767 84 864 c 0,0,1
203 864 m 0,25,26
 203 803 203 803 246.5 766 c 128,-1,27
 290 729 290 729 358 729 c 0,28,29
 411 729 411 729 458.5 750 c 128,-1,30
 506 771 506 771 535 807 c 1,31,-1
 535 922 l 1,32,33
 506 958 506 958 458.5 978.5 c 128,-1,34
 411 999 411 999 358 999 c 0,35,36
 290 999 290 999 246.5 961.5 c 128,-1,37
 203 924 203 924 203 864 c 0,25,26
EndSplineSet
EndChar

StartChar: guillemotleft
Encoding: 171 171 110
Width: 899
GlyphClass: 2
Flags: W
LayerCount: 2
Fore
SplineSet
61 498 m 1,0,-1
 389 860 l 1,1,-1
 543 860 l 1,2,-1
 215 498 l 1,3,-1
 543 129 l 1,4,-1
 389 129 l 1,5,-1
 61 498 l 1,0,-1
356 498 m 1,6,-1
 684 860 l 1,7,-1
 838 860 l 1,8,-1
 510 498 l 1,9,-1
 838 129 l 1,10,-1
 684 129 l 1,11,-1
 356 498 l 1,6,-1
EndSplineSet
EndChar

StartChar: logicalnot
Encoding: 172 172 111
Width: 1032
GlyphClass: 2
Flags: W
LayerCount: 2
Fore
SplineSet
59 827 m 1,0,-1
 59 936 l 1,1,-1
 963 936 l 1,2,-1
 963 432 l 1,3,-1
 850 432 l 1,4,-1
 850 827 l 1,5,-1
 59 827 l 1,0,-1
EndSplineSet
EndChar

StartChar: uni00AD
Encoding: 173 173 112
Width: 614
GlyphClass: 2
Flags: W
LayerCount: 2
Fore
SplineSet
61 428 m 1,0,-1
 61 563 l 1,1,-1
 553 563 l 1,2,-1
 553 428 l 1,3,-1
 61 428 l 1,0,-1
EndSplineSet
EndChar

StartChar: registered
Encoding: 174 174 113
Width: 1011
GlyphClass: 2
Flags: W
LayerCount: 2
Fore
SplineSet
72 952 m 0,0,1
 72 1133 72 1133 199 1259.5 c 128,-1,2
 326 1386 326 1386 506 1386 c 0,3,4
 625 1386 625 1386 725 1328.5 c 128,-1,5
 825 1271 825 1271 882.5 1171 c 128,-1,6
 940 1071 940 1071 940 952 c 0,7,8
 940 772 940 772 813.5 645 c 128,-1,9
 687 518 687 518 506 518 c 0,10,11
 326 518 326 518 199 645 c 128,-1,12
 72 772 72 772 72 952 c 0,0,1
131 952 m 0,13,14
 131 798 131 798 241 688 c 128,-1,15
 351 578 351 578 506 578 c 128,-1,16
 661 578 661 578 771 688 c 128,-1,17
 881 798 881 798 881 952 c 0,18,19
 881 1110 881 1110 771.5 1218.5 c 128,-1,20
 662 1327 662 1327 506 1327 c 128,-1,21
 350 1327 350 1327 240.5 1218.5 c 128,-1,22
 131 1110 131 1110 131 952 c 0,13,14
340 702 m 1,23,-1
 340 1200 l 1,24,-1
 543 1200 l 2,25,26
 608 1200 608 1200 654 1158 c 128,-1,27
 700 1116 700 1116 700 1049 c 0,28,29
 700 977 700 977 654 939 c 128,-1,30
 608 901 608 901 573 901 c 1,31,-1
 707 702 l 1,32,-1
 625 702 l 1,33,-1
 496 899 l 1,34,-1
 406 899 l 1,35,-1
 406 702 l 1,36,-1
 340 702 l 1,23,-1
406 958 m 1,37,-1
 543 958 l 2,38,39
 577 958 577 958 605 985 c 128,-1,40
 633 1012 633 1012 633 1049 c 0,41,42
 633 1089 633 1089 605 1116 c 128,-1,43
 577 1143 577 1143 543 1143 c 2,44,-1
 406 1143 l 1,45,-1
 406 958 l 1,37,-1
EndSplineSet
EndChar

StartChar: macron
Encoding: 175 175 114
Width: 743
GlyphClass: 2
Flags: W
LayerCount: 2
Fore
SplineSet
0 1210 m 1,0,-1
 0 1309 l 1,1,-1
 743 1309 l 1,2,-1
 743 1210 l 1,3,-1
 0 1210 l 1,0,-1
EndSplineSet
EndChar

StartChar: degree
Encoding: 176 176 115
Width: 593
GlyphClass: 2
Flags: W
LayerCount: 2
Fore
SplineSet
47 1137 m 0,0,1
 47 1240 47 1240 120 1313 c 128,-1,2
 193 1386 193 1386 297 1386 c 0,3,4
 400 1386 400 1386 473.5 1313 c 128,-1,5
 547 1240 547 1240 547 1137 c 0,6,7
 547 1033 547 1033 473.5 960 c 128,-1,8
 400 887 400 887 297 887 c 0,9,10
 193 887 193 887 120 960 c 128,-1,11
 47 1033 47 1033 47 1137 c 0,0,1
147 1137 m 0,12,13
 147 1074 147 1074 190.5 1030.5 c 128,-1,14
 234 987 234 987 297 987 c 0,15,16
 359 987 359 987 404 1031 c 128,-1,17
 449 1075 449 1075 449 1137 c 0,18,19
 449 1198 449 1198 404 1243 c 128,-1,20
 359 1288 359 1288 297 1288 c 0,21,22
 234 1288 234 1288 190.5 1243.5 c 128,-1,23
 147 1199 147 1199 147 1137 c 0,12,13
EndSplineSet
EndChar

StartChar: plusminus
Encoding: 177 177 116
Width: 1021
GlyphClass: 2
Flags: W
LayerCount: 2
Fore
SplineSet
59 0 m 1,0,-1
 59 109 l 1,1,-1
 963 109 l 1,2,-1
 963 0 l 1,3,-1
 59 0 l 1,0,-1
59 664 m 1,4,-1
 59 770 l 1,5,-1
 453 770 l 1,6,-1
 453 1194 l 1,7,-1
 569 1194 l 1,8,-1
 569 770 l 1,9,-1
 963 770 l 1,10,-1
 963 664 l 1,11,-1
 569 664 l 1,12,-1
 569 227 l 1,13,-1
 453 227 l 1,14,-1
 453 664 l 1,15,-1
 59 664 l 1,4,-1
EndSplineSet
EndChar

StartChar: uni00B2
Encoding: 178 178 117
Width: 794
GlyphClass: 2
Flags: W
LayerCount: 2
Fore
SplineSet
100 1565 m 1,0,1
 149 1627 149 1627 230 1660.5 c 128,-1,2
 311 1694 311 1694 401 1694 c 0,3,4
 479 1694 479 1694 543.5 1669.5 c 128,-1,5
 608 1645 608 1645 651 1588.5 c 128,-1,6
 694 1532 694 1532 694 1452 c 0,7,8
 694 1392 694 1392 665.5 1332.5 c 128,-1,9
 637 1273 637 1273 578 1210.5 c 128,-1,10
 519 1148 519 1148 451 1092 c 128,-1,11
 383 1036 383 1036 283 963 c 1,12,-1
 698 963 l 1,13,-1
 698 862 l 1,14,-1
 102 862 l 1,15,-1
 102 954 l 1,16,17
 358 1138 358 1138 464.5 1244 c 128,-1,18
 571 1350 571 1350 571 1444 c 0,19,20
 571 1517 571 1517 520 1555 c 128,-1,21
 469 1593 469 1593 397 1593 c 128,-1,22
 325 1593 325 1593 263.5 1562.5 c 128,-1,23
 202 1532 202 1532 168 1487 c 1,24,-1
 100 1565 l 1,0,1
EndSplineSet
EndChar

StartChar: uni00B3
Encoding: 179 179 118
Width: 794
GlyphClass: 2
Flags: W
LayerCount: 2
Fore
SplineSet
86 981 m 1,0,-1
 154 1059 l 1,1,2
 194 1008 194 1008 257.5 978 c 128,-1,3
 321 948 321 948 391 948 c 0,4,5
 478 948 478 948 529 987 c 128,-1,6
 580 1026 580 1026 580 1092 c 0,7,8
 580 1166 580 1166 522 1199.5 c 128,-1,9
 464 1233 464 1233 367 1233 c 0,10,11
 297 1233 297 1233 285 1231 c 1,12,-1
 285 1333 l 1,13,14
 299 1331 299 1331 367 1331 c 0,15,16
 458 1331 458 1331 512.5 1362.5 c 128,-1,17
 567 1394 567 1394 567 1462 c 0,18,19
 567 1524 567 1524 514.5 1558.5 c 128,-1,20
 462 1593 462 1593 383 1593 c 0,21,22
 251 1593 251 1593 160 1495 c 1,23,-1
 96 1567 l 1,24,25
 207 1694 207 1694 395 1694 c 0,26,27
 526 1694 526 1694 607 1634.5 c 128,-1,28
 688 1575 688 1575 688 1475 c 0,29,30
 688 1393 688 1393 632.5 1345 c 128,-1,31
 577 1297 577 1297 506 1286 c 1,32,33
 537 1283 537 1283 569.5 1269.5 c 128,-1,34
 602 1256 602 1256 632.5 1232.5 c 128,-1,35
 663 1209 663 1209 682.5 1170.5 c 128,-1,36
 702 1132 702 1132 702 1085 c 0,37,38
 702 979 702 979 619 913.5 c 128,-1,39
 536 848 536 848 393 848 c 0,40,41
 289 848 289 848 208.5 885 c 128,-1,42
 128 922 128 922 86 981 c 1,0,-1
EndSplineSet
EndChar

StartChar: acute
Encoding: 180 180 119
Width: 462
GlyphClass: 2
Flags: W
LayerCount: 2
Fore
SplineSet
0 1139 m 1,0,-1
 303 1434 l 1,1,-1
 463 1434 l 1,2,-1
 117 1139 l 1,3,-1
 0 1139 l 1,0,-1
EndSplineSet
EndChar

StartChar: mu
Encoding: 181 181 120
Width: 1128
GlyphClass: 2
Flags: W
LayerCount: 2
Fore
SplineSet
154 -377 m 1,0,-1
 154 989 l 1,1,-1
 307 989 l 1,2,-1
 307 338 l 2,3,4
 307 214 307 214 364.5 161.5 c 128,-1,5
 422 109 422 109 530 109 c 0,6,7
 615 109 615 109 695.5 153.5 c 128,-1,8
 776 198 776 198 821 262 c 1,9,-1
 821 989 l 1,10,-1
 975 989 l 1,11,-1
 975 0 l 1,12,-1
 821 0 l 1,13,-1
 821 139 l 1,14,15
 759 69 759 69 666 22 c 128,-1,16
 573 -25 573 -25 469 -25 c 0,17,18
 376 -25 376 -25 307 4 c 1,19,-1
 307 -377 l 1,20,-1
 154 -377 l 1,0,-1
EndSplineSet
EndChar

StartChar: paragraph
Encoding: 182 182 121
Width: 919
GlyphClass: 2
Flags: W
LayerCount: 2
Fore
SplineSet
55 1014 m 128,-1,1
 55 1160 55 1160 158.5 1263 c 128,-1,2
 262 1366 262 1366 408 1366 c 2,3,-1
 774 1366 l 1,4,-1
 774 -205 l 1,5,-1
 682 -205 l 1,6,-1
 682 1274 l 1,7,-1
 500 1274 l 1,8,-1
 500 -205 l 1,9,-1
 408 -205 l 1,10,-1
 408 662 l 1,11,12
 262 662 262 662 158.5 765 c 128,-1,0
 55 868 55 868 55 1014 c 128,-1,1
EndSplineSet
EndChar

StartChar: periodcentered
Encoding: 183 183 122
Width: 473
GlyphClass: 2
Flags: W
LayerCount: 2
Fore
SplineSet
123 502 m 0,0,1
 123 546 123 546 156.5 579 c 128,-1,2
 190 612 190 612 236 612 c 128,-1,3
 282 612 282 612 315 579 c 128,-1,4
 348 546 348 546 348 502 c 0,5,6
 348 456 348 456 315 422.5 c 128,-1,7
 282 389 282 389 236 389 c 128,-1,8
 190 389 190 389 156.5 422.5 c 128,-1,9
 123 456 123 456 123 502 c 0,0,1
EndSplineSet
EndChar

StartChar: cedilla
Encoding: 184 184 123
Width: 419
GlyphClass: 2
Flags: W
LayerCount: 2
Fore
SplineSet
0 -330 m 1,0,-1
 39 -252 l 1,1,2
 112 -311 112 -311 203 -311 c 0,3,4
 256 -311 256 -311 292 -288 c 128,-1,5
 328 -265 328 -265 328 -225 c 0,6,7
 328 -192 328 -192 308.5 -173 c 128,-1,8
 289 -154 289 -154 252 -154 c 0,9,10
 201 -154 201 -154 174 -188 c 1,11,-1
 106 -150 l 1,12,-1
 170 23 l 1,13,-1
 262 23 l 1,14,-1
 209 -113 l 1,15,16
 238 -90 238 -90 285 -90 c 0,17,18
 344 -90 344 -90 382 -127.5 c 128,-1,19
 420 -165 420 -165 420 -227 c 0,20,21
 420 -301 420 -301 359 -346 c 128,-1,22
 298 -391 298 -391 207 -391 c 0,23,24
 144 -391 144 -391 88.5 -373.5 c 128,-1,25
 33 -356 33 -356 0 -330 c 1,0,-1
EndSplineSet
EndChar

StartChar: uni00B9
Encoding: 185 185 124
Width: 481
GlyphClass: 2
Flags: W
LayerCount: 2
Fore
SplineSet
29 1456 m 1,0,-1
 250 1681 l 1,1,-1
 358 1681 l 1,2,-1
 358 862 l 1,3,-1
 236 862 l 1,4,-1
 236 1522 l 1,5,-1
 100 1380 l 1,6,-1
 29 1456 l 1,0,-1
EndSplineSet
EndChar

StartChar: ordmasculine
Encoding: 186 186 125
Width: 829
GlyphClass: 2
Flags: W
LayerCount: 2
Fore
SplineSet
82 989 m 0,0,1
 82 1132 82 1132 173.5 1229.5 c 128,-1,2
 265 1327 265 1327 414 1327 c 0,3,4
 565 1327 565 1327 656.5 1230 c 128,-1,5
 748 1133 748 1133 748 989 c 0,6,7
 748 846 748 846 656.5 748.5 c 128,-1,8
 565 651 565 651 414 651 c 0,9,10
 266 651 266 651 174 749 c 128,-1,11
 82 847 82 847 82 989 c 0,0,1
205 989 m 128,-1,13
 205 886 205 886 261 818 c 128,-1,14
 317 750 317 750 414 750 c 0,15,16
 512 750 512 750 569.5 818 c 128,-1,17
 627 886 627 886 627 989 c 128,-1,18
 627 1092 627 1092 569.5 1159.5 c 128,-1,19
 512 1227 512 1227 414 1227 c 0,20,21
 317 1227 317 1227 261 1159.5 c 128,-1,12
 205 1092 205 1092 205 989 c 128,-1,13
EndSplineSet
EndChar

StartChar: guillemotright
Encoding: 187 187 126
Width: 899
GlyphClass: 2
Flags: W
LayerCount: 2
Fore
SplineSet
61 129 m 1,0,-1
 389 498 l 1,1,-1
 61 860 l 1,2,-1
 215 860 l 1,3,-1
 543 498 l 1,4,-1
 215 129 l 1,5,-1
 61 129 l 1,0,-1
356 129 m 1,6,-1
 684 498 l 1,7,-1
 356 860 l 1,8,-1
 510 860 l 1,9,-1
 838 498 l 1,10,-1
 510 129 l 1,11,-1
 356 129 l 1,6,-1
EndSplineSet
EndChar

StartChar: onequarter
Encoding: 188 188 127
Width: 1576
GlyphClass: 2
Flags: W
LayerCount: 2
Fore
SplineSet
29 1141 m 1,0,-1
 250 1366 l 1,1,-1
 358 1366 l 1,2,-1
 358 547 l 1,3,-1
 236 547 l 1,4,-1
 236 1206 l 1,5,-1
 100 1065 l 1,6,-1
 29 1141 l 1,0,-1
223 0 m 1,7,-1
 1096 1366 l 1,8,-1
 1208 1366 l 1,9,-1
 334 0 l 1,10,-1
 223 0 l 1,7,-1
860 205 m 1,11,-1
 860 297 l 1,12,-1
 1214 819 l 1,13,-1
 1384 819 l 1,14,-1
 1384 305 l 1,15,-1
 1501 305 l 1,16,-1
 1501 205 l 1,17,-1
 1384 205 l 1,18,-1
 1384 0 l 1,19,-1
 1262 0 l 1,20,-1
 1262 205 l 1,21,-1
 860 205 l 1,11,-1
983 305 m 1,22,-1
 1262 305 l 1,23,-1
 1262 711 l 1,24,-1
 983 305 l 1,22,-1
EndSplineSet
EndChar

StartChar: onehalf
Encoding: 189 189 128
Width: 1566
GlyphClass: 2
Flags: W
LayerCount: 2
Fore
SplineSet
104 682 m 128,-1,1
 104 882 104 882 188.5 1043 c 128,-1,2
 273 1204 273 1204 428.5 1296.5 c 128,-1,3
 584 1389 584 1389 782 1389 c 128,-1,4
 980 1389 980 1389 1136 1296.5 c 128,-1,5
 1292 1204 1292 1204 1377 1043 c 128,-1,6
 1462 882 1462 882 1462 682 c 0,7,8
 1462 377 1462 377 1274 176 c 1,9,-1
 1403 39 l 1,10,-1
 1286 -63 l 1,11,-1
 1153 78 l 1,12,13
 994 -25 994 -25 782 -25 c 0,14,15
 584 -25 584 -25 428.5 67.5 c 128,-1,16
 273 160 273 160 188.5 321 c 128,-1,0
 104 482 104 482 104 682 c 128,-1,1
281 682 m 0,17,18
 281 524 281 524 341.5 398 c 128,-1,19
 402 272 402 272 517 199.5 c 128,-1,20
 632 127 632 127 782 127 c 0,21,22
 927 127 927 127 1042 197 c 1,23,-1
 848 408 l 1,24,-1
 967 508 l 1,25,-1
 1159 299 l 1,26,27
 1286 455 1286 455 1286 682 c 0,28,29
 1286 924 1286 924 1147 1080.5 c 128,-1,30
 1008 1237 1008 1237 782 1237 c 0,31,32
 555 1237 555 1237 418 1081 c 128,-1,33
 281 925 281 925 281 682 c 0,17,18
EndSplineSet
EndChar

StartChar: threequarters
Encoding: 190 190 129
Width: 1247
GlyphClass: 2
Flags: W
LayerCount: 2
Fore
SplineSet
160 0 m 1,0,-1
 160 1366 l 1,1,-1
 709 1366 l 2,2,3
 899 1366 899 1366 1019 1253.5 c 128,-1,4
 1139 1141 1139 1141 1139 954 c 0,5,6
 1139 865 1139 865 1109.5 791 c 128,-1,7
 1080 717 1080 717 1030 668.5 c 128,-1,8
 980 620 980 620 916.5 591.5 c 128,-1,9
 853 563 853 563 782 557 c 1,10,-1
 1151 0 l 1,11,-1
 950 0 l 1,12,-1
 604 543 l 1,13,-1
 330 543 l 1,14,-1
 330 0 l 1,15,-1
 160 0 l 1,0,-1
330 692 m 1,16,-1
 688 692 l 2,17,18
 809 692 809 692 886 765 c 128,-1,19
 963 838 963 838 963 954 c 128,-1,20
 963 1070 963 1070 886.5 1142 c 128,-1,21
 810 1214 810 1214 688 1214 c 2,22,-1
 330 1214 l 1,23,-1
 330 692 l 1,16,-1
EndSplineSet
EndChar

StartChar: questiondown
Encoding: 191 191 130
Width: 1200
GlyphClass: 2
Flags: W
LayerCount: 2
Fore
SplineSet
78 193 m 1,0,-1
 180 324 l 1,1,2
 254 238 254 238 363.5 182.5 c 128,-1,3
 473 127 473 127 608 127 c 0,4,5
 695 127 695 127 760.5 149 c 128,-1,6
 826 171 826 171 861.5 207 c 128,-1,7
 897 243 897 243 913.5 282.5 c 128,-1,8
 930 322 930 322 930 365 c 0,9,10
 930 421 930 421 902.5 463.5 c 128,-1,11
 875 506 875 506 828 532.5 c 128,-1,12
 781 559 781 559 720.5 579.5 c 128,-1,13
 660 600 660 600 593 618 c 128,-1,14
 526 636 526 636 458.5 655 c 128,-1,15
 391 674 391 674 330.5 703 c 128,-1,16
 270 732 270 732 223 770.5 c 128,-1,17
 176 809 176 809 148.5 869.5 c 128,-1,18
 121 930 121 930 121 1008 c 0,19,20
 121 1176 121 1176 254.5 1282.5 c 128,-1,21
 388 1389 388 1389 592 1389 c 0,22,23
 892 1389 892 1389 1075 1196 c 1,24,-1
 973 1071 l 1,25,26
 828 1235 828 1235 578 1235 c 0,27,28
 456 1235 456 1235 376.5 1174.5 c 128,-1,29
 297 1114 297 1114 297 1018 c 0,30,31
 297 969 297 969 324.5 932 c 128,-1,32
 352 895 352 895 399 871.5 c 128,-1,33
 446 848 446 848 506.5 829 c 128,-1,34
 567 810 567 810 634.5 792 c 128,-1,35
 702 774 702 774 769 753.5 c 128,-1,36
 836 733 836 733 896.5 701.5 c 128,-1,37
 957 670 957 670 1004 628.5 c 128,-1,38
 1051 587 1051 587 1078.5 523 c 128,-1,39
 1106 459 1106 459 1106 377 c 0,40,41
 1106 299 1106 299 1078 230 c 128,-1,42
 1050 161 1050 161 993 102.5 c 128,-1,43
 936 44 936 44 835.5 9.5 c 128,-1,44
 735 -25 735 -25 602 -25 c 0,45,46
 433 -25 433 -25 300.5 33.5 c 128,-1,47
 168 92 168 92 78 193 c 1,0,-1
EndSplineSet
EndChar

StartChar: Agrave
Encoding: 192 192 131
Width: 1167
GlyphClass: 2
Flags: W
LayerCount: 2
Fore
SplineSet
66 1214 m 1,0,-1
 66 1366 l 1,1,-1
 1102 1366 l 1,2,-1
 1102 1214 l 1,3,-1
 668 1214 l 1,4,-1
 668 0 l 1,5,-1
 498 0 l 1,6,-1
 498 1214 l 1,7,-1
 66 1214 l 1,0,-1
EndSplineSet
EndChar

StartChar: Aacute
Encoding: 193 193 132
Width: 1435
GlyphClass: 2
Flags: W
LayerCount: 2
Fore
SplineSet
160 530 m 2,0,-1
 160 1366 l 1,1,-1
 332 1366 l 1,2,-1
 332 535 l 2,3,4
 332 344 332 344 431.5 235.5 c 128,-1,5
 531 127 531 127 717 127 c 128,-1,6
 903 127 903 127 1003.5 236 c 128,-1,7
 1104 345 1104 345 1104 535 c 2,8,-1
 1104 1366 l 1,9,-1
 1276 1366 l 1,10,-1
 1276 532 l 2,11,12
 1276 271 1276 271 1133 123 c 128,-1,13
 990 -25 990 -25 717 -25 c 0,14,15
 446 -25 446 -25 303 123.5 c 128,-1,16
 160 272 160 272 160 530 c 2,0,-1
EndSplineSet
EndChar

StartChar: Acircumflex
Encoding: 194 194 133
Width: 1347
GlyphClass: 2
Flags: W
LayerCount: 2
Fore
SplineSet
18 1366 m 1,0,-1
 213 1366 l 1,1,-1
 674 186 l 1,2,-1
 1135 1366 l 1,3,-1
 1329 1366 l 1,4,-1
 780 0 l 1,5,-1
 569 0 l 1,6,-1
 18 1366 l 1,0,-1
EndSplineSet
EndChar

StartChar: Atilde
Encoding: 195 195 134
Width: 1808
GlyphClass: 2
Flags: W
LayerCount: 2
Fore
SplineSet
29 1366 m 1,0,-1
 217 1366 l 1,1,-1
 520 227 l 1,2,-1
 834 1366 l 1,3,-1
 975 1366 l 1,4,-1
 1288 227 l 1,5,-1
 1589 1366 l 1,6,-1
 1780 1366 l 1,7,-1
 1389 0 l 1,8,-1
 1204 0 l 1,9,-1
 903 1102 l 1,10,-1
 602 0 l 1,11,-1
 418 0 l 1,12,-1
 29 1366 l 1,0,-1
EndSplineSet
EndChar

StartChar: Adieresis
Encoding: 196 196 135
Width: 1335
GlyphClass: 2
Flags: W
LayerCount: 2
Fore
SplineSet
25 0 m 1,0,-1
 557 700 l 1,1,-1
 55 1366 l 1,2,-1
 262 1366 l 1,3,-1
 668 821 l 1,4,-1
 1071 1366 l 1,5,-1
 1280 1366 l 1,6,-1
 778 702 l 1,7,-1
 1311 0 l 1,8,-1
 1104 0 l 1,9,-1
 668 582 l 1,10,-1
 231 0 l 1,11,-1
 25 0 l 1,0,-1
EndSplineSet
EndChar

StartChar: Aring
Encoding: 197 197 136
Width: 1282
GlyphClass: 2
Flags: W
LayerCount: 2
Fore
SplineSet
18 1366 m 1,0,-1
 217 1366 l 1,1,-1
 641 731 l 1,2,-1
 1065 1366 l 1,3,-1
 1264 1366 l 1,4,-1
 727 578 l 1,5,-1
 727 0 l 1,6,-1
 557 0 l 1,7,-1
 557 578 l 1,8,-1
 18 1366 l 1,0,-1
EndSplineSet
EndChar

StartChar: AE
Encoding: 198 198 137
Width: 1198
GlyphClass: 2
Flags: W
LayerCount: 2
Fore
SplineSet
98 0 m 1,0,-1
 98 141 l 1,1,-1
 866 1214 l 1,2,-1
 98 1214 l 1,3,-1
 98 1366 l 1,4,-1
 1085 1366 l 1,5,-1
 1085 1225 l 1,6,-1
 315 152 l 1,7,-1
 1100 152 l 1,8,-1
 1100 0 l 1,9,-1
 98 0 l 1,0,-1
EndSplineSet
EndChar

StartChar: Ccedilla
Encoding: 199 199 138
Width: 1384
GlyphClass: 2
Flags: W
LayerCount: 2
Fore
SplineSet
104 682 m 0,0,1
 104 836 104 836 159 969 c 128,-1,2
 214 1102 214 1102 308 1193.5 c 128,-1,3
 402 1285 402 1285 531.5 1337 c 128,-1,4
 661 1389 661 1389 807 1389 c 0,5,6
 1136 1389 1136 1389 1325 1118 c 1,7,-1
 1184 1038 l 1,8,9
 1124 1128 1124 1128 1023 1182.5 c 128,-1,10
 922 1237 922 1237 807 1237 c 0,11,12
 581 1237 581 1237 431 1081.5 c 128,-1,13
 281 926 281 926 281 682 c 0,14,15
 281 523 281 523 350 395.5 c 128,-1,16
 419 268 419 268 539 197.5 c 128,-1,17
 659 127 659 127 807 127 c 0,18,19
 921 127 921 127 1022.5 182 c 128,-1,20
 1124 237 1124 237 1184 326 c 1,21,-1
 1327 248 l 1,22,23
 1133 -17 1133 -17 827 -25 c 1,24,-1
 797 -104 l 1,25,26
 824 -82 824 -82 872 -82 c 0,27,28
 931 -82 931 -82 969.5 -119.5 c 128,-1,29
 1008 -157 1008 -157 1008 -219 c 0,30,31
 1008 -293 1008 -293 947 -338 c 128,-1,32
 886 -383 886 -383 795 -383 c 0,33,34
 732 -383 732 -383 676.5 -365.5 c 128,-1,35
 621 -348 621 -348 588 -322 c 1,36,-1
 627 -244 l 1,37,38
 700 -303 700 -303 791 -303 c 0,39,40
 844 -303 844 -303 879.5 -280 c 128,-1,41
 915 -257 915 -257 915 -217 c 0,42,43
 915 -184 915 -184 896 -164.5 c 128,-1,44
 877 -145 877 -145 840 -145 c 0,45,46
 789 -145 789 -145 762 -180 c 1,47,-1
 694 -141 l 1,48,-1
 737 -20 l 1,49,50
 603 -8 603 -8 486.5 48 c 128,-1,51
 370 104 370 104 285.5 194 c 128,-1,52
 201 284 201 284 152.5 410.5 c 128,-1,53
 104 537 104 537 104 682 c 0,0,1
EndSplineSet
EndChar

StartChar: Eth
Encoding: 208 208 139
Width: 1490
GlyphClass: 2
Flags: W
LayerCount: 2
Fore
SplineSet
20 612 m 1,0,-1
 20 737 l 1,1,-1
 217 737 l 1,2,-1
 217 1366 l 1,3,-1
 684 1366 l 2,4,5
 892 1366 892 1366 1053 1275.5 c 128,-1,6
 1214 1185 1214 1185 1299 1030 c 128,-1,7
 1384 875 1384 875 1384 682 c 0,8,9
 1384 537 1384 537 1334 411.5 c 128,-1,10
 1284 286 1284 286 1194 195 c 128,-1,11
 1104 104 1104 104 972.5 52 c 128,-1,12
 841 0 841 0 684 0 c 2,13,-1
 217 0 l 1,14,-1
 217 612 l 1,15,-1
 20 612 l 1,0,-1
387 152 m 1,16,-1
 684 152 l 2,17,18
 845 152 845 152 966 224 c 128,-1,19
 1087 296 1087 296 1147.5 415 c 128,-1,20
 1208 534 1208 534 1208 682 c 0,21,22
 1208 832 1208 832 1148.5 951 c 128,-1,23
 1089 1070 1089 1070 968.5 1142 c 128,-1,24
 848 1214 848 1214 684 1214 c 2,25,-1
 387 1214 l 1,26,-1
 387 737 l 1,27,-1
 733 737 l 1,28,-1
 733 612 l 1,29,-1
 387 612 l 1,30,-1
 387 152 l 1,16,-1
EndSplineSet
EndChar

StartChar: multiply
Encoding: 215 215 140
Width: 1021
GlyphClass: 2
Flags: W
LayerCount: 2
Fore
SplineSet
131 379 m 1,0,-1
 436 684 l 1,1,-1
 131 989 l 1,2,-1
 207 1065 l 1,3,-1
 510 760 l 1,4,-1
 815 1065 l 1,5,-1
 891 989 l 1,6,-1
 588 684 l 1,7,-1
 891 379 l 1,8,-1
 815 303 l 1,9,-1
 510 608 l 1,10,-1
 207 303 l 1,11,-1
 131 379 l 1,0,-1
EndSplineSet
EndChar

StartChar: Oslash
Encoding: 216 216 141
Width: 1566
GlyphClass: 2
Flags: W
LayerCount: 2
Fore
SplineSet
104 682 m 0,0,1
 104 882 104 882 188.5 1043 c 128,-1,2
 273 1204 273 1204 428.5 1296.5 c 128,-1,3
 584 1389 584 1389 782 1389 c 0,4,5
 971 1389 971 1389 1124 1303 c 1,6,-1
 1167 1366 l 1,7,-1
 1305 1366 l 1,8,-1
 1219 1237 l 1,9,10
 1334 1141 1334 1141 1398 996.5 c 128,-1,11
 1462 852 1462 852 1462 682 c 0,12,13
 1462 482 1462 482 1377 321 c 128,-1,14
 1292 160 1292 160 1136 67.5 c 128,-1,15
 980 -25 980 -25 782 -25 c 0,16,17
 588 -25 588 -25 430 68 c 1,18,-1
 385 0 l 1,19,-1
 248 0 l 1,20,-1
 338 133 l 1,21,22
 227 229 227 229 165.5 371 c 128,-1,23
 104 513 104 513 104 682 c 0,0,1
281 682 m 0,24,25
 281 425 281 425 430 270 c 1,26,-1
 1036 1171 l 1,27,28
 920 1237 920 1237 782 1237 c 0,29,30
 555 1237 555 1237 418 1081 c 128,-1,31
 281 925 281 925 281 682 c 0,24,25
518 199 m 1,32,33
 631 127 631 127 782 127 c 0,34,35
 932 127 932 127 1047.5 199.5 c 128,-1,36
 1163 272 1163 272 1224.5 398 c 128,-1,37
 1286 524 1286 524 1286 682 c 0,38,39
 1286 810 1286 810 1244.5 918.5 c 128,-1,40
 1203 1027 1203 1027 1126 1102 c 1,41,-1
 518 199 l 1,32,33
EndSplineSet
EndChar

StartChar: Ugrave
Encoding: 217 217 142
Width: 1435
GlyphClass: 2
Flags: W
LayerCount: 2
Fore
SplineSet
160 530 m 2,0,-1
 160 1366 l 1,1,-1
 332 1366 l 1,2,-1
 332 535 l 2,3,4
 332 344 332 344 431.5 235.5 c 128,-1,5
 531 127 531 127 717 127 c 128,-1,6
 903 127 903 127 1003.5 236 c 128,-1,7
 1104 345 1104 345 1104 535 c 2,8,-1
 1104 1366 l 1,9,-1
 1276 1366 l 1,10,-1
 1276 532 l 2,11,12
 1276 271 1276 271 1133 123 c 128,-1,13
 990 -25 990 -25 717 -25 c 0,14,15
 446 -25 446 -25 303 123.5 c 128,-1,16
 160 272 160 272 160 530 c 2,0,-1
393 1786 m 1,17,-1
 553 1786 l 1,18,-1
 856 1491 l 1,19,-1
 739 1491 l 1,20,-1
 393 1786 l 1,17,-1
EndSplineSet
EndChar

StartChar: Uacute
Encoding: 218 218 143
Width: 1435
GlyphClass: 2
Flags: W
LayerCount: 2
Fore
SplineSet
160 530 m 2,0,-1
 160 1366 l 1,1,-1
 332 1366 l 1,2,-1
 332 535 l 2,3,4
 332 344 332 344 431.5 235.5 c 128,-1,5
 531 127 531 127 717 127 c 128,-1,6
 903 127 903 127 1003.5 236 c 128,-1,7
 1104 345 1104 345 1104 535 c 2,8,-1
 1104 1366 l 1,9,-1
 1276 1366 l 1,10,-1
 1276 532 l 2,11,12
 1276 271 1276 271 1133 123 c 128,-1,13
 990 -25 990 -25 717 -25 c 0,14,15
 446 -25 446 -25 303 123.5 c 128,-1,16
 160 272 160 272 160 530 c 2,0,-1
582 1491 m 1,17,-1
 885 1786 l 1,18,-1
 1044 1786 l 1,19,-1
 698 1491 l 1,20,-1
 582 1491 l 1,17,-1
EndSplineSet
EndChar

StartChar: Ucircumflex
Encoding: 219 219 144
Width: 1435
GlyphClass: 2
Flags: W
LayerCount: 2
Fore
SplineSet
160 530 m 2,0,-1
 160 1366 l 1,1,-1
 332 1366 l 1,2,-1
 332 535 l 2,3,4
 332 344 332 344 431.5 235.5 c 128,-1,5
 531 127 531 127 717 127 c 128,-1,6
 903 127 903 127 1003.5 236 c 128,-1,7
 1104 345 1104 345 1104 535 c 2,8,-1
 1104 1366 l 1,9,-1
 1276 1366 l 1,10,-1
 1276 532 l 2,11,12
 1276 271 1276 271 1133 123 c 128,-1,13
 990 -25 990 -25 717 -25 c 0,14,15
 446 -25 446 -25 303 123.5 c 128,-1,16
 160 272 160 272 160 530 c 2,0,-1
457 1491 m 1,17,-1
 651 1786 l 1,18,-1
 799 1786 l 1,19,-1
 999 1491 l 1,20,-1
 895 1491 l 1,21,-1
 725 1708 l 1,22,-1
 561 1491 l 1,23,-1
 457 1491 l 1,17,-1
EndSplineSet
EndChar

StartChar: Udieresis
Encoding: 220 220 145
Width: 1435
GlyphClass: 2
Flags: W
LayerCount: 2
Fore
SplineSet
160 530 m 2,0,-1
 160 1366 l 1,1,-1
 332 1366 l 1,2,-1
 332 535 l 2,3,4
 332 344 332 344 431.5 235.5 c 128,-1,5
 531 127 531 127 717 127 c 128,-1,6
 903 127 903 127 1003.5 236 c 128,-1,7
 1104 345 1104 345 1104 535 c 2,8,-1
 1104 1366 l 1,9,-1
 1276 1366 l 1,10,-1
 1276 532 l 2,11,12
 1276 271 1276 271 1133 123 c 128,-1,13
 990 -25 990 -25 717 -25 c 0,14,15
 446 -25 446 -25 303 123.5 c 128,-1,16
 160 272 160 272 160 530 c 2,0,-1
412 1583 m 0,18,19
 412 1623 412 1623 440 1650 c 128,-1,20
 468 1677 468 1677 508 1677 c 0,21,22
 547 1677 547 1677 574.5 1649.5 c 128,-1,23
 602 1622 602 1622 602 1583 c 0,24,25
 602 1545 602 1545 574 1517 c 128,-1,26
 546 1489 546 1489 508 1489 c 0,27,28
 468 1489 468 1489 440 1517 c 128,-1,17
 412 1545 412 1545 412 1583 c 0,18,19
836 1583 m 0,29,30
 836 1622 836 1622 863.5 1649.5 c 128,-1,31
 891 1677 891 1677 930 1677 c 0,32,33
 970 1677 970 1677 998 1650 c 128,-1,34
 1026 1623 1026 1623 1026 1583 c 0,35,36
 1026 1545 1026 1545 998 1517 c 128,-1,37
 970 1489 970 1489 930 1489 c 0,38,39
 892 1489 892 1489 864 1517 c 128,-1,40
 836 1545 836 1545 836 1583 c 0,29,30
EndSplineSet
EndChar

StartChar: Yacute
Encoding: 221 221 146
Width: 1282
GlyphClass: 2
Flags: W
LayerCount: 2
Fore
SplineSet
18 1366 m 1,0,-1
 217 1366 l 1,1,-1
 641 731 l 1,2,-1
 1065 1366 l 1,3,-1
 1264 1366 l 1,4,-1
 727 578 l 1,5,-1
 727 0 l 1,6,-1
 557 0 l 1,7,-1
 557 578 l 1,8,-1
 18 1366 l 1,0,-1
514 1491 m 1,9,-1
 817 1786 l 1,10,-1
 977 1786 l 1,11,-1
 631 1491 l 1,12,-1
 514 1491 l 1,9,-1
EndSplineSet
EndChar

StartChar: Thorn
Encoding: 222 222 147
Width: 1202
GlyphClass: 2
Flags: W
LayerCount: 2
Fore
SplineSet
160 0 m 1,0,-1
 160 1366 l 1,1,-1
 330 1366 l 1,2,-1
 330 1122 l 1,3,-1
 709 1122 l 2,4,5
 907 1122 907 1122 1022 1003 c 128,-1,6
 1137 884 1137 884 1137 709 c 0,7,8
 1137 535 1137 535 1021.5 417 c 128,-1,9
 906 299 906 299 709 299 c 2,10,-1
 330 299 l 1,11,-1
 330 0 l 1,12,-1
 160 0 l 1,0,-1
330 451 m 1,13,-1
 688 451 l 2,14,15
 810 451 810 451 885.5 522.5 c 128,-1,16
 961 594 961 594 961 709 c 0,17,18
 961 825 961 825 885 898 c 128,-1,19
 809 971 809 971 688 971 c 2,20,-1
 330 971 l 1,21,-1
 330 451 l 1,13,-1
EndSplineSet
EndChar

StartChar: germandbls
Encoding: 223 223 148
Width: 1222
GlyphClass: 2
Flags: W
LayerCount: 2
Fore
SplineSet
156 0 m 1,0,-1
 156 1022 l 2,1,2
 156 1177 156 1177 262.5 1281.5 c 128,-1,3
 369 1386 369 1386 545 1386 c 0,4,5
 692 1386 692 1386 797.5 1315 c 128,-1,6
 903 1244 903 1244 903 1128 c 0,7,8
 903 1083 903 1083 886 1045 c 128,-1,9
 869 1007 869 1007 842 981 c 128,-1,10
 815 955 815 955 782.5 931.5 c 128,-1,11
 750 908 750 908 717 887 c 128,-1,12
 684 866 684 866 657 844.5 c 128,-1,13
 630 823 630 823 613 794 c 128,-1,14
 596 765 596 765 596 731 c 0,15,16
 596 688 596 688 628.5 659.5 c 128,-1,17
 661 631 661 631 713 614.5 c 128,-1,18
 765 598 765 598 827.5 584 c 128,-1,19
 890 570 890 570 952.5 549 c 128,-1,20
 1015 528 1015 528 1067 497.5 c 128,-1,21
 1119 467 1119 467 1151.5 410.5 c 128,-1,22
 1184 354 1184 354 1184 276 c 0,23,24
 1184 148 1184 148 1085 61.5 c 128,-1,25
 986 -25 986 -25 803 -25 c 0,26,27
 669 -25 669 -25 584 16.5 c 128,-1,28
 499 58 499 58 422 135 c 1,29,-1
 500 242 l 1,30,31
 546 181 546 181 625.5 141.5 c 128,-1,32
 705 102 705 102 803 102 c 0,33,34
 915 102 915 102 974.5 151.5 c 128,-1,35
 1034 201 1034 201 1034 272 c 0,36,37
 1034 320 1034 320 1001.5 353 c 128,-1,38
 969 386 969 386 917 404.5 c 128,-1,39
 865 423 865 423 802.5 438.5 c 128,-1,40
 740 454 740 454 677.5 474.5 c 128,-1,41
 615 495 615 495 563 523.5 c 128,-1,42
 511 552 511 552 478.5 605 c 128,-1,43
 446 658 446 658 446 731 c 0,44,45
 446 792 446 792 477 841.5 c 128,-1,46
 508 891 508 891 552 923 c 128,-1,47
 596 955 596 955 639.5 983 c 128,-1,48
 683 1011 683 1011 714 1043.5 c 128,-1,49
 745 1076 745 1076 745 1112 c 0,50,51
 745 1175 745 1175 683.5 1212 c 128,-1,52
 622 1249 622 1249 543 1249 c 0,53,54
 443 1249 443 1249 376 1187 c 128,-1,55
 309 1125 309 1125 309 1022 c 2,56,-1
 309 0 l 1,57,-1
 156 0 l 1,0,-1
EndSplineSet
EndChar

StartChar: agrave
Encoding: 224 224 149
Width: 1177
GlyphClass: 2
Flags: W
LayerCount: 2
Fore
SplineSet
96 494 m 0,0,1
 96 729 96 729 219 871.5 c 128,-1,2
 342 1014 342 1014 537 1014 c 0,3,4
 636 1014 636 1014 722.5 968 c 128,-1,5
 809 922 809 922 870 840 c 1,6,-1
 870 989 l 1,7,-1
 1024 989 l 1,8,-1
 1024 0 l 1,9,-1
 870 0 l 1,10,-1
 870 147 l 1,11,12
 812 69 812 69 725 22 c 128,-1,13
 638 -25 638 -25 537 -25 c 0,14,15
 341 -25 341 -25 218.5 115.5 c 128,-1,16
 96 256 96 256 96 494 c 0,0,1
256 494 m 128,-1,18
 256 326 256 326 341.5 219.5 c 128,-1,19
 427 113 427 113 575 113 c 0,20,21
 664 113 664 113 746.5 158.5 c 128,-1,22
 829 204 829 204 870 270 c 1,23,-1
 870 717 l 1,24,25
 829 784 829 784 746 830.5 c 128,-1,26
 663 877 663 877 575 877 c 0,27,28
 428 877 428 877 342 769.5 c 128,-1,17
 256 662 256 662 256 494 c 128,-1,18
276 1434 m 1,29,-1
 436 1434 l 1,30,-1
 739 1139 l 1,31,-1
 623 1139 l 1,32,-1
 276 1434 l 1,29,-1
EndSplineSet
EndChar

StartChar: aacute
Encoding: 225 225 150
Width: 1177
GlyphClass: 2
Flags: W
LayerCount: 2
Fore
SplineSet
96 494 m 0,0,1
 96 729 96 729 219 871.5 c 128,-1,2
 342 1014 342 1014 537 1014 c 0,3,4
 636 1014 636 1014 722.5 968 c 128,-1,5
 809 922 809 922 870 840 c 1,6,-1
 870 989 l 1,7,-1
 1024 989 l 1,8,-1
 1024 0 l 1,9,-1
 870 0 l 1,10,-1
 870 147 l 1,11,12
 812 69 812 69 725 22 c 128,-1,13
 638 -25 638 -25 537 -25 c 0,14,15
 341 -25 341 -25 218.5 115.5 c 128,-1,16
 96 256 96 256 96 494 c 0,0,1
256 494 m 128,-1,18
 256 326 256 326 341.5 219.5 c 128,-1,19
 427 113 427 113 575 113 c 0,20,21
 664 113 664 113 746.5 158.5 c 128,-1,22
 829 204 829 204 870 270 c 1,23,-1
 870 717 l 1,24,25
 829 784 829 784 746 830.5 c 128,-1,26
 663 877 663 877 575 877 c 0,27,28
 428 877 428 877 342 769.5 c 128,-1,17
 256 662 256 662 256 494 c 128,-1,18
467 1139 m 1,29,-1
 770 1434 l 1,30,-1
 930 1434 l 1,31,-1
 584 1139 l 1,32,-1
 467 1139 l 1,29,-1
EndSplineSet
EndChar

StartChar: acircumflex
Encoding: 226 226 151
Width: 1177
GlyphClass: 2
Flags: W
LayerCount: 2
Fore
SplineSet
96 494 m 0,0,1
 96 729 96 729 219 871.5 c 128,-1,2
 342 1014 342 1014 537 1014 c 0,3,4
 636 1014 636 1014 722.5 968 c 128,-1,5
 809 922 809 922 870 840 c 1,6,-1
 870 989 l 1,7,-1
 1024 989 l 1,8,-1
 1024 0 l 1,9,-1
 870 0 l 1,10,-1
 870 147 l 1,11,12
 812 69 812 69 725 22 c 128,-1,13
 638 -25 638 -25 537 -25 c 0,14,15
 341 -25 341 -25 218.5 115.5 c 128,-1,16
 96 256 96 256 96 494 c 0,0,1
256 494 m 128,-1,18
 256 326 256 326 341.5 219.5 c 128,-1,19
 427 113 427 113 575 113 c 0,20,21
 664 113 664 113 746.5 158.5 c 128,-1,22
 829 204 829 204 870 270 c 1,23,-1
 870 717 l 1,24,25
 829 784 829 784 746 830.5 c 128,-1,26
 663 877 663 877 575 877 c 0,27,28
 428 877 428 877 342 769.5 c 128,-1,17
 256 662 256 662 256 494 c 128,-1,18
330 1139 m 1,29,-1
 524 1434 l 1,30,-1
 672 1434 l 1,31,-1
 872 1139 l 1,32,-1
 768 1139 l 1,33,-1
 598 1356 l 1,34,-1
 434 1139 l 1,35,-1
 330 1139 l 1,29,-1
EndSplineSet
EndChar

StartChar: atilde
Encoding: 227 227 152
Width: 1177
GlyphClass: 2
Flags: W
LayerCount: 2
Fore
SplineSet
96 494 m 0,0,1
 96 729 96 729 219 871.5 c 128,-1,2
 342 1014 342 1014 537 1014 c 0,3,4
 636 1014 636 1014 722.5 968 c 128,-1,5
 809 922 809 922 870 840 c 1,6,-1
 870 989 l 1,7,-1
 1024 989 l 1,8,-1
 1024 0 l 1,9,-1
 870 0 l 1,10,-1
 870 147 l 1,11,12
 812 69 812 69 725 22 c 128,-1,13
 638 -25 638 -25 537 -25 c 0,14,15
 341 -25 341 -25 218.5 115.5 c 128,-1,16
 96 256 96 256 96 494 c 0,0,1
256 494 m 128,-1,18
 256 326 256 326 341.5 219.5 c 128,-1,19
 427 113 427 113 575 113 c 0,20,21
 664 113 664 113 746.5 158.5 c 128,-1,22
 829 204 829 204 870 270 c 1,23,-1
 870 717 l 1,24,25
 829 784 829 784 746 830.5 c 128,-1,26
 663 877 663 877 575 877 c 0,27,28
 428 877 428 877 342 769.5 c 128,-1,17
 256 662 256 662 256 494 c 128,-1,18
281 1147 m 1,29,30
 281 1270 281 1270 333 1345.5 c 128,-1,31
 385 1421 385 1421 479 1421 c 0,32,33
 520 1421 520 1421 552 1401.5 c 128,-1,34
 584 1382 584 1382 604 1354.5 c 128,-1,35
 624 1327 624 1327 642 1299.5 c 128,-1,36
 660 1272 660 1272 682 1252.5 c 128,-1,37
 704 1233 704 1233 731 1233 c 0,38,39
 775 1233 775 1233 802 1277 c 128,-1,40
 829 1321 829 1321 829 1409 c 1,41,-1
 922 1409 l 1,42,43
 922 1286 922 1286 869.5 1210.5 c 128,-1,44
 817 1135 817 1135 723 1135 c 0,45,46
 682 1135 682 1135 650 1154.5 c 128,-1,47
 618 1174 618 1174 598 1201.5 c 128,-1,48
 578 1229 578 1229 560 1256.5 c 128,-1,49
 542 1284 542 1284 520 1303.5 c 128,-1,50
 498 1323 498 1323 471 1323 c 0,51,52
 427 1323 427 1323 400 1279 c 128,-1,53
 373 1235 373 1235 373 1147 c 1,54,-1
 281 1147 l 1,29,30
EndSplineSet
EndChar

StartChar: adieresis
Encoding: 228 228 153
Width: 1177
GlyphClass: 2
Flags: W
LayerCount: 2
Fore
SplineSet
96 494 m 0,0,1
 96 729 96 729 219 871.5 c 128,-1,2
 342 1014 342 1014 537 1014 c 0,3,4
 636 1014 636 1014 722.5 968 c 128,-1,5
 809 922 809 922 870 840 c 1,6,-1
 870 989 l 1,7,-1
 1024 989 l 1,8,-1
 1024 0 l 1,9,-1
 870 0 l 1,10,-1
 870 147 l 1,11,12
 812 69 812 69 725 22 c 128,-1,13
 638 -25 638 -25 537 -25 c 0,14,15
 341 -25 341 -25 218.5 115.5 c 128,-1,16
 96 256 96 256 96 494 c 0,0,1
256 494 m 128,-1,18
 256 326 256 326 341.5 219.5 c 128,-1,19
 427 113 427 113 575 113 c 0,20,21
 664 113 664 113 746.5 158.5 c 128,-1,22
 829 204 829 204 870 270 c 1,23,-1
 870 717 l 1,24,25
 829 784 829 784 746 830.5 c 128,-1,26
 663 877 663 877 575 877 c 0,27,28
 428 877 428 877 342 769.5 c 128,-1,17
 256 662 256 662 256 494 c 128,-1,18
293 1237 m 0,29,30
 293 1277 293 1277 321 1304 c 128,-1,31
 349 1331 349 1331 389 1331 c 0,32,33
 428 1331 428 1331 455.5 1303.5 c 128,-1,34
 483 1276 483 1276 483 1237 c 0,35,36
 483 1199 483 1199 455 1171 c 128,-1,37
 427 1143 427 1143 389 1143 c 0,38,39
 349 1143 349 1143 321 1171 c 128,-1,40
 293 1199 293 1199 293 1237 c 0,29,30
717 1237 m 0,41,42
 717 1276 717 1276 744.5 1303.5 c 128,-1,43
 772 1331 772 1331 811 1331 c 0,44,45
 851 1331 851 1331 879 1304 c 128,-1,46
 907 1277 907 1277 907 1237 c 0,47,48
 907 1199 907 1199 879 1171 c 128,-1,49
 851 1143 851 1143 811 1143 c 0,50,51
 773 1143 773 1143 745 1171 c 128,-1,52
 717 1199 717 1199 717 1237 c 0,41,42
EndSplineSet
EndChar

StartChar: aring
Encoding: 229 229 154
Width: 1177
GlyphClass: 2
Flags: W
LayerCount: 2
Fore
SplineSet
96 494 m 0,0,1
 96 729 96 729 219 871.5 c 128,-1,2
 342 1014 342 1014 537 1014 c 0,3,4
 636 1014 636 1014 722.5 968 c 128,-1,5
 809 922 809 922 870 840 c 1,6,-1
 870 989 l 1,7,-1
 1024 989 l 1,8,-1
 1024 0 l 1,9,-1
 870 0 l 1,10,-1
 870 147 l 1,11,12
 812 69 812 69 725 22 c 128,-1,13
 638 -25 638 -25 537 -25 c 0,14,15
 341 -25 341 -25 218.5 115.5 c 128,-1,16
 96 256 96 256 96 494 c 0,0,1
256 494 m 128,-1,18
 256 326 256 326 341.5 219.5 c 128,-1,19
 427 113 427 113 575 113 c 0,20,21
 664 113 664 113 746.5 158.5 c 128,-1,22
 829 204 829 204 870 270 c 1,23,-1
 870 717 l 1,24,25
 829 784 829 784 746 830.5 c 128,-1,26
 663 877 663 877 575 877 c 0,27,28
 428 877 428 877 342 769.5 c 128,-1,17
 256 662 256 662 256 494 c 128,-1,18
393 1337 m 128,-1,30
 393 1420 393 1420 453 1480 c 128,-1,31
 513 1540 513 1540 596 1540 c 128,-1,32
 679 1540 679 1540 737 1480.5 c 128,-1,33
 795 1421 795 1421 795 1337 c 128,-1,34
 795 1253 795 1253 737 1194 c 128,-1,35
 679 1135 679 1135 596 1135 c 128,-1,36
 513 1135 513 1135 453 1194.5 c 128,-1,29
 393 1254 393 1254 393 1337 c 128,-1,30
475 1337 m 128,-1,38
 475 1287 475 1287 510 1252 c 128,-1,39
 545 1217 545 1217 596 1217 c 0,40,41
 645 1217 645 1217 680 1252 c 128,-1,42
 715 1287 715 1287 715 1337 c 128,-1,43
 715 1387 715 1387 680 1422.5 c 128,-1,44
 645 1458 645 1458 596 1458 c 0,45,46
 545 1458 545 1458 510 1422.5 c 128,-1,37
 475 1387 475 1387 475 1337 c 128,-1,38
EndSplineSet
EndChar

StartChar: ae
Encoding: 230 230 155
Width: 1916
GlyphClass: 2
Flags: W
LayerCount: 2
Fore
SplineSet
96 494 m 0,0,1
 96 729 96 729 219 871.5 c 128,-1,2
 342 1014 342 1014 537 1014 c 0,3,4
 636 1014 636 1014 722.5 968 c 128,-1,5
 809 922 809 922 870 840 c 1,6,-1
 870 989 l 1,7,-1
 1024 989 l 1,8,-1
 1024 797 l 1,9,10
 1080 899 1080 899 1171.5 956.5 c 128,-1,11
 1263 1014 1263 1014 1384 1014 c 0,12,13
 1486 1014 1486 1014 1570 973 c 128,-1,14
 1654 932 1654 932 1709.5 860 c 128,-1,15
 1765 788 1765 788 1795 691.5 c 128,-1,16
 1825 595 1825 595 1825 483 c 2,17,-1
 1825 444 l 1,18,-1
 1024 444 l 1,19,20
 1033 299 1033 299 1128 202.5 c 128,-1,21
 1223 106 1223 106 1378 106 c 0,22,23
 1466 106 1466 106 1546.5 138 c 128,-1,24
 1627 170 1627 170 1686 231 c 1,25,-1
 1759 129 l 1,26,27
 1612 -25 1612 -25 1401 -25 c 0,28,29
 1274 -25 1274 -25 1177 31 c 128,-1,30
 1080 87 1080 87 1024 190 c 1,31,-1
 1024 0 l 1,32,-1
 870 0 l 1,33,-1
 870 147 l 1,34,35
 812 69 812 69 725 22 c 128,-1,36
 638 -25 638 -25 537 -25 c 0,37,38
 341 -25 341 -25 218.5 115.5 c 128,-1,39
 96 256 96 256 96 494 c 0,0,1
256 494 m 128,-1,41
 256 326 256 326 341.5 219.5 c 128,-1,42
 427 113 427 113 575 113 c 0,43,44
 664 113 664 113 746.5 158.5 c 128,-1,45
 829 204 829 204 870 270 c 1,46,-1
 870 717 l 1,47,48
 829 784 829 784 746 830.5 c 128,-1,49
 663 877 663 877 575 877 c 0,50,51
 428 877 428 877 342 769.5 c 128,-1,40
 256 662 256 662 256 494 c 128,-1,41
1024 559 m 1,52,-1
 1673 559 l 1,53,54
 1672 616 1672 616 1652.5 672 c 128,-1,55
 1633 728 1633 728 1595 777 c 128,-1,56
 1557 826 1557 826 1493 856.5 c 128,-1,57
 1429 887 1429 887 1348 887 c 0,58,59
 1272 887 1272 887 1210 857 c 128,-1,60
 1148 827 1148 827 1109.5 778.5 c 128,-1,61
 1071 730 1071 730 1049 673.5 c 128,-1,62
 1027 617 1027 617 1024 559 c 1,52,-1
EndSplineSet
EndChar

StartChar: ccedilla
Encoding: 231 231 156
Width: 1015
GlyphClass: 2
Flags: W
LayerCount: 2
Fore
SplineSet
96 496 m 0,0,1
 96 642 96 642 157.5 759.5 c 128,-1,2
 219 877 219 877 332 945.5 c 128,-1,3
 445 1014 445 1014 590 1014 c 0,4,5
 819 1014 819 1014 952 842 c 1,6,-1
 850 750 l 1,7,8
 757 877 757 877 598 877 c 0,9,10
 443 877 443 877 349.5 770 c 128,-1,11
 256 663 256 663 256 496 c 128,-1,12
 256 329 256 329 350 221 c 128,-1,13
 444 113 444 113 598 113 c 0,14,15
 753 113 753 113 850 242 c 1,16,-1
 952 147 l 1,17,18
 833 -10 833 -10 629 -23 c 1,19,-1
 596 -109 l 1,20,21
 625 -86 625 -86 672 -86 c 0,22,23
 731 -86 731 -86 769 -123.5 c 128,-1,24
 807 -161 807 -161 807 -223 c 0,25,26
 807 -297 807 -297 746 -342 c 128,-1,27
 685 -387 685 -387 594 -387 c 0,28,29
 531 -387 531 -387 475.5 -369.5 c 128,-1,30
 420 -352 420 -352 387 -326 c 1,31,-1
 426 -248 l 1,32,33
 499 -307 499 -307 590 -307 c 0,34,35
 643 -307 643 -307 679 -284 c 128,-1,36
 715 -261 715 -261 715 -221 c 0,37,38
 715 -188 715 -188 695.5 -169 c 128,-1,39
 676 -150 676 -150 639 -150 c 0,40,41
 588 -150 588 -150 561 -184 c 1,42,-1
 494 -145 l 1,43,-1
 539 -20 l 1,44,45
 341 -3 341 -3 218.5 142 c 128,-1,46
 96 287 96 287 96 496 c 0,0,1
EndSplineSet
EndChar

StartChar: egrave
Encoding: 232 232 157
Width: 1153
GlyphClass: 2
Flags: W
LayerCount: 2
Fore
SplineSet
96 496 m 0,0,1
 96 638 96 638 158.5 756.5 c 128,-1,2
 221 875 221 875 333 944.5 c 128,-1,3
 445 1014 445 1014 584 1014 c 0,4,5
 730 1014 730 1014 839 943 c 128,-1,6
 948 872 948 872 1003.5 752.5 c 128,-1,7
 1059 633 1059 633 1059 483 c 2,8,-1
 1059 444 l 1,9,-1
 260 444 l 1,10,11
 269 298 269 298 364.5 200 c 128,-1,12
 460 102 460 102 614 102 c 0,13,14
 701 102 701 102 781.5 135 c 128,-1,15
 862 168 862 168 922 229 c 1,16,-1
 995 129 l 1,17,18
 838 -25 838 -25 602 -25 c 0,19,20
 380 -25 380 -25 238 120 c 128,-1,21
 96 265 96 265 96 496 c 0,0,1
258 559 m 1,22,-1
 907 559 l 1,23,24
 906 616 906 616 886.5 672 c 128,-1,25
 867 728 867 728 829 777 c 128,-1,26
 791 826 791 826 727 856.5 c 128,-1,27
 663 887 663 887 582 887 c 0,28,29
 506 887 506 887 444 857 c 128,-1,30
 382 827 382 827 343.5 778.5 c 128,-1,31
 305 730 305 730 283 673.5 c 128,-1,32
 261 617 261 617 258 559 c 1,22,-1
258 1434 m 1,33,-1
 418 1434 l 1,34,-1
 721 1139 l 1,35,-1
 604 1139 l 1,36,-1
 258 1434 l 1,33,-1
EndSplineSet
EndChar

StartChar: eacute
Encoding: 233 233 158
Width: 1153
GlyphClass: 2
Flags: W
LayerCount: 2
Fore
SplineSet
96 496 m 0,0,1
 96 638 96 638 158.5 756.5 c 128,-1,2
 221 875 221 875 333 944.5 c 128,-1,3
 445 1014 445 1014 584 1014 c 0,4,5
 730 1014 730 1014 839 943 c 128,-1,6
 948 872 948 872 1003.5 752.5 c 128,-1,7
 1059 633 1059 633 1059 483 c 2,8,-1
 1059 444 l 1,9,-1
 260 444 l 1,10,11
 269 298 269 298 364.5 200 c 128,-1,12
 460 102 460 102 614 102 c 0,13,14
 701 102 701 102 781.5 135 c 128,-1,15
 862 168 862 168 922 229 c 1,16,-1
 995 129 l 1,17,18
 838 -25 838 -25 602 -25 c 0,19,20
 380 -25 380 -25 238 120 c 128,-1,21
 96 265 96 265 96 496 c 0,0,1
258 559 m 1,22,-1
 907 559 l 1,23,24
 906 616 906 616 886.5 672 c 128,-1,25
 867 728 867 728 829 777 c 128,-1,26
 791 826 791 826 727 856.5 c 128,-1,27
 663 887 663 887 582 887 c 0,28,29
 506 887 506 887 444 857 c 128,-1,30
 382 827 382 827 343.5 778.5 c 128,-1,31
 305 730 305 730 283 673.5 c 128,-1,32
 261 617 261 617 258 559 c 1,22,-1
451 1139 m 1,33,-1
 754 1434 l 1,34,-1
 913 1434 l 1,35,-1
 567 1139 l 1,36,-1
 451 1139 l 1,33,-1
EndSplineSet
EndChar

StartChar: ecircumflex
Encoding: 234 234 159
Width: 1153
GlyphClass: 2
Flags: W
LayerCount: 2
Fore
SplineSet
96 496 m 0,0,1
 96 638 96 638 158.5 756.5 c 128,-1,2
 221 875 221 875 333 944.5 c 128,-1,3
 445 1014 445 1014 584 1014 c 0,4,5
 730 1014 730 1014 839 943 c 128,-1,6
 948 872 948 872 1003.5 752.5 c 128,-1,7
 1059 633 1059 633 1059 483 c 2,8,-1
 1059 444 l 1,9,-1
 260 444 l 1,10,11
 269 298 269 298 364.5 200 c 128,-1,12
 460 102 460 102 614 102 c 0,13,14
 701 102 701 102 781.5 135 c 128,-1,15
 862 168 862 168 922 229 c 1,16,-1
 995 129 l 1,17,18
 838 -25 838 -25 602 -25 c 0,19,20
 380 -25 380 -25 238 120 c 128,-1,21
 96 265 96 265 96 496 c 0,0,1
258 559 m 1,22,-1
 907 559 l 1,23,24
 906 616 906 616 886.5 672 c 128,-1,25
 867 728 867 728 829 777 c 128,-1,26
 791 826 791 826 727 856.5 c 128,-1,27
 663 887 663 887 582 887 c 0,28,29
 506 887 506 887 444 857 c 128,-1,30
 382 827 382 827 343.5 778.5 c 128,-1,31
 305 730 305 730 283 673.5 c 128,-1,32
 261 617 261 617 258 559 c 1,22,-1
315 1139 m 1,33,-1
 510 1434 l 1,34,-1
 657 1434 l 1,35,-1
 858 1139 l 1,36,-1
 754 1139 l 1,37,-1
 584 1356 l 1,38,-1
 420 1139 l 1,39,-1
 315 1139 l 1,33,-1
EndSplineSet
EndChar

StartChar: edieresis
Encoding: 235 235 160
Width: 1153
GlyphClass: 2
Flags: W
LayerCount: 2
Fore
SplineSet
96 496 m 0,0,1
 96 638 96 638 158.5 756.5 c 128,-1,2
 221 875 221 875 333 944.5 c 128,-1,3
 445 1014 445 1014 584 1014 c 0,4,5
 730 1014 730 1014 839 943 c 128,-1,6
 948 872 948 872 1003.5 752.5 c 128,-1,7
 1059 633 1059 633 1059 483 c 2,8,-1
 1059 444 l 1,9,-1
 260 444 l 1,10,11
 269 298 269 298 364.5 200 c 128,-1,12
 460 102 460 102 614 102 c 0,13,14
 701 102 701 102 781.5 135 c 128,-1,15
 862 168 862 168 922 229 c 1,16,-1
 995 129 l 1,17,18
 838 -25 838 -25 602 -25 c 0,19,20
 380 -25 380 -25 238 120 c 128,-1,21
 96 265 96 265 96 496 c 0,0,1
258 559 m 1,22,-1
 907 559 l 1,23,24
 906 616 906 616 886.5 672 c 128,-1,25
 867 728 867 728 829 777 c 128,-1,26
 791 826 791 826 727 856.5 c 128,-1,27
 663 887 663 887 582 887 c 0,28,29
 506 887 506 887 444 857 c 128,-1,30
 382 827 382 827 343.5 778.5 c 128,-1,31
 305 730 305 730 283 673.5 c 128,-1,32
 261 617 261 617 258 559 c 1,22,-1
279 1237 m 0,33,34
 279 1277 279 1277 307 1304 c 128,-1,35
 335 1331 335 1331 375 1331 c 0,36,37
 414 1331 414 1331 441.5 1303.5 c 128,-1,38
 469 1276 469 1276 469 1237 c 0,39,40
 469 1199 469 1199 441 1171 c 128,-1,41
 413 1143 413 1143 375 1143 c 0,42,43
 335 1143 335 1143 307 1171 c 128,-1,44
 279 1199 279 1199 279 1237 c 0,33,34
702 1237 m 0,45,46
 702 1276 702 1276 730 1303.5 c 128,-1,47
 758 1331 758 1331 797 1331 c 0,48,49
 837 1331 837 1331 865 1304 c 128,-1,50
 893 1277 893 1277 893 1237 c 0,51,52
 893 1199 893 1199 865 1171 c 128,-1,53
 837 1143 837 1143 797 1143 c 0,54,55
 759 1143 759 1143 730.5 1171 c 128,-1,56
 702 1199 702 1199 702 1237 c 0,45,46
EndSplineSet
EndChar

StartChar: igrave
Encoding: 236 236 161
Width: 460
GlyphClass: 2
Flags: W
LayerCount: 2
Fore
SplineSet
-98 1434 m 1,0,-1
 61 1434 l 1,1,-1
 365 1139 l 1,2,-1
 248 1139 l 1,3,-1
 -98 1434 l 1,0,-1
154 0 m 1,4,-1
 154 989 l 1,5,-1
 307 989 l 1,6,-1
 307 0 l 1,7,-1
 154 0 l 1,4,-1
EndSplineSet
EndChar

StartChar: iacute
Encoding: 237 237 162
Width: 460
GlyphClass: 2
Flags: W
LayerCount: 2
Fore
SplineSet
96 1139 m 1,0,-1
 399 1434 l 1,1,-1
 559 1434 l 1,2,-1
 213 1139 l 1,3,-1
 96 1139 l 1,0,-1
154 0 m 1,4,-1
 154 989 l 1,5,-1
 307 989 l 1,6,-1
 307 0 l 1,7,-1
 154 0 l 1,4,-1
EndSplineSet
EndChar

StartChar: icircumflex
Encoding: 238 238 163
Width: 460
GlyphClass: 2
Flags: W
LayerCount: 2
Fore
SplineSet
-39 1139 m 1,0,-1
 156 1434 l 1,1,-1
 303 1434 l 1,2,-1
 504 1139 l 1,3,-1
 399 1139 l 1,4,-1
 229 1356 l 1,5,-1
 66 1139 l 1,6,-1
 -39 1139 l 1,0,-1
154 0 m 1,7,-1
 154 989 l 1,8,-1
 307 989 l 1,9,-1
 307 0 l 1,10,-1
 154 0 l 1,7,-1
EndSplineSet
EndChar

StartChar: idieresis
Encoding: 239 239 164
Width: 460
GlyphClass: 2
Flags: W
LayerCount: 2
Fore
SplineSet
-76 1237 m 0,0,1
 -76 1277 -76 1277 -48 1304 c 128,-1,2
 -20 1331 -20 1331 20 1331 c 0,3,4
 59 1331 59 1331 87 1303.5 c 128,-1,5
 115 1276 115 1276 115 1237 c 0,6,7
 115 1199 115 1199 86.5 1171 c 128,-1,8
 58 1143 58 1143 20 1143 c 0,9,10
 -20 1143 -20 1143 -48 1171 c 128,-1,11
 -76 1199 -76 1199 -76 1237 c 0,0,1
154 0 m 1,12,-1
 154 989 l 1,13,-1
 307 989 l 1,14,-1
 307 0 l 1,15,-1
 154 0 l 1,12,-1
348 1237 m 0,16,17
 348 1276 348 1276 375.5 1303.5 c 128,-1,18
 403 1331 403 1331 442 1331 c 0,19,20
 482 1331 482 1331 510.5 1303.5 c 128,-1,21
 539 1276 539 1276 539 1237 c 0,22,23
 539 1199 539 1199 510.5 1171 c 128,-1,24
 482 1143 482 1143 442 1143 c 0,25,26
 404 1143 404 1143 376 1171 c 128,-1,27
 348 1199 348 1199 348 1237 c 0,16,17
EndSplineSet
EndChar

StartChar: eth
Encoding: 240 240 165
Width: 1171
GlyphClass: 2
Flags: W
LayerCount: 2
Fore
SplineSet
96 479 m 0,0,1
 96 695 96 695 223 838 c 128,-1,2
 350 981 350 981 547 981 c 0,3,4
 747 981 747 981 870 801 c 1,5,6
 766 987 766 987 543 1149 c 1,7,-1
 250 1018 l 1,8,-1
 213 1104 l 1,9,-1
 455 1210 l 1,10,11
 426 1229 426 1229 370 1265 c 128,-1,12
 314 1301 314 1301 301 1309 c 1,13,-1
 385 1436 l 1,14,15
 510 1359 510 1359 614 1280 c 1,16,-1
 836 1378 l 1,17,-1
 870 1294 l 1,18,-1
 694 1217 l 1,19,20
 1075 893 1075 893 1075 506 c 0,21,22
 1075 273 1075 273 941.5 124 c 128,-1,23
 808 -25 808 -25 586 -25 c 0,24,25
 368 -25 368 -25 232 118 c 128,-1,26
 96 261 96 261 96 479 c 0,0,1
258 479 m 0,27,28
 258 325 258 325 346 219 c 128,-1,29
 434 113 434 113 586 113 c 128,-1,30
 738 113 738 113 825.5 219 c 128,-1,31
 913 325 913 325 913 479 c 0,32,33
 913 577 913 577 876 659 c 128,-1,34
 839 741 839 741 763.5 792.5 c 128,-1,35
 688 844 688 844 586 844 c 0,36,37
 434 844 434 844 346 737.5 c 128,-1,38
 258 631 258 631 258 479 c 0,27,28
EndSplineSet
EndChar

StartChar: ntilde
Encoding: 241 241 166
Width: 1130
GlyphClass: 2
Flags: W
LayerCount: 2
Fore
SplineSet
160 0 m 1,0,-1
 160 989 l 1,1,-1
 313 989 l 1,2,-1
 313 846 l 1,3,4
 371 915 371 915 467 964.5 c 128,-1,5
 563 1014 563 1014 668 1014 c 0,6,7
 981 1014 981 1014 981 694 c 2,8,-1
 981 0 l 1,9,-1
 829 0 l 1,10,-1
 829 647 l 2,11,12
 829 772 829 772 771 824.5 c 128,-1,13
 713 877 713 877 606 877 c 0,14,15
 520 877 520 877 440.5 832 c 128,-1,16
 361 787 361 787 313 723 c 1,17,-1
 313 0 l 1,18,-1
 160 0 l 1,0,-1
246 1147 m 1,19,20
 246 1270 246 1270 298 1345.5 c 128,-1,21
 350 1421 350 1421 444 1421 c 0,22,23
 485 1421 485 1421 517 1401.5 c 128,-1,24
 549 1382 549 1382 569 1354.5 c 128,-1,25
 589 1327 589 1327 607 1299.5 c 128,-1,26
 625 1272 625 1272 647 1252.5 c 128,-1,27
 669 1233 669 1233 696 1233 c 0,28,29
 740 1233 740 1233 767.5 1277 c 128,-1,30
 795 1321 795 1321 795 1409 c 1,31,-1
 887 1409 l 1,32,33
 887 1286 887 1286 834.5 1210.5 c 128,-1,34
 782 1135 782 1135 688 1135 c 0,35,36
 647 1135 647 1135 615 1154.5 c 128,-1,37
 583 1174 583 1174 563 1201.5 c 128,-1,38
 543 1229 543 1229 525 1256.5 c 128,-1,39
 507 1284 507 1284 485 1303.5 c 128,-1,40
 463 1323 463 1323 436 1323 c 0,41,42
 392 1323 392 1323 365 1279 c 128,-1,43
 338 1235 338 1235 338 1147 c 1,44,-1
 246 1147 l 1,19,20
EndSplineSet
EndChar

StartChar: ograve
Encoding: 242 242 167
Width: 1171
GlyphClass: 2
Flags: W
LayerCount: 2
Fore
SplineSet
96 496 m 128,-1,1
 96 640 96 640 155 757 c 128,-1,2
 214 874 214 874 326.5 944 c 128,-1,3
 439 1014 439 1014 586 1014 c 128,-1,4
 733 1014 733 1014 845.5 944 c 128,-1,5
 958 874 958 874 1016.5 757 c 128,-1,6
 1075 640 1075 640 1075 496 c 128,-1,7
 1075 352 1075 352 1016.5 234 c 128,-1,8
 958 116 958 116 845.5 45.5 c 128,-1,9
 733 -25 733 -25 586 -25 c 128,-1,10
 439 -25 439 -25 326.5 45.5 c 128,-1,11
 214 116 214 116 155 234 c 128,-1,0
 96 352 96 352 96 496 c 128,-1,1
258 496 m 0,12,13
 258 336 258 336 346 224.5 c 128,-1,14
 434 113 434 113 586 113 c 0,15,16
 688 113 688 113 763.5 167 c 128,-1,17
 839 221 839 221 876 306.5 c 128,-1,18
 913 392 913 392 913 496 c 0,19,20
 913 599 913 599 876 684 c 128,-1,21
 839 769 839 769 763.5 823 c 128,-1,22
 688 877 688 877 586 877 c 128,-1,23
 484 877 484 877 408 823 c 128,-1,24
 332 769 332 769 295 683.5 c 128,-1,25
 258 598 258 598 258 496 c 0,12,13
258 1434 m 1,26,-1
 418 1434 l 1,27,-1
 721 1139 l 1,28,-1
 604 1139 l 1,29,-1
 258 1434 l 1,26,-1
EndSplineSet
EndChar

StartChar: divide
Encoding: 247 247 168
Width: 1046
GlyphClass: 2
Flags: W
LayerCount: 2
Fore
SplineSet
59 637 m 1,0,-1
 59 743 l 1,1,-1
 987 743 l 1,2,-1
 987 637 l 1,3,-1
 59 637 l 1,0,-1
430 295 m 128,-1,5
 430 333 430 333 458 361 c 128,-1,6
 486 389 486 389 524 389 c 128,-1,7
 562 389 562 389 590 361 c 128,-1,8
 618 333 618 333 618 295 c 128,-1,9
 618 257 618 257 590 229 c 128,-1,10
 562 201 562 201 524 201 c 128,-1,11
 486 201 486 201 458 229 c 128,-1,4
 430 257 430 257 430 295 c 128,-1,5
430 1079 m 0,12,13
 430 1117 430 1117 458 1144 c 128,-1,14
 486 1171 486 1171 524 1171 c 128,-1,15
 562 1171 562 1171 590 1144 c 128,-1,16
 618 1117 618 1117 618 1079 c 0,17,18
 618 1039 618 1039 590 1011 c 128,-1,19
 562 983 562 983 524 983 c 128,-1,20
 486 983 486 983 458 1011 c 128,-1,21
 430 1039 430 1039 430 1079 c 0,12,13
EndSplineSet
EndChar

StartChar: oslash
Encoding: 248 248 169
Width: 1171
GlyphClass: 2
Flags: W
LayerCount: 2
Fore
SplineSet
96 496 m 0,0,1
 96 640 96 640 155 757 c 128,-1,2
 214 874 214 874 326.5 944 c 128,-1,3
 439 1014 439 1014 586 1014 c 0,4,5
 746 1014 746 1014 866 930 c 1,6,-1
 913 989 l 1,7,-1
 1026 989 l 1,8,-1
 934 872 l 1,9,10
 1002 801 1002 801 1038.5 703.5 c 128,-1,11
 1075 606 1075 606 1075 496 c 0,12,13
 1075 352 1075 352 1016.5 234 c 128,-1,14
 958 116 958 116 845.5 45.5 c 128,-1,15
 733 -25 733 -25 586 -25 c 0,16,17
 418 -25 418 -25 295 68 c 1,18,-1
 242 0 l 1,19,-1
 131 0 l 1,20,-1
 229 125 l 1,21,22
 96 270 96 270 96 496 c 0,0,1
258 496 m 0,23,24
 258 349 258 349 328 248 c 1,25,-1
 774 815 l 1,26,27
 696 877 696 877 586 877 c 0,28,29
 484 877 484 877 408 823 c 128,-1,30
 332 769 332 769 295 683.5 c 128,-1,31
 258 598 258 598 258 496 c 0,23,24
385 182 m 1,32,33
 466 113 466 113 586 113 c 0,34,35
 688 113 688 113 763.5 167 c 128,-1,36
 839 221 839 221 876 306.5 c 128,-1,37
 913 392 913 392 913 496 c 0,38,39
 913 647 913 647 836 750 c 1,40,-1
 385 182 l 1,32,33
EndSplineSet
EndChar

StartChar: ucircumflex
Encoding: 251 251 170
Width: 1128
GlyphClass: 2
Flags: W
LayerCount: 2
Fore
SplineSet
154 291 m 2,0,-1
 154 989 l 1,1,-1
 307 989 l 1,2,-1
 307 338 l 2,3,4
 307 214 307 214 364 163.5 c 128,-1,5
 421 113 421 113 530 113 c 0,6,7
 616 113 616 113 696 156 c 128,-1,8
 776 199 776 199 821 262 c 1,9,-1
 821 989 l 1,10,-1
 975 989 l 1,11,-1
 975 0 l 1,12,-1
 821 0 l 1,13,-1
 821 139 l 1,14,15
 759 69 759 69 666 22 c 128,-1,16
 573 -25 573 -25 469 -25 c 0,17,18
 154 -25 154 -25 154 291 c 2,0,-1
295 1139 m 1,19,-1
 489 1434 l 1,20,-1
 637 1434 l 1,21,-1
 838 1139 l 1,22,-1
 733 1139 l 1,23,-1
 563 1356 l 1,24,-1
 399 1139 l 1,25,-1
 295 1139 l 1,19,-1
EndSplineSet
EndChar

StartChar: udieresis
Encoding: 252 252 171
Width: 1128
GlyphClass: 2
Flags: W
LayerCount: 2
Fore
SplineSet
154 291 m 2,0,-1
 154 989 l 1,1,-1
 307 989 l 1,2,-1
 307 338 l 2,3,4
 307 214 307 214 364 163.5 c 128,-1,5
 421 113 421 113 530 113 c 0,6,7
 616 113 616 113 696 156 c 128,-1,8
 776 199 776 199 821 262 c 1,9,-1
 821 989 l 1,10,-1
 975 989 l 1,11,-1
 975 0 l 1,12,-1
 821 0 l 1,13,-1
 821 139 l 1,14,15
 759 69 759 69 666 22 c 128,-1,16
 573 -25 573 -25 469 -25 c 0,17,18
 154 -25 154 -25 154 291 c 2,0,-1
264 1237 m 0,19,20
 264 1277 264 1277 292 1304 c 128,-1,21
 320 1331 320 1331 360 1331 c 0,22,23
 399 1331 399 1331 427 1303.5 c 128,-1,24
 455 1276 455 1276 455 1237 c 0,25,26
 455 1199 455 1199 426.5 1171 c 128,-1,27
 398 1143 398 1143 360 1143 c 0,28,29
 320 1143 320 1143 292 1171 c 128,-1,30
 264 1199 264 1199 264 1237 c 0,19,20
688 1237 m 0,31,32
 688 1276 688 1276 715.5 1303.5 c 128,-1,33
 743 1331 743 1331 782 1331 c 0,34,35
 822 1331 822 1331 850.5 1303.5 c 128,-1,36
 879 1276 879 1276 879 1237 c 0,37,38
 879 1199 879 1199 850.5 1171 c 128,-1,39
 822 1143 822 1143 782 1143 c 0,40,41
 744 1143 744 1143 716 1171 c 128,-1,42
 688 1199 688 1199 688 1237 c 0,31,32
EndSplineSet
EndChar

StartChar: thorn
Encoding: 254 254 172
Width: 1171
GlyphClass: 2
Flags: W
LayerCount: 2
Fore
SplineSet
154 -377 m 1,0,-1
 154 1366 l 1,1,-1
 307 1366 l 1,2,-1
 307 842 l 1,3,4
 363 920 363 920 451.5 967 c 128,-1,5
 540 1014 540 1014 641 1014 c 0,6,7
 838 1014 838 1014 959.5 874.5 c 128,-1,8
 1081 735 1081 735 1081 496 c 0,9,10
 1081 259 1081 259 959.5 117 c 128,-1,11
 838 -25 838 -25 641 -25 c 0,12,13
 541 -25 541 -25 455.5 21 c 128,-1,14
 370 67 370 67 307 150 c 1,15,-1
 307 -377 l 1,16,-1
 154 -377 l 1,0,-1
307 272 m 1,17,18
 348 205 348 205 431 159 c 128,-1,19
 514 113 514 113 602 113 c 0,20,21
 748 113 748 113 834 220.5 c 128,-1,22
 920 328 920 328 920 496 c 128,-1,23
 920 664 920 664 834 770.5 c 128,-1,24
 748 877 748 877 602 877 c 0,25,26
 514 877 514 877 431 831 c 128,-1,27
 348 785 348 785 307 719 c 1,28,-1
 307 272 l 1,17,18
EndSplineSet
EndChar

StartChar: ydieresis
Encoding: 255 255 173
Width: 1128
GlyphClass: 2
Flags: W
LayerCount: 2
Fore
SplineSet
143 -252 m 1,0,-1
 221 -141 l 1,1,2
 328 -274 328 -274 522 -274 c 0,3,4
 662 -274 662 -274 741.5 -198.5 c 128,-1,5
 821 -123 821 -123 821 12 c 2,6,-1
 821 160 l 1,7,8
 759 90 759 90 666 43 c 128,-1,9
 573 -4 573 -4 469 -4 c 0,10,11
 154 -4 154 -4 154 311 c 2,12,-1
 154 989 l 1,13,-1
 307 989 l 1,14,-1
 307 358 l 2,15,16
 307 234 307 234 364 182.5 c 128,-1,17
 421 131 421 131 530 131 c 0,18,19
 615 131 615 131 695 175 c 128,-1,20
 775 219 775 219 821 281 c 1,21,-1
 821 989 l 1,22,-1
 975 989 l 1,23,-1
 975 12 l 2,24,25
 975 -90 975 -90 939 -170.5 c 128,-1,26
 903 -251 903 -251 840 -300.5 c 128,-1,27
 777 -350 777 -350 696 -375.5 c 128,-1,28
 615 -401 615 -401 522 -401 c 0,29,30
 401 -401 401 -401 310 -364.5 c 128,-1,31
 219 -328 219 -328 143 -252 c 1,0,-1
250 1237 m 0,32,33
 250 1277 250 1277 278 1304 c 128,-1,34
 306 1331 306 1331 346 1331 c 0,35,36
 385 1331 385 1331 412.5 1303.5 c 128,-1,37
 440 1276 440 1276 440 1237 c 0,38,39
 440 1199 440 1199 412 1171 c 128,-1,40
 384 1143 384 1143 346 1143 c 0,41,42
 306 1143 306 1143 278 1171 c 128,-1,43
 250 1199 250 1199 250 1237 c 0,32,33
674 1237 m 0,44,45
 674 1276 674 1276 701.5 1303.5 c 128,-1,46
 729 1331 729 1331 768 1331 c 0,47,48
 808 1331 808 1331 836 1304 c 128,-1,49
 864 1277 864 1277 864 1237 c 0,50,51
 864 1199 864 1199 836 1171 c 128,-1,52
 808 1143 808 1143 768 1143 c 0,53,54
 730 1143 730 1143 702 1171 c 128,-1,55
 674 1199 674 1199 674 1237 c 0,44,45
EndSplineSet
EndChar

StartChar: OE
Encoding: 338 338 174
Width: 2263
GlyphClass: 2
Flags: W
LayerCount: 2
Fore
SplineSet
104 682 m 128,-1,1
 104 882 104 882 186.5 1042.5 c 128,-1,2
 269 1203 269 1203 421 1294.5 c 128,-1,3
 573 1386 573 1386 768 1386 c 0,4,5
 918 1386 918 1386 1050.5 1316.5 c 128,-1,6
 1183 1247 1183 1247 1257 1118 c 1,7,-1
 1257 1366 l 1,8,-1
 2152 1366 l 1,9,-1
 2152 1214 l 1,10,-1
 1427 1214 l 1,11,-1
 1427 774 l 1,12,-1
 2138 774 l 1,13,-1
 2138 623 l 1,14,-1
 1427 623 l 1,15,-1
 1427 152 l 1,16,-1
 2152 152 l 1,17,-1
 2152 0 l 1,18,-1
 1257 0 l 1,19,-1
 1257 248 l 1,20,21
 1183 117 1183 117 1050.5 46 c 128,-1,22
 918 -25 918 -25 768 -25 c 0,23,24
 573 -25 573 -25 421 67.5 c 128,-1,25
 269 160 269 160 186.5 321 c 128,-1,0
 104 482 104 482 104 682 c 128,-1,1
281 682 m 0,26,27
 281 564 281 564 316.5 462 c 128,-1,28
 352 360 352 360 416.5 285.5 c 128,-1,29
 481 211 481 211 577 169 c 128,-1,30
 673 127 673 127 788 127 c 0,31,32
 948 127 948 127 1072.5 212.5 c 128,-1,33
 1197 298 1197 298 1257 459 c 1,34,-1
 1257 907 l 1,35,36
 1197 1067 1197 1067 1073 1151 c 128,-1,37
 949 1235 949 1235 788 1235 c 0,38,39
 557 1235 557 1235 419 1080 c 128,-1,40
 281 925 281 925 281 682 c 0,26,27
EndSplineSet
EndChar

StartChar: oe
Encoding: 339 339 175
Width: 1970
GlyphClass: 2
Flags: W
LayerCount: 2
Fore
SplineSet
96 496 m 128,-1,1
 96 640 96 640 155 757 c 128,-1,2
 214 874 214 874 326.5 944 c 128,-1,3
 439 1014 439 1014 586 1014 c 0,4,5
 673 1014 673 1014 746 985.5 c 128,-1,6
 819 957 819 957 867.5 910 c 128,-1,7
 916 863 916 863 945.5 820 c 128,-1,8
 975 777 975 777 995 731 c 1,9,10
 1014 777 1014 777 1045.5 822 c 128,-1,11
 1077 867 1077 867 1125.5 912.5 c 128,-1,12
 1174 958 1174 958 1245.5 986 c 128,-1,13
 1317 1014 1317 1014 1401 1014 c 0,14,15
 1547 1014 1547 1014 1656 943 c 128,-1,16
 1765 872 1765 872 1820.5 752.5 c 128,-1,17
 1876 633 1876 633 1876 483 c 2,18,-1
 1876 444 l 1,19,-1
 1077 444 l 1,20,21
 1086 299 1086 299 1182.5 200.5 c 128,-1,22
 1279 102 1279 102 1432 102 c 0,23,24
 1519 102 1519 102 1599 135 c 128,-1,25
 1679 168 1679 168 1739 229 c 1,26,-1
 1812 129 l 1,27,28
 1655 -25 1655 -25 1419 -25 c 0,29,30
 1329 -25 1329 -25 1254 2 c 128,-1,31
 1179 29 1179 29 1128.5 74.5 c 128,-1,32
 1078 120 1078 120 1046.5 164 c 128,-1,33
 1015 208 1015 208 993 258 c 1,34,35
 976 220 976 220 955.5 186 c 128,-1,36
 935 152 935 152 899 111.5 c 128,-1,37
 863 71 863 71 821.5 42.5 c 128,-1,38
 780 14 780 14 718 -5.5 c 128,-1,39
 656 -25 656 -25 586 -25 c 0,40,41
 439 -25 439 -25 326.5 45.5 c 128,-1,42
 214 116 214 116 155 234 c 128,-1,0
 96 352 96 352 96 496 c 128,-1,1
258 496 m 0,43,44
 258 333 258 333 347 222 c 128,-1,45
 436 111 436 111 586 111 c 128,-1,46
 736 111 736 111 824.5 222 c 128,-1,47
 913 333 913 333 913 496 c 0,48,49
 913 658 913 658 824.5 767.5 c 128,-1,50
 736 877 736 877 586 877 c 128,-1,51
 436 877 436 877 347 767 c 128,-1,52
 258 657 258 657 258 496 c 0,43,44
1075 559 m 1,53,-1
 1726 559 l 1,54,55
 1725 604 1725 604 1712.5 649 c 128,-1,56
 1700 694 1700 694 1674 737 c 128,-1,57
 1648 780 1648 780 1611 813 c 128,-1,58
 1574 846 1574 846 1519.5 866.5 c 128,-1,59
 1465 887 1465 887 1401 887 c 0,60,61
 1325 887 1325 887 1262 857 c 128,-1,62
 1199 827 1199 827 1160.5 778.5 c 128,-1,63
 1122 730 1122 730 1100 673.5 c 128,-1,64
 1078 617 1078 617 1075 559 c 1,53,-1
EndSplineSet
EndChar

StartChar: Ydieresis
Encoding: 376 376 176
Width: 1282
GlyphClass: 2
Flags: W
LayerCount: 2
Fore
SplineSet
18 1366 m 1,0,-1
 217 1366 l 1,1,-1
 641 731 l 1,2,-1
 1065 1366 l 1,3,-1
 1264 1366 l 1,4,-1
 727 578 l 1,5,-1
 727 0 l 1,6,-1
 557 0 l 1,7,-1
 557 578 l 1,8,-1
 18 1366 l 1,0,-1
340 1583 m 0,9,10
 340 1623 340 1623 368 1650 c 128,-1,11
 396 1677 396 1677 436 1677 c 0,12,13
 475 1677 475 1677 502.5 1649.5 c 128,-1,14
 530 1622 530 1622 530 1583 c 0,15,16
 530 1545 530 1545 502 1517 c 128,-1,17
 474 1489 474 1489 436 1489 c 0,18,19
 396 1489 396 1489 368 1517 c 128,-1,20
 340 1545 340 1545 340 1583 c 0,9,10
764 1583 m 0,21,22
 764 1622 764 1622 791.5 1649.5 c 128,-1,23
 819 1677 819 1677 858 1677 c 0,24,25
 898 1677 898 1677 926 1650 c 128,-1,26
 954 1623 954 1623 954 1583 c 0,27,28
 954 1545 954 1545 926 1517 c 128,-1,29
 898 1489 898 1489 858 1489 c 0,30,31
 820 1489 820 1489 792 1517 c 128,-1,32
 764 1545 764 1545 764 1583 c 0,21,22
EndSplineSet
EndChar

StartChar: circumflex
Encoding: 710 710 177
Width: 542
GlyphClass: 2
Flags: W
LayerCount: 2
Fore
SplineSet
0 1139 m 1,0,-1
 195 1434 l 1,1,-1
 342 1434 l 1,2,-1
 543 1139 l 1,3,-1
 438 1139 l 1,4,-1
 268 1356 l 1,5,-1
 104 1139 l 1,6,-1
 0 1139 l 1,0,-1
EndSplineSet
EndChar

StartChar: tilde
Encoding: 732 732 178
Width: 641
GlyphClass: 2
Flags: W
LayerCount: 2
Fore
SplineSet
0 1147 m 1,0,1
 0 1270 0 1270 52.5 1345.5 c 128,-1,2
 105 1421 105 1421 199 1421 c 0,3,4
 240 1421 240 1421 272 1401.5 c 128,-1,5
 304 1382 304 1382 324 1354.5 c 128,-1,6
 344 1327 344 1327 362 1299.5 c 128,-1,7
 380 1272 380 1272 402 1252.5 c 128,-1,8
 424 1233 424 1233 451 1233 c 0,9,10
 495 1233 495 1233 522 1277 c 128,-1,11
 549 1321 549 1321 549 1409 c 1,12,-1
 641 1409 l 1,13,14
 641 1286 641 1286 588.5 1210.5 c 128,-1,15
 536 1135 536 1135 442 1135 c 0,16,17
 401 1135 401 1135 369 1154.5 c 128,-1,18
 337 1174 337 1174 317 1201.5 c 128,-1,19
 297 1229 297 1229 279 1256.5 c 128,-1,20
 261 1284 261 1284 239 1303.5 c 128,-1,21
 217 1323 217 1323 190 1323 c 0,22,23
 146 1323 146 1323 119 1279 c 128,-1,24
 92 1235 92 1235 92 1147 c 1,25,-1
 0 1147 l 1,0,1
EndSplineSet
EndChar

StartChar: uni2010
Encoding: 8208 8208 190
Width: 614
GlyphClass: 2
Flags: W
LayerCount: 2
Fore
SplineSet
61 428 m 1,0,-1
 61 563 l 1,1,-1
 553 563 l 1,2,-1
 553 428 l 1,3,-1
 61 428 l 1,0,-1
EndSplineSet
EndChar

StartChar: uni2011
Encoding: 8209 8209 191
Width: 614
GlyphClass: 2
Flags: W
LayerCount: 2
Fore
SplineSet
61 428 m 1,0,-1
 61 563 l 1,1,-1
 553 563 l 1,2,-1
 553 428 l 1,3,-1
 61 428 l 1,0,-1
EndSplineSet
EndChar

StartChar: figuredash
Encoding: 8210 8210 192
Width: 614
GlyphClass: 2
Flags: W
LayerCount: 2
Fore
SplineSet
61 428 m 1,0,-1
 61 563 l 1,1,-1
 553 563 l 1,2,-1
 553 428 l 1,3,-1
 61 428 l 1,0,-1
EndSplineSet
EndChar

StartChar: endash
Encoding: 8211 8211 193
Width: 1214
GlyphClass: 2
Flags: W
LayerCount: 2
Fore
SplineSet
61 428 m 1,0,-1
 61 563 l 1,1,-1
 1153 563 l 1,2,-1
 1153 428 l 1,3,-1
 61 428 l 1,0,-1
EndSplineSet
EndChar

StartChar: emdash
Encoding: 8212 8212 194
Width: 1705
GlyphClass: 2
Flags: W
LayerCount: 2
Fore
SplineSet
61 428 m 1,0,-1
 61 563 l 1,1,-1
 1645 563 l 1,2,-1
 1645 428 l 1,3,-1
 61 428 l 1,0,-1
EndSplineSet
EndChar

StartChar: quoteleft
Encoding: 8216 8216 195
Width: 471
GlyphClass: 2
Flags: W
LayerCount: 2
Fore
SplineSet
98 1079 m 0,0,1
 98 1169 98 1169 144 1251.5 c 128,-1,2
 190 1334 190 1334 262 1386 c 1,3,-1
 340 1325 l 1,4,5
 290 1292 290 1292 251.5 1238 c 128,-1,6
 213 1184 213 1184 207 1135 c 1,7,8
 208 1135 208 1135 219 1137 c 128,-1,9
 230 1139 230 1139 236 1139 c 0,10,11
 277 1139 277 1139 305.5 1108.5 c 128,-1,12
 334 1078 334 1078 334 1034 c 0,13,14
 334 988 334 988 302.5 956 c 128,-1,15
 271 924 271 924 225 924 c 0,16,17
 171 924 171 924 134.5 965.5 c 128,-1,18
 98 1007 98 1007 98 1079 c 0,0,1
EndSplineSet
EndChar

StartChar: quoteright
Encoding: 8217 8217 196
Width: 471
GlyphClass: 2
Flags: W
LayerCount: 2
Fore
SplineSet
117 985 m 1,0,1
 167 1018 167 1018 205.5 1072.5 c 128,-1,2
 244 1127 244 1127 250 1176 c 1,3,4
 240 1171 240 1171 221 1171 c 0,5,6
 180 1171 180 1171 151.5 1201.5 c 128,-1,7
 123 1232 123 1232 123 1276 c 0,8,9
 123 1321 123 1321 154.5 1353.5 c 128,-1,10
 186 1386 186 1386 231 1386 c 0,11,12
 286 1386 286 1386 323 1344.5 c 128,-1,13
 360 1303 360 1303 360 1231 c 0,14,15
 360 1140 360 1140 314 1057.5 c 128,-1,16
 268 975 268 975 195 922 c 1,17,-1
 117 985 l 1,0,1
EndSplineSet
EndChar

StartChar: quotesinglbase
Encoding: 8218 8218 197
Width: 471
GlyphClass: 2
Flags: W
LayerCount: 2
Fore
SplineSet
117 -197 m 1,0,1
 168 -164 168 -164 206 -110 c 128,-1,2
 244 -56 244 -56 250 -6 c 1,3,4
 242 -10 242 -10 221 -10 c 0,5,6
 180 -10 180 -10 151.5 20 c 128,-1,7
 123 50 123 50 123 94 c 0,8,9
 123 139 123 139 154.5 172 c 128,-1,10
 186 205 186 205 231 205 c 0,11,12
 286 205 286 205 323 162.5 c 128,-1,13
 360 120 360 120 360 49 c 0,14,15
 360 -42 360 -42 314 -124.5 c 128,-1,16
 268 -207 268 -207 195 -260 c 1,17,-1
 117 -197 l 1,0,1
EndSplineSet
EndChar

StartChar: quotedblleft
Encoding: 8220 8220 198
Width: 798
GlyphClass: 2
Flags: W
LayerCount: 2
Fore
SplineSet
111 1079 m 0,0,1
 111 1170 111 1170 157 1252.5 c 128,-1,2
 203 1335 203 1335 276 1386 c 1,3,-1
 352 1325 l 1,4,5
 302 1293 302 1293 264.5 1238.5 c 128,-1,6
 227 1184 227 1184 221 1135 c 1,7,-1
 232 1137 l 2,8,9
 242 1139 242 1139 248 1139 c 0,10,11
 291 1139 291 1139 319.5 1108.5 c 128,-1,12
 348 1078 348 1078 348 1034 c 0,13,14
 348 988 348 988 316 956 c 128,-1,15
 284 924 284 924 238 924 c 0,16,17
 184 924 184 924 147.5 965.5 c 128,-1,18
 111 1007 111 1007 111 1079 c 0,0,1
438 1079 m 0,19,20
 438 1170 438 1170 484.5 1252.5 c 128,-1,21
 531 1335 531 1335 604 1386 c 1,22,-1
 680 1325 l 1,23,24
 630 1293 630 1293 592.5 1238.5 c 128,-1,25
 555 1184 555 1184 549 1135 c 1,26,27
 550 1135 550 1135 560 1137 c 128,-1,28
 570 1139 570 1139 575 1139 c 0,29,30
 618 1139 618 1139 647 1108.5 c 128,-1,31
 676 1078 676 1078 676 1034 c 0,32,33
 676 988 676 988 643.5 956 c 128,-1,34
 611 924 611 924 565 924 c 0,35,36
 511 924 511 924 474.5 965.5 c 128,-1,37
 438 1007 438 1007 438 1079 c 0,19,20
EndSplineSet
EndChar

StartChar: quotedblright
Encoding: 8221 8221 199
Width: 798
GlyphClass: 2
Flags: W
LayerCount: 2
Fore
SplineSet
117 985 m 1,0,1
 167 1018 167 1018 205.5 1072.5 c 128,-1,2
 244 1127 244 1127 250 1176 c 1,3,4
 240 1171 240 1171 221 1171 c 0,5,6
 180 1171 180 1171 151.5 1201.5 c 128,-1,7
 123 1232 123 1232 123 1276 c 0,8,9
 123 1321 123 1321 154.5 1353.5 c 128,-1,10
 186 1386 186 1386 231 1386 c 0,11,12
 286 1386 286 1386 323 1344.5 c 128,-1,13
 360 1303 360 1303 360 1231 c 0,14,15
 360 1140 360 1140 314 1057.5 c 128,-1,16
 268 975 268 975 195 922 c 1,17,-1
 117 985 l 1,0,1
446 985 m 1,18,19
 496 1018 496 1018 534 1072.5 c 128,-1,20
 572 1127 572 1127 578 1176 c 1,21,22
 573 1171 573 1171 551 1171 c 0,23,24
 508 1171 508 1171 479.5 1201.5 c 128,-1,25
 451 1232 451 1232 451 1276 c 0,26,27
 451 1321 451 1321 483.5 1353.5 c 128,-1,28
 516 1386 516 1386 561 1386 c 0,29,30
 615 1386 615 1386 651.5 1344.5 c 128,-1,31
 688 1303 688 1303 688 1231 c 0,32,33
 688 1140 688 1140 641.5 1057.5 c 128,-1,34
 595 975 595 975 522 922 c 1,35,-1
 446 985 l 1,18,19
EndSplineSet
EndChar

StartChar: quotedblbase
Encoding: 8222 8222 200
Width: 798
GlyphClass: 2
Flags: W
LayerCount: 2
Fore
SplineSet
117 -197 m 1,0,1
 168 -164 168 -164 206 -110 c 128,-1,2
 244 -56 244 -56 250 -6 c 1,3,4
 242 -10 242 -10 221 -10 c 0,5,6
 180 -10 180 -10 151.5 20 c 128,-1,7
 123 50 123 50 123 94 c 0,8,9
 123 139 123 139 154.5 172 c 128,-1,10
 186 205 186 205 231 205 c 0,11,12
 286 205 286 205 323 162.5 c 128,-1,13
 360 120 360 120 360 49 c 0,14,15
 360 -42 360 -42 314 -124.5 c 128,-1,16
 268 -207 268 -207 195 -260 c 1,17,-1
 117 -197 l 1,0,1
446 -197 m 1,18,19
 496 -164 496 -164 534 -110 c 128,-1,20
 572 -56 572 -56 578 -6 c 1,21,22
 574 -10 574 -10 551 -10 c 0,23,24
 508 -10 508 -10 479.5 20 c 128,-1,25
 451 50 451 50 451 94 c 0,26,27
 451 139 451 139 483.5 172 c 128,-1,28
 516 205 516 205 561 205 c 0,29,30
 614 205 614 205 651 162.5 c 128,-1,31
 688 120 688 120 688 49 c 0,32,33
 688 -42 688 -42 641.5 -124.5 c 128,-1,34
 595 -207 595 -207 522 -260 c 1,35,-1
 446 -197 l 1,18,19
EndSplineSet
EndChar

StartChar: bullet
Encoding: 8226 8226 201
Width: 733
GlyphClass: 2
Flags: W
LayerCount: 2
Fore
SplineSet
147 496 m 0,0,1
 147 587 147 587 212.5 652 c 128,-1,2
 278 717 278 717 369 717 c 128,-1,3
 460 717 460 717 525 652 c 128,-1,4
 590 587 590 587 590 496 c 0,5,6
 590 406 590 406 525 341 c 128,-1,7
 460 276 460 276 369 276 c 128,-1,8
 278 276 278 276 212.5 341.5 c 128,-1,9
 147 407 147 407 147 496 c 0,0,1
EndSplineSet
EndChar

StartChar: ellipsis
Encoding: 8230 8230 202
Width: 1415
GlyphClass: 2
Flags: W
LayerCount: 2
Fore
SplineSet
123 92 m 0,0,1
 123 138 123 138 156.5 171.5 c 128,-1,2
 190 205 190 205 236 205 c 128,-1,3
 282 205 282 205 315 171.5 c 128,-1,4
 348 138 348 138 348 92 c 0,5,6
 348 47 348 47 314.5 13.5 c 128,-1,7
 281 -20 281 -20 236 -20 c 0,8,9
 190 -20 190 -20 156.5 14 c 128,-1,10
 123 48 123 48 123 92 c 0,0,1
594 92 m 0,11,12
 594 138 594 138 627.5 171.5 c 128,-1,13
 661 205 661 205 707 205 c 128,-1,14
 753 205 753 205 786 171.5 c 128,-1,15
 819 138 819 138 819 92 c 0,16,17
 819 47 819 47 785.5 13.5 c 128,-1,18
 752 -20 752 -20 707 -20 c 128,-1,19
 662 -20 662 -20 628 14 c 128,-1,20
 594 48 594 48 594 92 c 0,11,12
1067 92 m 0,21,22
 1067 138 1067 138 1100.5 171.5 c 128,-1,23
 1134 205 1134 205 1180 205 c 0,24,25
 1225 205 1225 205 1257.5 171.5 c 128,-1,26
 1290 138 1290 138 1290 92 c 0,27,28
 1290 47 1290 47 1257.5 13.5 c 128,-1,29
 1225 -20 1225 -20 1180 -20 c 0,30,31
 1134 -20 1134 -20 1100.5 14 c 128,-1,32
 1067 48 1067 48 1067 92 c 0,21,22
EndSplineSet
EndChar

StartChar: guilsinglleft
Encoding: 8249 8249 204
Width: 604
GlyphClass: 2
Flags: W
LayerCount: 2
Fore
SplineSet
61 498 m 1,0,-1
 389 860 l 1,1,-1
 543 860 l 1,2,-1
 215 498 l 1,3,-1
 543 129 l 1,4,-1
 389 129 l 1,5,-1
 61 498 l 1,0,-1
EndSplineSet
EndChar

StartChar: guilsinglright
Encoding: 8250 8250 205
Width: 604
GlyphClass: 2
Flags: W
LayerCount: 2
Fore
SplineSet
61 129 m 1,0,-1
 389 498 l 1,1,-1
 61 860 l 1,2,-1
 215 860 l 1,3,-1
 543 498 l 1,4,-1
 215 129 l 1,5,-1
 61 129 l 1,0,-1
EndSplineSet
EndChar

StartChar: Euro
Encoding: 8364 8364 207
Width: 1423
GlyphClass: 2
Flags: W
LayerCount: 2
Fore
SplineSet
63 485 m 1,0,-1
 63 592 l 1,1,-1
 154 592 l 1,2,3
 150 650 150 650 150 682 c 128,-1,4
 150 714 150 714 154 776 c 1,5,-1
 63 776 l 1,6,-1
 63 885 l 1,7,-1
 176 885 l 1,8,9
 237 1115 237 1115 422 1252 c 128,-1,10
 607 1389 607 1389 852 1389 c 0,11,12
 1181 1389 1181 1389 1370 1118 c 1,13,-1
 1229 1038 l 1,14,15
 1169 1128 1169 1128 1068 1182.5 c 128,-1,16
 967 1237 967 1237 852 1237 c 0,17,18
 678 1237 678 1237 545 1142 c 128,-1,19
 412 1047 412 1047 356 885 c 1,20,-1
 975 885 l 1,21,-1
 975 776 l 1,22,-1
 332 776 l 1,23,24
 326 730 326 730 326 682 c 0,25,26
 326 636 326 636 332 592 c 1,27,-1
 975 592 l 1,28,-1
 975 485 l 1,29,-1
 356 485 l 1,30,31
 410 322 410 322 544 224.5 c 128,-1,32
 678 127 678 127 852 127 c 0,33,34
 966 127 966 127 1067.5 182 c 128,-1,35
 1169 237 1169 237 1229 326 c 1,36,-1
 1372 248 l 1,37,38
 1173 -25 1173 -25 852 -25 c 0,39,40
 604 -25 604 -25 419 113.5 c 128,-1,41
 234 252 234 252 174 485 c 1,42,-1
 63 485 l 1,0,-1
EndSplineSet
EndChar

StartChar: trademark
Encoding: 8482 8482 208
Width: 929
GlyphClass: 2
Flags: W
LayerCount: 2
Fore
SplineSet
35 1313 m 1,0,-1
 35 1366 l 1,1,-1
 346 1366 l 1,2,-1
 346 1313 l 1,3,-1
 219 1313 l 1,4,-1
 219 915 l 1,5,-1
 162 915 l 1,6,-1
 162 1313 l 1,7,-1
 35 1313 l 1,0,-1
420 915 m 1,8,-1
 420 1366 l 1,9,-1
 508 1366 l 1,10,-1
 639 1038 l 1,11,-1
 770 1366 l 1,12,-1
 858 1366 l 1,13,-1
 858 915 l 1,14,-1
 801 915 l 1,15,-1
 801 1288 l 1,16,-1
 647 915 l 1,17,-1
 631 915 l 1,18,-1
 477 1288 l 1,19,-1
 477 915 l 1,20,-1
 420 915 l 1,8,-1
EndSplineSet
EndChar

StartChar: uni25FC
Encoding: 9724 9724 209
Width: 993
GlyphClass: 2
Flags: W
LayerCount: 2
Fore
SplineSet
0 0 m 1,0,-1
 0 993 l 1,1,-1
 993 993 l 1,2,-1
 993 0 l 1,3,-1
 0 0 l 1,0,-1
EndSplineSet
EndChar

StartChar: uniFB01
Encoding: 64257 64257 210
Width: 1042
GlyphClass: 3
Flags: W
LayerCount: 2
Fore
SplineSet
33 854 m 1,0,-1
 33 989 l 1,1,-1
 197 989 l 1,2,-1
 197 1065 l 2,3,4
 197 1216 197 1216 275 1301 c 128,-1,5
 353 1386 353 1386 483 1386 c 0,6,7
 578 1386 578 1386 635 1354 c 1,8,-1
 596 1237 l 1,9,10
 555 1260 555 1260 508 1260 c 0,11,12
 431 1260 431 1260 390.5 1210 c 128,-1,13
 350 1160 350 1160 350 1065 c 2,14,-1
 350 989 l 1,15,-1
 551 989 l 1,16,-1
 551 854 l 1,17,-1
 350 854 l 1,18,-1
 350 0 l 1,19,-1
 197 0 l 1,20,-1
 197 854 l 1,21,-1
 33 854 l 1,0,-1
709 1233 m 128,-1,23
 709 1276 709 1276 739.5 1306.5 c 128,-1,24
 770 1337 770 1337 813 1337 c 128,-1,25
 856 1337 856 1337 885.5 1306.5 c 128,-1,26
 915 1276 915 1276 915 1233 c 128,-1,27
 915 1190 915 1190 885.5 1160 c 128,-1,28
 856 1130 856 1130 813 1130 c 128,-1,29
 770 1130 770 1130 739.5 1160 c 128,-1,22
 709 1190 709 1190 709 1233 c 128,-1,23
735 0 m 1,30,-1
 735 989 l 1,31,-1
 889 989 l 1,32,-1
 889 0 l 1,33,-1
 735 0 l 1,30,-1
EndSplineSet
Ligature2: "'liga' Standard Ligatures in Latin lookup 0 subtable" f i
EndChar

StartChar: uniFB02
Encoding: 64258 64258 211
Width: 1132
GlyphClass: 3
Flags: W
LayerCount: 2
Fore
SplineSet
33 854 m 1,0,-1
 33 989 l 1,1,-1
 197 989 l 1,2,-1
 197 1065 l 2,3,4
 197 1216 197 1216 275 1301 c 128,-1,5
 353 1386 353 1386 483 1386 c 0,6,7
 578 1386 578 1386 635 1354 c 1,8,-1
 596 1237 l 1,9,10
 555 1260 555 1260 508 1260 c 0,11,12
 431 1260 431 1260 390.5 1210 c 128,-1,13
 350 1160 350 1160 350 1065 c 2,14,-1
 350 989 l 1,15,-1
 551 989 l 1,16,-1
 551 854 l 1,17,-1
 350 854 l 1,18,-1
 350 0 l 1,19,-1
 197 0 l 1,20,-1
 197 854 l 1,21,-1
 33 854 l 1,0,-1
735 207 m 2,22,-1
 735 1366 l 1,23,-1
 889 1366 l 1,24,-1
 889 240 l 2,25,26
 889 182 889 182 914.5 147.5 c 128,-1,27
 940 113 940 113 989 113 c 0,28,29
 1020 113 1020 113 1049 125.5 c 128,-1,30
 1078 138 1078 138 1092 156 c 1,31,-1
 1139 39 l 1,32,33
 1068 -25 1068 -25 954 -25 c 0,34,35
 846 -25 846 -25 790.5 35.5 c 128,-1,36
 735 96 735 96 735 207 c 2,22,-1
EndSplineSet
Ligature2: "'liga' Standard Ligatures in Latin lookup 0 subtable" f l
EndChar

StartChar: uni0087
Encoding: 135 135 212
Width: 1347
Flags: W
LayerCount: 2
Fore
SplineSet
18 0 m 1,0,-1
 569 1366 l 1,1,-1
 780 1366 l 1,2,-1
 1329 0 l 1,3,-1
 1135 0 l 1,4,-1
 1014 305 l 1,5,-1
 334 305 l 1,6,-1
 213 0 l 1,7,-1
 18 0 l 1,0,-1
385 455 m 1,8,-1
 965 455 l 1,9,-1
 674 1192 l 1,10,-1
 385 455 l 1,8,-1
EndSplineSet
EndChar

StartChar: uni0088
Encoding: 136 136 213
Width: 1177
Flags: W
LayerCount: 2
Fore
SplineSet
96 494 m 0,0,1
 96 729 96 729 219 871.5 c 128,-1,2
 342 1014 342 1014 537 1014 c 0,3,4
 636 1014 636 1014 722.5 968 c 128,-1,5
 809 922 809 922 870 840 c 1,6,-1
 870 989 l 1,7,-1
 1024 989 l 1,8,-1
 1024 0 l 1,9,-1
 870 0 l 1,10,-1
 870 147 l 1,11,12
 812 69 812 69 725 22 c 128,-1,13
 638 -25 638 -25 537 -25 c 0,14,15
 341 -25 341 -25 218.5 115.5 c 128,-1,16
 96 256 96 256 96 494 c 0,0,1
256 494 m 128,-1,18
 256 326 256 326 341.5 219.5 c 128,-1,19
 427 113 427 113 575 113 c 0,20,21
 664 113 664 113 746.5 158.5 c 128,-1,22
 829 204 829 204 870 270 c 1,23,-1
 870 717 l 1,24,25
 829 784 829 784 746 830.5 c 128,-1,26
 663 877 663 877 575 877 c 0,27,28
 428 877 428 877 342 769.5 c 128,-1,17
 256 662 256 662 256 494 c 128,-1,18
EndSplineSet
EndChar

StartChar: uni0089
Encoding: 137 137 214
Width: 1177
Flags: W
LayerCount: 2
Fore
SplineSet
96 494 m 0,0,1
 96 729 96 729 219 871.5 c 128,-1,2
 342 1014 342 1014 537 1014 c 0,3,4
 636 1014 636 1014 722.5 968 c 128,-1,5
 809 922 809 922 870 840 c 1,6,-1
 870 989 l 1,7,-1
 1024 989 l 1,8,-1
 1024 0 l 1,9,-1
 870 0 l 1,10,-1
 870 147 l 1,11,12
 812 69 812 69 725 22 c 128,-1,13
 638 -25 638 -25 537 -25 c 0,14,15
 341 -25 341 -25 218.5 115.5 c 128,-1,16
 96 256 96 256 96 494 c 0,0,1
256 494 m 128,-1,18
 256 326 256 326 341.5 219.5 c 128,-1,19
 427 113 427 113 575 113 c 0,20,21
 664 113 664 113 746.5 158.5 c 128,-1,22
 829 204 829 204 870 270 c 1,23,-1
 870 717 l 1,24,25
 829 784 829 784 746 830.5 c 128,-1,26
 663 877 663 877 575 877 c 0,27,28
 428 877 428 877 342 769.5 c 128,-1,17
 256 662 256 662 256 494 c 128,-1,18
393 1337 m 128,-1,30
 393 1420 393 1420 453 1480 c 128,-1,31
 513 1540 513 1540 596 1540 c 128,-1,32
 679 1540 679 1540 737 1480.5 c 128,-1,33
 795 1421 795 1421 795 1337 c 128,-1,34
 795 1253 795 1253 737 1194 c 128,-1,35
 679 1135 679 1135 596 1135 c 128,-1,36
 513 1135 513 1135 453 1194.5 c 128,-1,29
 393 1254 393 1254 393 1337 c 128,-1,30
475 1337 m 128,-1,38
 475 1287 475 1287 510 1252 c 128,-1,39
 545 1217 545 1217 596 1217 c 0,40,41
 645 1217 645 1217 680 1252 c 128,-1,42
 715 1287 715 1287 715 1337 c 128,-1,43
 715 1387 715 1387 680 1422.5 c 128,-1,44
 645 1458 645 1458 596 1458 c 0,45,46
 545 1458 545 1458 510 1422.5 c 128,-1,37
 475 1387 475 1387 475 1337 c 128,-1,38
EndSplineSet
EndChar

StartChar: uni008A
Encoding: 138 138 215
Width: 1347
Flags: W
LayerCount: 2
Fore
SplineSet
18 0 m 1,0,-1
 569 1366 l 1,1,-1
 780 1366 l 1,2,-1
 1329 0 l 1,3,-1
 1135 0 l 1,4,-1
 1014 305 l 1,5,-1
 334 305 l 1,6,-1
 213 0 l 1,7,-1
 18 0 l 1,0,-1
385 455 m 1,8,-1
 965 455 l 1,9,-1
 674 1192 l 1,10,-1
 385 455 l 1,8,-1
473 1620 m 128,-1,12
 473 1703 473 1703 533 1763 c 128,-1,13
 593 1823 593 1823 676 1823 c 128,-1,14
 759 1823 759 1823 816.5 1763.5 c 128,-1,15
 874 1704 874 1704 874 1620 c 128,-1,16
 874 1536 874 1536 816.5 1476.5 c 128,-1,17
 759 1417 759 1417 676 1417 c 128,-1,18
 593 1417 593 1417 533 1477 c 128,-1,11
 473 1537 473 1537 473 1620 c 128,-1,12
555 1620 m 128,-1,20
 555 1570 555 1570 590 1534.5 c 128,-1,21
 625 1499 625 1499 676 1499 c 0,22,23
 725 1499 725 1499 760 1534.5 c 128,-1,24
 795 1570 795 1570 795 1620 c 128,-1,25
 795 1670 795 1670 760 1705.5 c 128,-1,26
 725 1741 725 1741 676 1741 c 0,27,28
 625 1741 625 1741 590 1705.5 c 128,-1,19
 555 1670 555 1670 555 1620 c 128,-1,20
EndSplineSet
EndChar

StartChar: uni008B
Encoding: 139 139 216
Width: 1171
Flags: W
LayerCount: 2
Fore
SplineSet
90 496 m 0,0,1
 90 735 90 735 211.5 874.5 c 128,-1,2
 333 1014 333 1014 530 1014 c 0,3,4
 631 1014 631 1014 719.5 967 c 128,-1,5
 808 920 808 920 864 842 c 1,6,-1
 864 989 l 1,7,-1
 1018 989 l 1,8,-1
 1018 -377 l 1,9,-1
 864 -377 l 1,10,-1
 864 150 l 1,11,12
 801 67 801 67 715.5 21 c 128,-1,13
 630 -25 630 -25 530 -25 c 0,14,15
 333 -25 333 -25 211.5 117 c 128,-1,16
 90 259 90 259 90 496 c 0,0,1
252 496 m 128,-1,18
 252 328 252 328 337.5 220.5 c 128,-1,19
 423 113 423 113 569 113 c 0,20,21
 657 113 657 113 740 159 c 128,-1,22
 823 205 823 205 864 272 c 1,23,-1
 864 719 l 1,24,25
 823 785 823 785 740 831 c 128,-1,26
 657 877 657 877 569 877 c 0,27,28
 423 877 423 877 337.5 770.5 c 128,-1,17
 252 664 252 664 252 496 c 128,-1,18
EndSplineSet
EndChar

StartChar: uni008C
Encoding: 140 140 217
Width: 1503
Flags: W
LayerCount: 2
Fore
SplineSet
25 989 m 1,0,-1
 184 989 l 1,1,-1
 426 201 l 1,2,-1
 686 989 l 1,3,-1
 819 989 l 1,4,-1
 1077 201 l 1,5,-1
 1319 989 l 1,6,-1
 1481 989 l 1,7,-1
 1165 0 l 1,8,-1
 1010 0 l 1,9,-1
 752 795 l 1,10,-1
 494 0 l 1,11,-1
 340 0 l 1,12,-1
 25 989 l 1,0,-1
EndSplineSet
EndChar

StartChar: uni008D
Encoding: 141 141 218
Width: 997
Flags: W
LayerCount: 2
Fore
SplineSet
25 0 m 1,0,-1
 403 508 l 1,1,-1
 45 989 l 1,2,-1
 223 989 l 1,3,-1
 498 612 l 1,4,-1
 774 989 l 1,5,-1
 950 989 l 1,6,-1
 592 508 l 1,7,-1
 973 0 l 1,8,-1
 797 0 l 1,9,-1
 498 406 l 1,10,-1
 201 0 l 1,11,-1
 25 0 l 1,0,-1
EndSplineSet
EndChar

StartChar: uni008E
Encoding: 142 142 219
Width: 966
Flags: W
LayerCount: 2
Fore
SplineSet
106 0 m 1,0,-1
 106 121 l 1,1,-1
 651 854 l 1,2,-1
 106 854 l 1,3,-1
 106 989 l 1,4,-1
 852 989 l 1,5,-1
 852 872 l 1,6,-1
 303 135 l 1,7,-1
 860 135 l 1,8,-1
 860 0 l 1,9,-1
 106 0 l 1,0,-1
EndSplineSet
EndChar

StartChar: uni008F
Encoding: 143 143 220
Width: 1460
Flags: W
LayerCount: 2
Fore
SplineSet
104 682 m 0,0,1
 104 838 104 838 159.5 971.5 c 128,-1,2
 215 1105 215 1105 309.5 1196 c 128,-1,3
 404 1287 404 1287 533 1338 c 128,-1,4
 662 1389 662 1389 807 1389 c 0,5,6
 1131 1389 1131 1389 1337 1135 c 1,7,-1
 1202 1049 l 1,8,9
 1136 1135 1136 1135 1031.5 1186 c 128,-1,10
 927 1237 927 1237 807 1237 c 0,11,12
 581 1237 581 1237 431 1081.5 c 128,-1,13
 281 926 281 926 281 682 c 0,14,15
 281 523 281 523 350 395.5 c 128,-1,16
 419 268 419 268 539 197.5 c 128,-1,17
 659 127 659 127 807 127 c 0,18,19
 909 127 909 127 992 161 c 128,-1,20
 1075 195 1075 195 1130 255 c 128,-1,21
 1185 315 1185 315 1219 389.5 c 128,-1,22
 1253 464 1253 464 1266 551 c 1,23,-1
 705 551 l 1,24,-1
 705 702 l 1,25,-1
 1450 702 l 1,26,27
 1450 487 1450 487 1375.5 323.5 c 128,-1,28
 1301 160 1301 160 1151.5 66.5 c 128,-1,29
 1002 -27 1002 -27 795 -27 c 0,30,31
 654 -27 654 -27 528 25 c 128,-1,32
 402 77 402 77 308 168 c 128,-1,33
 214 259 214 259 159 393 c 128,-1,34
 104 527 104 527 104 682 c 0,0,1
EndSplineSet
EndChar

StartChar: uni0090
Encoding: 144 144 221
Width: 1458
Flags: W
LayerCount: 2
Fore
SplineSet
160 0 m 1,0,-1
 160 1366 l 1,1,-1
 330 1366 l 1,2,-1
 330 778 l 1,3,-1
 1128 778 l 1,4,-1
 1128 1366 l 1,5,-1
 1298 1366 l 1,6,-1
 1298 0 l 1,7,-1
 1128 0 l 1,8,-1
 1128 627 l 1,9,-1
 330 627 l 1,10,-1
 330 0 l 1,11,-1
 160 0 l 1,0,-1
EndSplineSet
EndChar

StartChar: uni0091
Encoding: 145 145 222
Width: 489
Flags: W
LayerCount: 2
Fore
SplineSet
160 0 m 1,0,-1
 160 1366 l 1,1,-1
 330 1366 l 1,2,-1
 330 0 l 1,3,-1
 160 0 l 1,0,-1
EndSplineSet
EndChar

StartChar: uni0092
Encoding: 146 146 223
Width: 972
Flags: W
LayerCount: 2
Fore
SplineSet
23 133 m 1,0,-1
 113 262 l 1,1,2
 220 127 220 127 369 127 c 0,3,4
 494 127 494 127 568.5 206 c 128,-1,5
 643 285 643 285 643 414 c 2,6,-1
 643 1366 l 1,7,-1
 813 1366 l 1,8,-1
 813 412 l 2,9,10
 813 269 813 269 754.5 168.5 c 128,-1,11
 696 68 696 68 600 21.5 c 128,-1,12
 504 -25 504 -25 379 -25 c 0,13,14
 157 -25 157 -25 23 133 c 1,0,-1
EndSplineSet
EndChar

StartChar: uni0093
Encoding: 147 147 224
Width: 1230
Flags: W
LayerCount: 2
Fore
SplineSet
160 0 m 1,0,-1
 160 1366 l 1,1,-1
 330 1366 l 1,2,-1
 330 662 l 1,3,-1
 934 1366 l 1,4,-1
 1147 1366 l 1,5,-1
 578 719 l 1,6,-1
 1198 0 l 1,7,-1
 985 0 l 1,8,-1
 467 614 l 1,9,-1
 330 459 l 1,10,-1
 330 0 l 1,11,-1
 160 0 l 1,0,-1
EndSplineSet
EndChar

StartChar: uni0094
Encoding: 148 148 225
Width: 1009
Flags: W
LayerCount: 2
Fore
SplineSet
137 0 m 1,0,-1
 137 1366 l 1,1,-1
 307 1366 l 1,2,-1
 307 152 l 1,3,-1
 942 152 l 1,4,-1
 942 0 l 1,5,-1
 137 0 l 1,0,-1
EndSplineSet
EndChar

StartChar: uni0095
Encoding: 149 149 226
Width: 1656
Flags: W
LayerCount: 2
Fore
SplineSet
160 0 m 1,0,-1
 160 1366 l 1,1,-1
 403 1366 l 1,2,-1
 829 313 l 1,3,-1
 1253 1366 l 1,4,-1
 1497 1366 l 1,5,-1
 1497 0 l 1,6,-1
 1327 0 l 1,7,-1
 1327 1149 l 1,8,-1
 864 0 l 1,9,-1
 795 0 l 1,10,-1
 330 1149 l 1,11,-1
 330 0 l 1,12,-1
 160 0 l 1,0,-1
EndSplineSet
EndChar

StartChar: uni0096
Encoding: 150 150 227
Width: 1449
Flags: W
LayerCount: 2
Fore
SplineSet
160 0 m 1,0,-1
 160 1366 l 1,1,-1
 334 1366 l 1,2,-1
 1120 299 l 1,3,-1
 1120 1366 l 1,4,-1
 1290 1366 l 1,5,-1
 1290 0 l 1,6,-1
 1126 0 l 1,7,-1
 330 1090 l 1,8,-1
 330 0 l 1,9,-1
 160 0 l 1,0,-1
EndSplineSet
EndChar

StartChar: uni0097
Encoding: 151 151 228
Width: 1566
Flags: W
LayerCount: 2
Fore
SplineSet
104 682 m 128,-1,1
 104 882 104 882 188.5 1043 c 128,-1,2
 273 1204 273 1204 428.5 1296.5 c 128,-1,3
 584 1389 584 1389 782 1389 c 128,-1,4
 980 1389 980 1389 1136 1296.5 c 128,-1,5
 1292 1204 1292 1204 1377 1043 c 128,-1,6
 1462 882 1462 882 1462 682 c 128,-1,7
 1462 482 1462 482 1377 321 c 128,-1,8
 1292 160 1292 160 1136 67.5 c 128,-1,9
 980 -25 980 -25 782 -25 c 128,-1,10
 584 -25 584 -25 428.5 67.5 c 128,-1,11
 273 160 273 160 188.5 321 c 128,-1,0
 104 482 104 482 104 682 c 128,-1,1
281 682 m 0,12,13
 281 524 281 524 341.5 398 c 128,-1,14
 402 272 402 272 517 199.5 c 128,-1,15
 632 127 632 127 782 127 c 128,-1,16
 932 127 932 127 1047.5 199.5 c 128,-1,17
 1163 272 1163 272 1224.5 398 c 128,-1,18
 1286 524 1286 524 1286 682 c 0,19,20
 1286 924 1286 924 1147 1080.5 c 128,-1,21
 1008 1237 1008 1237 782 1237 c 0,22,23
 555 1237 555 1237 418 1081 c 128,-1,24
 281 925 281 925 281 682 c 0,12,13
EndSplineSet
EndChar

StartChar: uni0098
Encoding: 152 152 229
Width: 1202
Flags: W
LayerCount: 2
Fore
SplineSet
160 0 m 1,0,-1
 160 1366 l 1,1,-1
 709 1366 l 2,2,3
 907 1366 907 1366 1022 1247.5 c 128,-1,4
 1137 1129 1137 1129 1137 954 c 0,5,6
 1137 780 1137 780 1021.5 661.5 c 128,-1,7
 906 543 906 543 709 543 c 2,8,-1
 330 543 l 1,9,-1
 330 0 l 1,10,-1
 160 0 l 1,0,-1
330 694 m 1,11,-1
 688 694 l 2,12,13
 809 694 809 694 885 766 c 128,-1,14
 961 838 961 838 961 954 c 128,-1,15
 961 1070 961 1070 885 1142 c 128,-1,16
 809 1214 809 1214 688 1214 c 2,17,-1
 330 1214 l 1,18,-1
 330 694 l 1,11,-1
EndSplineSet
EndChar
